<svg width="120" height="15" viewBox="0 0 120 15" fill="none" xmlns="http://www.w3.org/2000/svg">
<path d="M36.8231 5.37161C37.0689 5.12558 37.3651 4.93571 37.6913 4.81507C38.0535 4.68209 38.437 4.61637 38.8229 4.6211C39.2626 4.61491 39.6982 4.70724 40.0976 4.89129C40.5024 5.0877 40.8648 5.36149 41.1644 5.69723L42.901 4.1246C42.4239 3.55028 41.8134 3.10152 41.1229 2.81755C40.3497 2.50008 39.52 2.34296 38.6843 2.3557C37.9493 2.34719 37.2188 2.47079 36.5275 2.72058C35.8956 2.94813 35.3166 3.30167 34.8255 3.75975C34.349 4.20837 33.9693 4.74987 33.7101 5.35084C33.4376 5.98916 33.3015 6.67742 33.3106 7.37144C33.3017 8.0647 33.4377 8.75217 33.7101 9.38974C33.9687 9.98932 34.3457 10.5305 34.8186 10.9808C35.3046 11.4387 35.879 11.7923 36.5067 12.02C37.1861 12.2693 37.9051 12.3937 38.6289 12.3872C39.3524 12.3834 40.0718 12.2761 40.7649 12.0685C41.4502 11.8776 42.0978 11.5707 42.6793 11.1609V7.1636H40.2685V9.81001C40.1715 9.85389 40.0768 9.89315 39.9798 9.92779C39.5986 10.0591 39.1983 10.1262 38.7951 10.1264C38.4157 10.1304 38.0389 10.063 37.6844 9.92779C37.3612 9.80086 37.0679 9.60821 36.8231 9.36203C36.5797 9.11139 36.3902 8.81351 36.2665 8.48681C36.1293 8.13114 36.0612 7.75262 36.0656 7.37144C36.0596 6.98263 36.1277 6.59622 36.2665 6.23296C36.3928 5.91166 36.5821 5.61882 36.8231 5.37161Z" fill="white"/>
<path d="M50.6298 5.05739C50.0031 4.75436 49.3145 4.60099 48.6184 4.60938C47.8863 4.59854 47.1626 4.76659 46.5101 5.09894C45.9036 5.40825 45.3957 5.88098 45.0437 6.46373C44.685 7.06495 44.501 7.7543 44.5125 8.45431C44.5 9.15632 44.6892 9.84717 45.0576 10.4449C45.4284 11.0399 45.9578 11.5197 46.5863 11.8305C47.305 12.1797 48.0967 12.3523 48.8955 12.3339C49.5298 12.3479 50.1612 12.2429 50.7568 12.0245C51.2619 11.8301 51.7149 11.521 52.08 11.1215L50.6945 9.68745C50.4635 9.89205 50.2007 10.0575 49.9163 10.177C49.6146 10.2903 49.2939 10.3444 48.9718 10.3364C48.6201 10.3457 48.2713 10.2721 47.9534 10.1216C47.6781 9.98837 47.4495 9.77509 47.2975 9.50966C47.2326 9.39149 47.1822 9.26587 47.1475 9.13556H52.5696C52.5696 9.03626 52.5881 8.92541 52.5973 8.80533C52.6065 8.68524 52.6112 8.5744 52.6112 8.48896C52.634 7.74951 52.4475 7.01865 52.0731 6.3806C51.7286 5.8104 51.2277 5.35113 50.6298 5.05739ZM47.8125 6.67388C48.0627 6.53388 48.3456 6.46295 48.6323 6.46835C48.919 6.46216 49.2022 6.53315 49.4521 6.67388C49.6863 6.81217 49.8773 7.01286 50.004 7.25351C50.0836 7.40929 50.1374 7.57697 50.1633 7.75H47.1105C47.1393 7.58019 47.1922 7.41535 47.2675 7.26044C47.3898 7.0177 47.5788 6.81498 47.8125 6.67619V6.67388Z" fill="white"/>
<path d="M58.2222 10.3016C58.1171 10.3046 58.0124 10.2856 57.9149 10.2459C57.8175 10.2061 57.7295 10.1464 57.6565 10.0706C57.5784 9.98683 57.5178 9.88836 57.4782 9.78093C57.4385 9.67349 57.4206 9.55924 57.4256 9.44482V6.96468H59.1344V5.00642H57.4256V3.06201H54.8068V5.00411H53.7192V6.96236H54.8068V9.47022C54.8068 10.4239 55.0747 11.1398 55.6058 11.6109C56.137 12.082 56.8828 12.3222 57.8389 12.3222C58.1772 12.3232 58.5147 12.2884 58.8457 12.2183C59.1346 12.1626 59.4104 12.0529 59.6586 11.895L59.0097 10.0614C58.7789 10.2221 58.5034 10.3062 58.2222 10.3016Z" fill="white"/>
<path d="M64.5897 2.55664L60.3314 12.2024H63.1025L63.8553 10.3296H67.945L68.6978 12.2024H71.5498L67.2776 2.55664H64.5897ZM64.6751 8.31593L65.9129 5.23307L67.1506 8.31593H64.6751Z" fill="white"/>
<path d="M79.3204 4.9603C78.8308 4.72196 78.2923 4.60173 77.7478 4.60928C77.1621 4.60043 76.5837 4.74026 76.0667 5.01572C75.8088 5.15731 75.5749 5.33894 75.3739 5.55379V4.73399H72.8799V12.2021H75.4986V8.60432C75.4844 8.25845 75.55 7.91395 75.6902 7.59749C75.8047 7.35519 75.9931 7.15547 76.2283 7.02711C76.4609 6.90165 76.7215 6.83728 76.9858 6.84004C77.1538 6.83141 77.3216 6.85961 77.4776 6.92264C77.6335 6.98566 77.7738 7.08198 77.8887 7.20489C78.1042 7.44968 78.212 7.83455 78.212 8.35953V12.2045H80.8307V7.93232C80.8569 7.27918 80.717 6.63008 80.4242 6.04567C80.176 5.57949 79.7907 5.20066 79.3204 4.9603Z" fill="white"/>
<path d="M89.1643 5.44304C88.4992 4.88882 87.5601 4.61091 86.347 4.60938C85.7492 4.61137 85.154 4.68896 84.5757 4.8403C84.0367 4.96837 83.5226 5.1845 83.054 5.47997L83.9337 7.25812C84.2148 7.04398 84.5325 6.88277 84.8713 6.7824C85.2238 6.67013 85.5914 6.61251 85.9613 6.61152C86.5109 6.61152 86.9127 6.72235 87.1667 6.94866C87.2826 7.05745 87.3752 7.1887 87.4387 7.3344C87.5022 7.48011 87.5354 7.63723 87.5362 7.79617H86.056C85.4164 7.77587 84.778 7.86651 84.1693 8.06406C83.741 8.20542 83.3662 8.47459 83.0955 8.83534C82.857 9.18616 82.7343 9.60284 82.7445 10.0269C82.7397 10.4409 82.8526 10.8477 83.0701 11.2C83.2983 11.5603 83.6254 11.8473 84.0123 12.0267C84.4886 12.2411 85.0074 12.3446 85.5295 12.3293C86.0822 12.3546 86.6303 12.2181 87.1067 11.9367C87.3742 11.7587 87.59 11.5134 87.7325 11.2254V12.2046H90.1734V8.04787C90.1672 6.86861 89.8309 6.00035 89.1643 5.44304ZM87.0213 10.4518C86.7871 10.595 86.5174 10.6695 86.243 10.6666C85.9876 10.6811 85.7351 10.6077 85.5272 10.4588C85.4425 10.3949 85.3744 10.3116 85.3286 10.216C85.2828 10.1204 85.2606 10.0151 85.2639 9.90916C85.2602 9.80348 85.2815 9.69841 85.326 9.60251C85.3705 9.50661 85.4371 9.42258 85.5202 9.35724C85.786 9.19295 86.0982 9.11996 86.4093 9.1494H87.5385V9.79832C87.4468 10.0694 87.264 10.3003 87.0213 10.4518Z" fill="white"/>
<path d="M95.1246 1.979H92.5059V12.2044H95.1246V1.979Z" fill="white"/>
<path d="M101.039 9.29697L99.2054 4.73386H96.5175L99.7227 12.299C99.6397 12.4695 99.5217 12.6206 99.3763 12.7424C99.1781 12.8793 98.9402 12.9467 98.6997 12.9341C98.4905 12.9323 98.2832 12.8932 98.0877 12.8186C97.8874 12.7448 97.7026 12.6344 97.5428 12.493L96.6329 14.3266C96.9232 14.5496 97.2531 14.7157 97.6051 14.8161C97.9906 14.9379 98.3924 15.0002 98.7967 15.0008C99.2592 15.0025 99.7186 14.9243 100.155 14.7699C100.583 14.6093 100.966 14.347 101.27 14.0056C101.654 13.5595 101.956 13.048 102.159 12.4953L105.392 4.72461H102.898L101.039 9.29697Z" fill="white"/>
<path d="M112.165 8.18633C111.895 8.02157 111.603 7.89856 111.297 7.82148C110.986 7.73963 110.67 7.67717 110.352 7.63444C110.04 7.59287 109.752 7.5513 109.491 7.50973C109.274 7.4822 109.063 7.42225 108.865 7.33191C108.797 7.30492 108.739 7.25846 108.698 7.19844C108.657 7.13841 108.635 7.06752 108.634 6.99477C108.64 6.91373 108.668 6.83584 108.715 6.76979C108.762 6.70374 108.827 6.65211 108.902 6.62067C109.194 6.50106 109.51 6.44972 109.825 6.47056C110.178 6.47296 110.53 6.51243 110.874 6.58834C111.262 6.67309 111.634 6.81968 111.975 7.02248L112.761 5.24433C112.337 5.01255 111.878 4.85186 111.403 4.76863C110.879 4.66362 110.346 4.61024 109.812 4.60928C109.136 4.59146 108.463 4.70195 107.828 4.93489C107.343 5.10795 106.916 5.41262 106.595 5.81474C106.318 6.18147 106.17 6.62974 106.175 7.08943C106.161 7.45289 106.24 7.81384 106.405 8.13784C106.556 8.40579 106.772 8.63081 107.034 8.79138C107.302 8.95621 107.595 9.07703 107.902 9.1493C108.218 9.22782 108.532 9.29018 108.846 9.33637L109.708 9.46105C109.924 9.486 110.137 9.53879 110.34 9.61809C110.408 9.64089 110.467 9.6844 110.508 9.74243C110.55 9.80047 110.572 9.87008 110.571 9.94139C110.57 10.0216 110.545 10.0996 110.5 10.166C110.455 10.2324 110.391 10.2843 110.317 10.3155C110.023 10.4279 109.708 10.4744 109.394 10.4517C108.926 10.4503 108.46 10.3882 108.008 10.267C107.577 10.1573 107.164 9.9879 106.78 9.76358L105.994 11.5556C106.45 11.8097 106.94 11.9949 107.449 12.1052C108.053 12.2563 108.674 12.3338 109.297 12.3361C109.99 12.3554 110.68 12.2433 111.331 12.0059C111.816 11.828 112.244 11.5234 112.571 11.1237C112.847 10.7693 112.995 10.3325 112.991 9.88366C113.007 9.52226 112.928 9.16308 112.761 8.84218C112.62 8.57703 112.415 8.35147 112.165 8.18633Z" fill="white"/>
<path d="M119.351 10.066C119.116 10.2258 118.836 10.3067 118.552 10.2969C118.447 10.3 118.342 10.281 118.245 10.2413C118.147 10.2015 118.059 10.1418 117.986 10.066C117.908 9.98221 117.848 9.88374 117.808 9.7763C117.768 9.66886 117.75 9.55461 117.755 9.4402V6.96005H119.464V5.0018H117.755V3.06201H115.148V5.00411H114.061V6.96236H115.148V9.47022C115.148 10.4239 115.416 11.1398 115.947 11.6109C116.478 12.082 117.224 12.3222 118.18 12.3222C118.519 12.3232 118.856 12.2884 119.187 12.2183C119.476 12.1626 119.752 12.0529 120 11.895L119.351 10.066Z" fill="white"/>
<path d="M12.9823 7.45006C12.9823 8.92123 12.3989 10.3323 11.3599 11.3739C10.3209 12.4155 8.91124 13.0025 7.44008 13.0062C6.71109 13.008 5.98896 12.866 5.31494 12.5883C4.64093 12.3106 4.02829 11.9026 3.51218 11.3878C2.99607 10.8729 2.58659 10.2614 2.3072 9.58805C2.02781 8.91473 1.88402 8.19291 1.88403 7.46393C1.88344 6.15673 2.34393 4.89121 3.18451 3.89012C4.02509 2.88903 5.19186 2.21652 6.47944 1.99095V0.0834961C4.5233 0.337754 2.74828 1.35863 1.5448 2.92156C0.341308 4.4845 -0.19209 6.46146 0.0619833 8.41763C0.187589 9.38634 0.502828 10.3208 0.989692 11.1677C1.47656 12.0145 2.12551 12.7571 2.89946 13.3531C3.67341 13.949 4.55723 14.3867 5.50037 14.6409C6.44351 14.8952 7.4275 14.9612 8.39614 14.8351C10.188 14.6028 11.8339 13.726 13.0264 12.3686C14.2189 11.0112 14.8764 9.26611 14.876 7.4593L12.9823 7.45006Z" fill="white"/>
<path d="M16.7502 5.56982H14.8658V7.45419H16.7502V5.56982Z" fill="white"/>
<path d="M15.792 2.41254e-05C13.8198 0.00307931 11.9293 0.788044 10.535 2.1828C9.14067 3.57756 8.35632 5.46829 8.35388 7.44047H10.2382C10.2379 6.71083 10.3813 5.98828 10.6603 5.31407C10.9392 4.63986 11.3482 4.0272 11.864 3.51105C12.3797 2.99491 12.992 2.58541 13.666 2.30591C14.34 2.02641 15.0624 1.88238 15.792 1.88208C17.2636 1.88146 18.6753 2.46466 19.7174 3.5037C20.7594 4.54274 21.3468 5.95275 21.3504 7.42432C21.351 8.73212 20.8902 9.99821 20.0492 10.9997C19.2082 12.0013 18.0409 12.674 16.7527 12.8996V14.8047C18.7081 14.5547 20.4843 13.5388 21.6911 11.98C22.8978 10.4212 23.4365 8.44705 23.1886 6.49137C22.958 4.6941 22.0792 3.04286 20.7172 1.84763C19.3553 0.652408 17.604 -0.00458863 15.792 2.41254e-05Z" fill="white"/>
<path d="M8.35397 7.43799H6.4696V9.32235H8.35397V7.43799Z" fill="white"/>
</svg>
