<svg width="124" height="62" viewBox="0 0 124 62" fill="none" xmlns="http://www.w3.org/2000/svg">
<g clip-path="url(#clip0_81_680)">
<path d="M38.823 28.8721C39.0688 28.6261 39.365 28.4362 39.6912 28.3156C40.0534 28.1826 40.4369 28.1169 40.8228 28.1216C41.2625 28.1154 41.6981 28.2077 42.0975 28.3918C42.5023 28.5882 42.8647 28.862 43.1643 29.1977L44.9009 27.6251C44.4238 27.0508 43.8133 26.602 43.1228 26.318C42.3496 26.0006 41.5199 25.8434 40.6842 25.8562C39.9492 25.8477 39.2187 25.9713 38.5274 26.2211C37.8955 26.4486 37.3165 26.8022 36.8254 27.2602C36.3489 27.7089 35.9692 28.2504 35.71 28.8513C35.4375 29.4896 35.3014 30.1779 35.3105 30.8719C35.3016 31.5652 35.4376 32.2527 35.71 32.8902C35.9686 33.4898 36.3456 34.031 36.8185 34.4813C37.3045 34.9392 37.8789 35.2928 38.5066 35.5205C39.186 35.7698 39.905 35.8942 40.6288 35.8877C41.3523 35.8839 42.0717 35.7766 42.7648 35.569C43.4501 35.3781 44.0977 35.0712 44.6792 34.6614V30.6641H42.2684V33.3105C42.1714 33.3544 42.0767 33.3936 41.9797 33.4283C41.5985 33.5596 41.1982 33.6267 40.795 33.6269C40.4156 33.6309 40.0388 33.5635 39.6843 33.4283C39.3611 33.3013 39.0678 33.1087 38.823 32.8625C38.5796 32.6119 38.3901 32.314 38.2664 31.9873C38.1292 31.6316 38.0611 31.2531 38.0655 30.8719C38.0595 30.4831 38.1276 30.0967 38.2664 29.7334C38.3927 29.4121 38.582 29.1193 38.823 28.8721Z" fill="black"/>
<path d="M52.6296 28.5579C52.0029 28.2548 51.3143 28.1015 50.6182 28.1099C49.8861 28.099 49.1624 28.2671 48.5099 28.5994C47.9034 28.9087 47.3955 29.3815 47.0435 29.9642C46.6848 30.5654 46.5008 31.2548 46.5123 31.9548C46.4998 32.6568 46.689 33.3477 47.0574 33.9454C47.4282 34.5404 47.9576 35.0202 48.5861 35.331C49.3048 35.6802 50.0965 35.8528 50.8953 35.8344C51.5296 35.8484 52.161 35.7434 52.7566 35.525C53.2617 35.3306 53.7147 35.0215 54.0798 34.622L52.6943 33.1879C52.4633 33.3925 52.2005 33.558 51.9161 33.6775C51.6144 33.7908 51.2937 33.8449 50.9716 33.8369C50.6199 33.8462 50.2711 33.7726 49.9532 33.6221C49.6779 33.4889 49.4493 33.2756 49.2973 33.0101C49.2324 32.892 49.182 32.7664 49.1473 32.636H54.5694C54.5694 32.5367 54.5879 32.4259 54.5971 32.3058C54.6063 32.1857 54.611 32.0749 54.611 31.9894C54.6338 31.25 54.4473 30.5191 54.0729 29.8811C53.7284 29.3109 53.2275 28.8516 52.6296 28.5579ZM49.8123 30.1744C50.0625 30.0344 50.3454 29.9634 50.6321 29.9688C50.9188 29.9626 51.202 30.0336 51.4519 30.1744C51.6861 30.3127 51.8771 30.5133 52.0038 30.754C52.0834 30.9098 52.1372 31.0775 52.1631 31.2505H49.1103C49.1391 31.0807 49.192 30.9158 49.2673 30.7609C49.3896 30.5182 49.5786 30.3155 49.8123 30.1767V30.1744Z" fill="black"/>
<path d="M60.2222 33.8011C60.1171 33.8041 60.0124 33.7851 59.9149 33.7454C59.8175 33.7056 59.7295 33.6459 59.6565 33.5701C59.5784 33.4863 59.5178 33.3879 59.4782 33.2804C59.4385 33.173 59.4206 33.0588 59.4256 32.9443V30.4642H61.1344V28.5059H59.4256V26.5615H56.8068V28.5036H55.7192V30.4619H56.8068V32.9697C56.8068 33.9234 57.0747 34.6393 57.6058 35.1104C58.137 35.5815 58.8828 35.8217 59.8389 35.8217C60.1772 35.8227 60.5147 35.7879 60.8457 35.7178C61.1346 35.6621 61.4104 35.5524 61.6586 35.3945L61.0097 33.5609C60.7789 33.7216 60.5034 33.8057 60.2222 33.8011Z" fill="black"/>
<path d="M66.5898 26.0566L62.3315 35.7024H65.1026L65.8554 33.8296H69.9451L70.6979 35.7024H73.5499L69.2777 26.0566H66.5898ZM66.6752 31.8159L67.913 28.7331L69.1507 31.8159H66.6752Z" fill="black"/>
<path d="M81.3204 28.4598C80.8308 28.2215 80.2923 28.1012 79.7478 28.1088C79.1621 28.0999 78.5837 28.2398 78.0667 28.5152C77.8088 28.6568 77.5749 28.8385 77.3739 29.0533V28.2335H74.8799V35.7016H77.4986V32.1038C77.4844 31.758 77.55 31.4135 77.6902 31.097C77.8047 30.8547 77.9931 30.655 78.2283 30.5266C78.4609 30.4012 78.7215 30.3368 78.9858 30.3396C79.1538 30.3309 79.3216 30.3591 79.4776 30.4222C79.6335 30.4852 79.7738 30.5815 79.8887 30.7044C80.1042 30.9492 80.212 31.3341 80.212 31.859V35.704H82.8307V31.4318C82.8569 30.7787 82.717 30.1296 82.4242 29.5452C82.176 29.079 81.7907 28.7002 81.3204 28.4598Z" fill="black"/>
<path d="M91.1643 28.943C90.4992 28.3888 89.5601 28.1109 88.347 28.1094C87.7492 28.1114 87.154 28.189 86.5757 28.3403C86.0367 28.4684 85.5226 28.6845 85.054 28.98L85.9337 30.7581C86.2148 30.544 86.5325 30.3828 86.8713 30.2824C87.2238 30.1701 87.5914 30.1125 87.9613 30.1115C88.5109 30.1115 88.9127 30.2223 89.1667 30.4487C89.2826 30.5574 89.3752 30.6887 89.4387 30.8344C89.5022 30.9801 89.5354 31.1372 89.5362 31.2962H88.056C87.4164 31.2759 86.778 31.3665 86.1693 31.5641C85.741 31.7054 85.3662 31.9746 85.0955 32.3353C84.857 32.6862 84.7343 33.1028 84.7445 33.5269C84.7397 33.9409 84.8526 34.3477 85.0701 34.7C85.2983 35.0603 85.6254 35.3473 86.0123 35.5267C86.4886 35.7411 87.0074 35.8446 87.5295 35.8293C88.0822 35.8546 88.6303 35.7181 89.1067 35.4367C89.3742 35.2587 89.59 35.0134 89.7325 34.7254V35.7046H92.1734V31.5479C92.1672 30.3686 91.8309 29.5003 91.1643 28.943ZM89.0213 33.9518C88.7871 34.095 88.5174 34.1695 88.243 34.1666C87.9876 34.1811 87.7351 34.1077 87.5272 33.9588C87.4425 33.8949 87.3744 33.8116 87.3286 33.716C87.2828 33.6204 87.2606 33.5151 87.2639 33.4092C87.2602 33.3035 87.2815 33.1984 87.326 33.1025C87.3705 33.0066 87.4371 32.9226 87.5202 32.8572C87.786 32.6929 88.0982 32.62 88.4093 32.6494H89.5385V33.2983C89.4468 33.5694 89.264 33.8003 89.0213 33.9518Z" fill="black"/>
<path d="M97.1246 25.4785H94.5059V35.7039H97.1246V25.4785Z" fill="black"/>
<path d="M103.039 32.797L101.205 28.2339H98.5176L101.723 35.799C101.64 35.9695 101.522 36.1206 101.376 36.2424C101.178 36.3793 100.94 36.4467 100.7 36.4341C100.491 36.4323 100.283 36.3932 100.088 36.3186C99.8875 36.2448 99.7027 36.1344 99.5429 35.993L98.633 37.8266C98.9233 38.0496 99.2532 38.2157 99.6052 38.3161C99.9907 38.4379 100.392 38.5002 100.797 38.5008C101.259 38.5025 101.719 38.4243 102.155 38.2699C102.583 38.1093 102.966 37.847 103.27 37.5056C103.654 37.0595 103.956 36.548 104.159 35.9953L107.392 28.2246H104.898L103.039 32.797Z" fill="black"/>
<path d="M114.165 31.6863C113.895 31.5216 113.603 31.3986 113.297 31.3215C112.986 31.2396 112.67 31.1772 112.352 31.1344C112.04 31.0929 111.752 31.0513 111.491 31.0097C111.274 30.9822 111.063 30.9223 110.865 30.8319C110.797 30.8049 110.739 30.7585 110.698 30.6984C110.657 30.6384 110.635 30.5675 110.634 30.4948C110.64 30.4137 110.668 30.3358 110.715 30.2698C110.762 30.2037 110.827 30.1521 110.902 30.1207C111.194 30.0011 111.51 29.9497 111.825 29.9706C112.178 29.973 112.53 30.0124 112.874 30.0883C113.262 30.1731 113.634 30.3197 113.975 30.5225L114.761 28.7443C114.337 28.5125 113.878 28.3519 113.403 28.2686C112.879 28.1636 112.346 28.1102 111.812 28.1093C111.136 28.0915 110.463 28.2019 109.828 28.4349C109.343 28.6079 108.916 28.9126 108.595 29.3147C108.318 29.6815 108.17 30.1297 108.175 30.5894C108.161 30.9529 108.24 31.3138 108.405 31.6378C108.556 31.9058 108.772 32.1308 109.034 32.2914C109.302 32.4562 109.595 32.577 109.902 32.6493C110.218 32.7278 110.532 32.7902 110.846 32.8364L111.708 32.9611C111.924 32.986 112.137 33.0388 112.34 33.1181C112.408 33.1409 112.467 33.1844 112.508 33.2424C112.55 33.3005 112.572 33.3701 112.571 33.4414C112.57 33.5216 112.545 33.5996 112.5 33.666C112.455 33.7324 112.391 33.7843 112.317 33.8155C112.023 33.9279 111.708 33.9744 111.394 33.9517C110.926 33.9503 110.46 33.8882 110.008 33.767C109.577 33.6573 109.164 33.4879 108.78 33.2636L107.994 35.0556C108.45 35.3097 108.94 35.4949 109.449 35.6052C110.053 35.7563 110.674 35.8338 111.297 35.8361C111.99 35.8554 112.68 35.7433 113.331 35.5059C113.816 35.328 114.244 35.0234 114.571 34.6237C114.847 34.2693 114.995 33.8325 114.991 33.3837C115.007 33.0223 114.928 32.6631 114.761 32.3422C114.62 32.077 114.415 31.8515 114.165 31.6863Z" fill="black"/>
<path d="M121.351 33.5655C121.116 33.7253 120.836 33.8062 120.552 33.7964C120.447 33.7995 120.342 33.7805 120.245 33.7408C120.147 33.701 120.059 33.6413 119.986 33.5655C119.908 33.4817 119.848 33.3833 119.808 33.2758C119.768 33.1684 119.751 33.0541 119.755 32.9397V30.4596H121.464V28.5013H119.755V26.5615H117.148V28.5036H116.061V30.4619H117.148V32.9697C117.148 33.9234 117.416 34.6393 117.947 35.1104C118.478 35.5815 119.224 35.8217 120.18 35.8217C120.519 35.8227 120.856 35.7879 121.187 35.7178C121.476 35.6621 121.752 35.5524 122 35.3945L121.351 33.5655Z" fill="black"/>
<path d="M14.9823 30.9505C14.9823 32.4217 14.3989 33.8328 13.3599 34.8744C12.3209 35.916 10.9112 36.503 9.44008 36.5067C8.71109 36.5085 7.98896 36.3665 7.31494 36.0888C6.64093 35.8111 6.02829 35.4031 5.51218 34.8883C4.99607 34.3734 4.58659 33.7619 4.3072 33.0885C4.02781 32.4152 3.88402 31.6934 3.88403 30.9644C3.88344 29.6572 4.34393 28.3917 5.18451 27.3906C6.02509 26.3895 7.19186 25.717 8.47944 25.4914V23.584C6.5233 23.8382 4.74828 24.8591 3.5448 26.422C2.34131 27.985 1.80791 29.9619 2.06198 31.9181C2.18759 32.8868 2.50283 33.8213 2.98969 34.6682C3.47656 35.515 4.12551 36.2576 4.89946 36.8536C5.67341 37.4495 6.55723 37.8872 7.50037 38.1414C8.44351 38.3957 9.4275 38.4617 10.3961 38.3356C12.188 38.1033 13.8339 37.2265 15.0264 35.8691C16.2189 34.5117 16.8764 32.7666 16.876 30.9598L14.9823 30.9505Z" fill="black"/>
<path d="M18.7501 29.0693H16.8657V30.9537H18.7501V29.0693Z" fill="black"/>
<path d="M17.7916 23.5C15.8194 23.5031 13.9289 24.288 12.5346 25.6828C11.1403 27.0776 10.356 28.9683 10.3535 30.9405H12.2378C12.2375 30.2108 12.3809 29.4883 12.6599 28.8141C12.9388 28.1399 13.3478 27.5272 13.8636 27.011C14.3793 26.4949 14.9916 26.0854 15.6656 25.8059C16.3396 25.5264 17.062 25.3824 17.7916 25.3821C19.2632 25.3815 20.6749 25.9647 21.717 27.0037C22.759 28.0427 23.3464 29.4527 23.35 30.9243C23.3506 32.2321 22.8898 33.4982 22.0488 34.4997C21.2078 35.5013 20.0405 36.174 18.7523 36.3996V38.3047C20.7077 38.0547 22.4839 37.0388 23.6907 35.48C24.8974 33.9212 25.4361 31.947 25.1882 29.9914C24.9576 28.1941 24.0788 26.5429 22.7168 25.3476C21.3549 24.1524 19.6036 23.4954 17.7916 23.5Z" fill="black"/>
<path d="M10.3539 30.9385H8.46948V32.8228H10.3539V30.9385Z" fill="black"/>
</g>
<defs>
<clipPath id="clip0_81_680">
<rect width="120" height="15" fill="white" transform="translate(2 23.5)"/>
</clipPath>
</defs>
</svg>
