<svg width="124" height="62" viewBox="0 0 124 62" fill="none" xmlns="http://www.w3.org/2000/svg">
<path d="M53.0185 48.8252H51.282V56.326H56.7746V54.9107H53.0185V48.8252Z" fill="black"/>
<path d="M60.5344 54.1801L58.2547 48.8252H56.3804L59.6125 56.326H61.3263L64.5737 48.8252H62.8486L60.5344 54.1801Z" fill="black"/>
<path d="M69.9749 54.7599C69.6518 54.9068 69.3008 54.981 68.9457 54.9777C68.6165 54.9819 68.2896 54.9236 67.9819 54.8057C67.6951 54.6968 67.4344 54.5288 67.217 54.3123C67.0011 54.0937 66.832 53.8332 66.7197 53.5473C66.4852 52.9182 66.4852 52.2255 66.7197 51.5965C66.8326 51.3108 67.0016 51.0507 67.217 50.8314C67.4344 50.6149 67.6951 50.4469 67.9819 50.338C68.2902 50.2234 68.617 50.1662 68.9457 50.1699C69.3008 50.1666 69.6518 50.2411 69.9749 50.3877C70.3025 50.5462 70.5941 50.77 70.8316 51.0457L71.9448 50.0168C71.5889 49.5855 71.1351 49.2458 70.6213 49.0262C69.5395 48.5966 68.3383 48.5774 67.2436 48.9724C66.7629 49.1542 66.3235 49.4298 65.9508 49.7834C65.5841 50.1311 65.2923 50.5503 65.094 51.0152C64.6858 52.0101 64.6858 53.126 65.094 54.121C65.294 54.5884 65.5869 55.0104 65.9552 55.3608C66.3235 55.7114 66.7592 55.9833 67.2361 56.1597C67.752 56.3532 68.2994 56.4493 68.8502 56.4429C69.4579 56.4535 70.0609 56.3375 70.6213 56.1023C71.1356 55.8799 71.5894 55.5375 71.9448 55.1042L70.8316 54.079C70.5966 54.3633 70.3048 54.5951 69.9749 54.7599Z" fill="black"/>
<path d="M80.8077 23.7945C80.8077 25.7988 79.2356 27.5277 78.6504 29.3332C78.0422 31.2075 78.2679 33.5408 77.1203 35.0707C75.9729 36.6006 73.6778 37.1362 72.1173 38.28C71.2528 38.9111 70.5107 39.81 69.6997 40.5978C65.9703 39.8902 64.1647 38.8269 63.0977 36.2602C64.555 32.7603 67.3779 32.0526 74.5728 31.238C63.8626 30.0256 62.8376 29.0463 61.5676 18.8295C60.2978 29.0463 59.2726 30.0256 48.5623 31.238C55.7765 32.0526 58.5954 32.7679 60.0567 36.2602C58.9856 38.8269 57.184 39.8902 53.4546 40.5978C52.6438 39.8328 51.8979 38.9111 51.0334 38.28C49.4612 37.1324 47.1778 36.6465 46.0303 35.0707C44.8828 33.4948 45.1312 31.1958 44.523 29.3332C43.934 27.5277 42.3657 25.7988 42.3657 23.7945C42.3657 21.79 43.934 20.0651 44.523 18.2557C45.1312 16.3853 44.9055 14.0483 46.0303 12.5183C47.1548 10.9883 49.4726 10.4528 51.0334 9.30524C52.5939 8.15775 53.7606 6.14576 55.6234 5.53759C57.4288 4.95235 59.5555 5.88567 61.56 5.88567C63.5643 5.88567 65.6873 4.95235 67.4926 5.53759C69.3668 6.14576 70.5298 8.17304 72.0826 9.30524C73.6357 10.4375 75.9424 10.9424 77.086 12.5183C78.2297 14.0942 77.9887 16.393 78.616 18.2557C79.2356 20.0651 80.8077 21.7939 80.8077 23.7945Z" fill="black"/>
<path d="M64.685 31.522C63.3501 31.8242 62.6768 32.2336 62.2445 33.163C62.0787 33.5316 61.9507 33.9161 61.8619 34.3104C61.8474 34.3715 61.8127 34.426 61.7634 34.4649C61.7141 34.5036 61.6531 34.5247 61.5903 34.5247C61.5276 34.5247 61.4666 34.5036 61.4175 34.4649C61.368 34.426 61.3335 34.3715 61.3189 34.3104C61.2283 33.9166 61.1 33.5322 60.9364 33.163C60.5079 32.2336 59.8347 31.8242 58.4959 31.5181C58.4331 31.5052 58.3763 31.4708 58.3357 31.4212C58.2953 31.3713 58.2729 31.3089 58.2729 31.2447C58.2729 31.1806 58.2953 31.1181 58.3357 31.0683C58.3763 31.0184 58.4331 30.9843 58.4959 30.9712C60.2974 30.5619 60.8942 29.9615 61.3072 28.1637C61.3218 28.1024 61.3567 28.0483 61.4058 28.0094C61.4553 27.9704 61.5161 27.9492 61.5789 27.9492C61.6418 27.9492 61.7026 27.9704 61.7519 28.0094C61.8012 28.0483 61.8359 28.1024 61.8505 28.1637C62.2597 29.9615 62.8603 30.5619 64.6581 30.9712C64.7241 30.9785 64.7853 31.009 64.8309 31.0576C64.8764 31.1058 64.903 31.1689 64.9063 31.2352C64.9097 31.3014 64.889 31.3668 64.8484 31.4194C64.808 31.4719 64.7498 31.5083 64.685 31.522Z" fill="black"/>
</svg>
