<svg width="124" height="62" viewBox="0 0 124 62" fill="none" xmlns="http://www.w3.org/2000/svg">
<g clip-path="url(#clip0_81_644)">
<mask id="mask0_81_644" style="mask-type:luminance" maskUnits="userSpaceOnUse" x="38" y="7" width="48" height="48">
<path d="M86 7H38V55H86V7Z" fill="white"/>
</mask>
<g mask="url(#mask0_81_644)">
<path d="M50.6824 14.3029C50.8538 10.8434 48.6458 7.14573 44.9087 7.1063C44.3361 6.87316 43.2527 7.06516 42.675 7.22802C39.1487 8.22573 37.2561 11.824 38.2744 15.3177C38.8744 17.3714 40.0573 18.3366 41.8573 19.3309V34.0137C41.8556 35.0852 41.667 36.1223 42.4847 36.9554C43.407 37.8932 45.0047 37.936 45.9373 36.9846C46.623 36.2869 46.5544 35.3594 46.5561 34.4543V19.3309C47.1681 19.168 47.7064 18.796 48.219 18.4394C50.1211 19.427 51.9971 20.4639 53.8453 21.5492L55.6607 22.6223C56.547 23.1469 57.495 23.8343 58.5801 23.548C60.351 23.0834 61.047 20.8772 59.5693 19.6223C59.2178 19.3206 58.7824 19.1046 58.3847 18.8749L56.6344 17.8549C54.6493 16.6754 52.6915 15.4377 50.6824 14.3012M82.0007 19.4286C82.4687 19.1543 82.9538 18.892 83.391 18.5714C88.0487 15.1823 86.1475 8.0063 80.2367 7.10802C76.0778 6.64344 72.4967 10.48 73.2715 14.6389L48.9887 41.9989C48.5687 42.4703 48.1281 42.9349 47.7544 43.4457C44.8007 41.4897 40.6007 42.3366 38.8179 45.4823C37.1019 48.5132 38.175 52.5006 41.2401 54.1943C46.1276 56.896 51.9835 52.3686 50.4081 47.0629C51.3818 46.1149 52.2664 45.0674 53.1784 44.0612L70.9144 24.4617C72.5944 22.588 74.2864 20.6903 76.0435 18.892L77.1887 19.4269V35.5549C77.1887 37.9394 77.1595 40.3274 77.1887 42.712C76.5784 42.7823 76.1515 43.1132 75.6561 43.4457C73.6504 42.3623 71.5813 41.1434 69.6098 39.9966C68.7081 39.4737 67.2544 38.5137 66.3133 38.1966C63.9681 37.4029 62.2555 40.6634 63.9887 42.1703C64.6384 42.736 65.5144 43.1252 66.2584 43.564C68.547 44.9114 70.8887 46.1732 73.1841 47.5103C72.5241 55.6069 82.5835 57.3983 85.3127 51.3417C86.787 48.0674 85.2801 44.1657 81.9973 42.712V21.7909C81.9973 21.0126 81.9338 20.2 81.9973 19.4269" fill="black"/>
<path d="M82.0007 19.4286C82.4687 19.1543 82.9538 18.892 83.391 18.5714C88.0487 15.1823 86.1475 8.0063 80.2367 7.10802C76.0778 6.64344 72.4967 10.48 73.2715 14.6389L48.9887 41.9989C48.5687 42.4703 48.1281 42.9349 47.7544 43.4457C44.8007 41.4897 40.6007 42.3366 38.8179 45.4823C37.1019 48.5132 38.175 52.5006 41.2401 54.1943C46.1276 56.896 51.9835 52.3686 50.4081 47.0629C51.3818 46.1149 52.2664 45.0674 53.1784 44.0612L70.9144 24.4617C72.5944 22.588 74.2864 20.6903 76.0435 18.892L77.1887 19.4269V35.5549C77.1887 37.9394 77.1595 40.3274 77.1887 42.712C76.5784 42.7823 76.1515 43.1132 75.6561 43.4457C73.6504 42.3623 71.5813 41.1434 69.6098 39.9966C68.7081 39.4737 67.2544 38.5137 66.3133 38.1966C63.9681 37.4029 62.2555 40.6634 63.9887 42.1703C64.6384 42.736 65.5144 43.1252 66.2584 43.564C68.547 44.9114 70.8887 46.1732 73.1841 47.5103C72.5241 55.6069 82.5835 57.3983 85.3127 51.3417C86.787 48.0674 85.2801 44.1657 81.9973 42.712V21.7909C81.9973 21.0126 81.9338 20.2 81.9973 19.4269M50.6824 14.3029C50.8538 10.8434 48.6458 7.14573 44.9087 7.1063C44.3361 6.87316 43.2527 7.06516 42.675 7.22802C39.1487 8.22573 37.2561 11.824 38.2744 15.3177C38.8744 17.3714 40.0573 18.3366 41.8573 19.3309V34.0137C41.8556 35.0852 41.667 36.1223 42.4847 36.9554C43.407 37.8932 45.0047 37.936 45.9373 36.9846C46.623 36.2869 46.5544 35.3594 46.5561 34.4543V19.3309C47.1681 19.168 47.7064 18.796 48.219 18.4394C50.1211 19.427 51.9971 20.4639 53.8453 21.5492L55.6607 22.6223C56.547 23.1469 57.495 23.8343 58.5801 23.548C60.351 23.0834 61.047 20.8772 59.5693 19.6223C59.2178 19.3206 58.7824 19.1046 58.3847 18.8749L56.6344 17.8549C54.6493 16.6754 52.6915 15.4377 50.6824 14.3012" fill="black"/>
</g>
</g>
<defs>
<clipPath id="clip0_81_644">
<rect width="48" height="48" fill="white" transform="translate(38 7)"/>
</clipPath>
</defs>
</svg>
