<svg width="136" height="39" viewBox="0 0 136 39" fill="none" xmlns="http://www.w3.org/2000/svg">
<path d="M25.3651 14.9674C25.7021 15.6493 25.8706 16.4335 25.8706 17.3199C25.8706 18.4451 25.7021 19.4338 25.2977 20.2521C24.8933 21.0703 24.354 21.7522 23.7137 22.3318C23.0396 22.8773 22.2645 23.3205 21.3882 23.6615C20.5119 24.0024 19.602 24.2752 18.6583 24.4457C17.6809 24.6161 16.7035 24.7525 15.7262 24.8207C14.7488 24.8548 13.8388 24.8889 12.9289 24.8889C10.6371 24.8889 8.48012 24.7184 6.52537 24.3093C4.53692 23.9342 2.81809 23.4569 1.30148 22.8773V17.2518C2.85179 18.1041 4.63803 18.786 6.62648 19.2974C8.61493 19.7747 10.7382 20.0134 12.9963 20.0134C14.3444 20.0134 15.4228 19.9452 16.2654 19.8088C17.108 19.6725 17.782 19.4679 18.2539 19.2633C18.7257 19.0247 19.0627 18.786 19.2312 18.5132C19.3997 18.2746 19.5008 18.0018 19.5008 17.7632C19.5008 17.3881 19.3323 17.0472 18.9616 16.7744C18.6246 16.5017 18.1864 16.263 17.5798 16.0244C17.0069 15.8198 16.2991 15.6493 15.5239 15.4447C14.7488 15.2743 13.9062 15.1038 13.03 14.9333C12.1537 14.7629 11.2437 14.5583 10.3338 14.3537C9.39009 14.1492 8.48012 13.9105 7.60385 13.6037C6.72759 13.3309 5.88502 13.024 5.10986 12.649C4.33471 12.274 3.66065 11.8307 3.05401 11.3193C2.48107 10.8079 2.00923 10.1942 1.6722 9.54642C1.33518 8.86454 1.16667 8.08037 1.16667 7.19391C1.16667 6.17108 1.33518 5.25053 1.70591 4.50046C2.04293 3.75038 2.54847 3.10259 3.15512 2.55708C3.79546 2.04566 4.50322 1.60243 5.31208 1.26149C6.12094 0.920548 6.9635 0.681889 7.87347 0.477321C8.78344 0.306849 9.69341 0.170472 10.6034 0.102284C11.5133 0.0340939 12.3896 0 13.1985 0C14.1084 0 15.0521 0.0681899 15.9958 0.136378C16.9732 0.238662 17.9168 0.375039 18.8605 0.545511C19.7705 0.715983 20.6804 0.886454 21.5567 1.12511C22.3993 1.32968 23.2081 1.56834 23.9496 1.807V7.2621C23.5115 7.05753 22.9385 6.81887 22.1971 6.54612C21.4556 6.27336 20.6467 6.00061 19.7368 5.76195C18.8268 5.48919 17.8157 5.28463 16.7372 5.11416C15.6588 4.97778 14.5466 4.87549 13.4007 4.87549C12.5244 4.87549 11.7493 4.90959 11.1089 4.97778C10.4686 5.01187 9.89562 5.11416 9.49119 5.18234C9.05306 5.28463 8.68233 5.38691 8.44642 5.48919C8.1768 5.62557 7.97458 5.76195 7.83977 5.86423C7.70496 6.00061 7.63755 6.13699 7.60385 6.23927C7.53645 6.37565 7.53645 6.51203 7.53645 6.61431C7.53645 6.95525 7.70496 7.22801 8.04199 7.50076C8.37901 7.77352 8.85085 7.97808 9.42379 8.18265C10.0304 8.38722 10.7045 8.59178 11.4796 8.76225C12.2885 8.93272 13.0974 9.1032 13.9736 9.30776C14.8499 9.51233 15.7599 9.71689 16.7035 9.92146C17.6472 10.1601 18.5572 10.4329 19.4334 10.7056C20.3097 11.0125 21.1523 11.3534 21.9274 11.7626C22.7026 12.1376 23.3766 12.6149 23.9833 13.1263C24.5562 13.6718 25.0281 14.2855 25.3651 14.9674Z" fill="white"/>
<path d="M59.9771 7.05753C60.7185 8.62587 61.0556 10.4329 61.0556 12.4444C61.0556 14.4901 60.7185 16.263 59.9771 17.8314C59.2356 19.3997 58.1908 20.6953 56.809 21.7181C55.4272 22.775 53.7758 23.5592 51.8211 24.1047C49.8663 24.6161 47.6419 24.8889 45.2154 24.8889C42.7888 24.8889 40.5644 24.6161 38.6097 24.1047C36.6549 23.5592 34.9698 22.775 33.588 21.7181C32.2062 20.6953 31.1277 19.3997 30.3862 17.8314C29.6448 16.263 29.2741 14.4901 29.2741 12.4444C29.2741 10.4329 29.6448 8.62587 30.3862 7.05753C31.1277 5.52329 32.2062 4.2277 33.588 3.17078C34.9698 2.14795 36.6549 1.32968 38.6097 0.818264C40.5644 0.272756 42.7888 0 45.2154 0C47.6419 0 49.8663 0.272756 51.8211 0.818264C53.7758 1.32968 55.4272 2.14795 56.809 3.17078C58.1571 4.2277 59.2356 5.52329 59.9771 7.05753ZM54.2813 15.1038C54.551 14.2174 54.6858 13.3309 54.6858 12.4444C54.6858 11.558 54.551 10.6715 54.2813 9.81918C53.978 8.93273 53.5062 8.14855 52.7984 7.43257C52.0907 6.75068 51.1133 6.17108 49.9 5.72785C48.653 5.28463 47.1027 5.08006 45.2154 5.08006C43.9347 5.08006 42.8225 5.18234 41.8788 5.38691C40.9014 5.59148 40.0589 5.86423 39.3511 6.20518C38.6771 6.58021 38.0704 6.98935 37.5986 7.46667C37.1268 7.94399 36.756 8.4554 36.4527 9.00091C36.1831 9.54642 35.9809 10.126 35.8461 10.7056C35.7449 11.2852 35.6775 11.8648 35.6775 12.4444C35.6775 13.024 35.7449 13.6377 35.8461 14.2174C35.9809 14.8311 36.1831 15.3766 36.4527 15.9221C36.756 16.4676 37.1268 16.979 37.5986 17.4563C38.0704 17.9336 38.6771 18.3428 39.3511 18.6837C40.0589 19.0247 40.9014 19.2974 41.8788 19.502C42.8225 19.7065 43.9347 19.8088 45.2154 19.8088C47.1027 19.8088 48.653 19.6043 49.9 19.161C51.1133 18.7178 52.0907 18.1723 52.7984 17.4563C53.5062 16.7744 53.978 15.9562 54.2813 15.1038Z" fill="white"/>
<path d="M0 28H62.2222V29.9444H0V28Z" fill="#B7DE43"/>
<path d="M5.07565 36.0958C5.14634 36.2343 5.18168 36.3936 5.18168 36.5737C5.18168 36.8091 5.14634 37.003 5.06151 37.1693C4.97668 37.3355 4.86357 37.474 4.72926 37.5917C4.58787 37.7025 4.42528 37.7925 4.24149 37.8618C4.05769 37.9311 3.86682 37.9865 3.66889 38.0211C3.46388 38.0557 3.25888 38.0834 3.05387 38.0973C2.84887 38.1042 2.658 38.1111 2.46713 38.1111C1.98643 38.1111 1.534 38.0765 1.12399 37.9934C0.706914 37.9172 0.346388 37.8202 0.0282766 37.7025V36.5598C0.353457 36.733 0.728122 36.8715 1.1452 36.9753C1.56228 37.0723 2.00764 37.1208 2.48127 37.1208C2.76404 37.1208 2.99025 37.1069 3.16698 37.0792C3.34371 37.0515 3.48509 37.01 3.58406 36.9684C3.68302 36.9199 3.75372 36.8715 3.78906 36.8161C3.82441 36.7676 3.84561 36.7122 3.84561 36.6637C3.84561 36.5875 3.81027 36.5183 3.73251 36.4629C3.66182 36.4075 3.56992 36.359 3.44267 36.3105C3.3225 36.269 3.17405 36.2343 3.01146 36.1928C2.84887 36.1581 2.67214 36.1235 2.48834 36.0889C2.30454 36.0543 2.11367 36.0127 1.92281 35.9712C1.72487 35.9296 1.534 35.8811 1.35021 35.8188C1.16641 35.7634 0.98968 35.7011 0.82709 35.6249C0.6645 35.5487 0.523117 35.4587 0.395872 35.3548C0.275697 35.2509 0.176729 35.1263 0.106037 34.9947C0.0353457 34.8562 0 34.6969 0 34.5168C0 34.3091 0.0353457 34.1221 0.113106 33.9697C0.183798 33.8174 0.289835 33.6858 0.41708 33.575C0.551393 33.4711 0.699845 33.3811 0.869505 33.3118C1.03916 33.2425 1.21589 33.1941 1.40676 33.1525C1.59763 33.1179 1.78849 33.0902 1.97936 33.0763C2.17023 33.0625 2.35402 33.0556 2.52368 33.0556C2.71455 33.0556 2.91249 33.0694 3.11042 33.0833C3.31543 33.104 3.51336 33.1317 3.7113 33.1664C3.90217 33.201 4.09303 33.2356 4.27683 33.2841C4.45356 33.3256 4.62322 33.3741 4.77874 33.4226V34.5307C4.68684 34.4891 4.56667 34.4406 4.41115 34.3852C4.25562 34.3298 4.08597 34.2744 3.8951 34.226C3.70423 34.1705 3.49216 34.129 3.26594 34.1013C3.03973 34.0667 2.80645 34.0459 2.5661 34.0459C2.3823 34.0459 2.21971 34.0528 2.0854 34.0667C1.95108 34.0736 1.83091 34.0944 1.74608 34.1082C1.65418 34.129 1.57642 34.1498 1.52693 34.1775C1.47038 34.1983 1.42797 34.226 1.39969 34.2467C1.37141 34.2744 1.35728 34.3021 1.35021 34.3298C1.33607 34.3506 1.33607 34.3783 1.33607 34.3991C1.33607 34.4683 1.37141 34.5307 1.44211 34.5791C1.5128 34.6346 1.61177 34.6761 1.73194 34.7177C1.85919 34.7592 2.00057 34.8008 2.16316 34.8354C2.33282 34.87 2.50248 34.9116 2.68627 34.9462C2.87007 34.9877 3.06094 35.0293 3.25888 35.0709C3.45681 35.1193 3.64768 35.1747 3.83148 35.2301C4.01527 35.2925 4.192 35.3617 4.35459 35.4448C4.51718 35.521 4.65857 35.618 4.78581 35.7218C4.90599 35.8326 5.00495 35.9573 5.07565 36.0958Z" fill="white" fill-opacity="0.75"/>
<path d="M12.6183 34.4891C12.7738 34.8077 12.8445 35.1747 12.8445 35.5833C12.8445 35.9989 12.7738 36.359 12.6183 36.6775C12.4628 36.9961 12.2436 37.2593 11.9538 37.467C11.664 37.6817 11.3176 37.841 10.9076 37.9518C10.4976 38.0557 10.031 38.1111 9.52203 38.1111C9.01305 38.1111 8.54649 38.0557 8.13647 37.9518C7.72646 37.841 7.37301 37.6817 7.08317 37.467C6.79334 37.2593 6.56713 36.9961 6.4116 36.6775C6.25608 36.359 6.17832 35.9989 6.17832 35.5833C6.17832 35.1747 6.25608 34.8077 6.4116 34.4891C6.56713 34.1775 6.79334 33.9143 7.08317 33.6996C7.37301 33.4919 7.72646 33.3256 8.13647 33.2218C8.54649 33.111 9.01305 33.0556 9.52203 33.0556C10.031 33.0556 10.4976 33.111 10.9076 33.2218C11.3176 33.3256 11.664 33.4919 11.9538 33.6996C12.2436 33.9143 12.4628 34.1775 12.6183 34.4891ZM11.4236 36.1235C11.4802 35.9435 11.5085 35.7634 11.5085 35.5833C11.5085 35.4033 11.4802 35.2301 11.4236 35.0501C11.3671 34.87 11.261 34.7107 11.1126 34.5653C10.9641 34.4268 10.7591 34.3091 10.5046 34.219C10.2431 34.1359 9.9179 34.0874 9.52203 34.0874C9.2534 34.0874 9.02012 34.1082 8.82218 34.1498C8.61718 34.1913 8.44045 34.2467 8.292 34.3229C8.15061 34.3922 8.02337 34.4753 7.9244 34.5722C7.82543 34.6692 7.74767 34.7731 7.68405 34.8839C7.6275 34.9947 7.58508 35.1124 7.55681 35.2301C7.5356 35.3479 7.52146 35.4656 7.52146 35.5833C7.52146 35.7011 7.5356 35.8257 7.55681 35.9435C7.58508 36.0681 7.6275 36.1789 7.68405 36.2897C7.74767 36.4075 7.82543 36.5044 7.9244 36.6014C8.02337 36.6983 8.15061 36.7814 8.292 36.8507C8.44045 36.9269 8.61718 36.9823 8.82218 37.0169C9.02012 37.0584 9.2534 37.0792 9.52203 37.0792C9.9179 37.0792 10.2431 37.0377 10.5046 36.9476C10.7591 36.8576 10.9641 36.7468 11.1126 36.6014C11.261 36.4629 11.3671 36.3036 11.4236 36.1235Z" fill="white" fill-opacity="0.75"/>
<path d="M15.2264 34.5237C15.184 34.6138 15.1628 34.7315 15.1628 34.8839V35.0639H18.86V36.082H15.1628V38.0072H13.8409V34.7731C13.8409 34.5307 13.8762 34.3091 13.954 34.1082C14.0247 33.9143 14.1519 33.7481 14.3287 33.6165C14.5054 33.4849 14.7387 33.3811 15.0285 33.3049C15.3183 33.2356 15.6789 33.201 16.1101 33.201H19.0367V34.226H16.1525C15.997 34.226 15.8627 34.2329 15.7354 34.2398C15.6152 34.2537 15.5092 34.2814 15.4244 34.3298C15.3395 34.3714 15.2759 34.4406 15.2264 34.5237Z" fill="white" fill-opacity="0.75"/>
<path d="M20.0261 33.201H25.5118V34.2467H23.4264V38.0003H22.1044V34.2467H20.0261V33.201Z" fill="white" fill-opacity="0.75"/>
<path d="M34.8282 36.0958C34.8989 36.2343 34.9342 36.3936 34.9342 36.5737C34.9342 36.8091 34.8989 37.003 34.814 37.1693C34.7292 37.3355 34.6161 37.474 34.4818 37.5917C34.3404 37.7025 34.1778 37.7925 33.994 37.8618C33.8102 37.9311 33.6194 37.9865 33.4214 38.0211C33.2164 38.0557 33.0114 38.0834 32.8064 38.0973C32.6014 38.1042 32.4105 38.1111 32.2197 38.1111C31.739 38.1111 31.2865 38.0765 30.8765 37.9934C30.4595 37.9172 30.0989 37.8202 29.7808 37.7025V36.5598C30.106 36.733 30.4807 36.8715 30.8977 36.9753C31.3148 37.0723 31.7602 37.1208 32.2338 37.1208C32.5166 37.1208 32.7428 37.1069 32.9195 37.0792C33.0962 37.0515 33.2376 37.01 33.3366 36.9684C33.4356 36.9199 33.5063 36.8715 33.5416 36.8161C33.5769 36.7676 33.5982 36.7122 33.5982 36.6637C33.5982 36.5875 33.5628 36.5183 33.485 36.4629C33.4144 36.4075 33.3225 36.359 33.1952 36.3105C33.075 36.269 32.9266 36.2343 32.764 36.1928C32.6014 36.1581 32.4247 36.1235 32.2409 36.0889C32.0571 36.0543 31.8662 36.0127 31.6753 35.9712C31.4774 35.9296 31.2865 35.8811 31.1027 35.8188C30.9189 35.7634 30.7422 35.7011 30.5796 35.6249C30.417 35.5487 30.2756 35.4587 30.1484 35.3548C30.0282 35.2509 29.9293 35.1263 29.8586 34.9947C29.7879 34.8562 29.7525 34.6969 29.7525 34.5168C29.7525 34.3091 29.7879 34.1221 29.8656 33.9697C29.9363 33.8174 30.0424 33.6858 30.1696 33.575C30.3039 33.4711 30.4524 33.3811 30.622 33.3118C30.7917 33.2425 30.9684 33.1941 31.1593 33.1525C31.3502 33.1179 31.541 33.0902 31.7319 33.0763C31.9228 33.0625 32.1066 33.0556 32.2762 33.0556C32.4671 33.0556 32.665 33.0694 32.863 33.0833C33.068 33.104 33.2659 33.1317 33.4638 33.1664C33.6547 33.201 33.8456 33.2356 34.0294 33.2841C34.2061 33.3256 34.3758 33.3741 34.5313 33.4226V34.5307C34.4394 34.4891 34.3192 34.4406 34.1637 34.3852C34.0082 34.3298 33.8385 34.2744 33.6476 34.226C33.4568 34.1705 33.2447 34.129 33.0185 34.1013C32.7923 34.0667 32.559 34.0459 32.3186 34.0459C32.1348 34.0459 31.9722 34.0528 31.8379 34.0667C31.7036 34.0736 31.5834 34.0944 31.4986 34.1082C31.4067 34.129 31.329 34.1498 31.2795 34.1775C31.2229 34.1983 31.1805 34.226 31.1522 34.2467C31.1239 34.2744 31.1098 34.3021 31.1027 34.3298C31.0886 34.3506 31.0886 34.3783 31.0886 34.3991C31.0886 34.4683 31.1239 34.5307 31.1946 34.5791C31.2653 34.6346 31.3643 34.6761 31.4845 34.7177C31.6117 34.7592 31.7531 34.8008 31.9157 34.8354C32.0854 34.87 32.255 34.9116 32.4388 34.9462C32.6226 34.9877 32.8135 35.0293 33.0114 35.0709C33.2093 35.1193 33.4002 35.1747 33.584 35.2301C33.7678 35.2925 33.9445 35.3617 34.1071 35.4448C34.2697 35.521 34.4111 35.618 34.5383 35.7218C34.6585 35.8326 34.7575 35.9573 34.8282 36.0958Z" fill="white" fill-opacity="0.75"/>
<path d="M41.77 37.2524C41.8548 37.474 41.9113 37.7233 41.9326 38.0072H40.5824C40.5611 37.7441 40.4975 37.5155 40.3915 37.3216C40.2854 37.1208 40.1582 36.9546 39.9956 36.8091C39.8401 36.6706 39.6634 36.5529 39.4584 36.4559C39.2604 36.3659 39.0554 36.2897 38.8504 36.2343C38.6383 36.1789 38.4333 36.1443 38.2213 36.1235C38.0163 36.0958 37.8254 36.0889 37.6416 36.0889H37.2528V38.0072H35.9309V33.201H37.2528V35.057H37.5214C37.7052 35.057 37.8961 35.0432 38.094 35.0154C38.299 34.9877 38.497 34.9393 38.6878 34.8839C38.8858 34.8215 39.0766 34.7454 39.2534 34.6484C39.4371 34.5514 39.5997 34.4337 39.7411 34.2952C39.8825 34.1567 40.0027 33.9974 40.1016 33.8174C40.1935 33.6373 40.2501 33.4365 40.2784 33.201H41.6286C41.6003 33.4572 41.5508 33.6858 41.4731 33.8935C41.3882 34.0944 41.2893 34.2814 41.1762 34.4406C41.056 34.6069 40.9287 34.7454 40.7803 34.87C40.6389 34.9877 40.4905 35.0916 40.3349 35.1817C40.1794 35.2648 40.031 35.3409 39.8825 35.3963C39.727 35.4518 39.5856 35.4933 39.4584 35.5279C39.6209 35.5556 39.7977 35.5903 39.9744 35.6457C40.1582 35.7011 40.3349 35.7772 40.5117 35.8673C40.6884 35.9573 40.858 36.0612 41.0136 36.1928C41.1762 36.3244 41.3175 36.4767 41.4519 36.6498C41.5791 36.8299 41.6851 37.0238 41.77 37.2524Z" fill="white" fill-opacity="0.75"/>
<path d="M44.2457 38.0072H42.9238V33.201H44.2457V38.0072Z" fill="white" fill-opacity="0.75"/>
<path d="M47.6397 36.913H50.1492V37.9795H47.364C46.9823 37.9795 46.65 37.9449 46.3814 37.8826C46.1127 37.8272 45.8936 37.7302 45.7239 37.5986C45.5472 37.467 45.427 37.3078 45.3493 37.1069C45.2715 36.913 45.2362 36.6706 45.2362 36.4005V33.1733H46.5581V35.9227C46.5581 36.1235 46.5722 36.2897 46.6147 36.4144C46.65 36.539 46.7136 36.6429 46.7985 36.7191C46.8833 36.7884 46.9964 36.8438 47.1307 36.8715C47.2721 36.8992 47.4417 36.913 47.6397 36.913Z" fill="white" fill-opacity="0.75"/>
<path d="M53.5419 36.913H56.0514V37.9795H53.2662C52.8844 37.9795 52.5522 37.9449 52.2836 37.8826C52.0149 37.8272 51.7958 37.7302 51.6261 37.5986C51.4494 37.467 51.3292 37.3078 51.2515 37.1069C51.1737 36.913 51.1384 36.6706 51.1384 36.4005V33.1733H52.4603V35.9227C52.4603 36.1235 52.4744 36.2897 52.5168 36.4144C52.5522 36.539 52.6158 36.6429 52.7006 36.7191C52.7855 36.7884 52.8986 36.8438 53.0329 36.8715C53.1743 36.8992 53.3439 36.913 53.5419 36.913Z" fill="white" fill-opacity="0.75"/>
<path d="M62.1162 36.0958C62.1869 36.2343 62.2222 36.3936 62.2222 36.5737C62.2222 36.8091 62.1869 37.003 62.102 37.1693C62.0172 37.3355 61.9041 37.474 61.7698 37.5917C61.6284 37.7025 61.4658 37.7925 61.282 37.8618C61.0982 37.9311 60.9074 37.9865 60.7094 38.0211C60.5044 38.0557 60.2994 38.0834 60.0944 38.0973C59.8894 38.1042 59.6985 38.1111 59.5077 38.1111C59.027 38.1111 58.5745 38.0765 58.1645 37.9934C57.7475 37.9172 57.3869 37.8202 57.0688 37.7025V36.5598C57.394 36.733 57.7687 36.8715 58.1857 36.9753C58.6028 37.0723 59.0482 37.1208 59.5218 37.1208C59.8046 37.1208 60.0308 37.1069 60.2075 37.0792C60.3842 37.0515 60.5256 37.01 60.6246 36.9684C60.7236 36.9199 60.7943 36.8715 60.8296 36.8161C60.8649 36.7676 60.8861 36.7122 60.8861 36.6637C60.8861 36.5875 60.8508 36.5183 60.773 36.4629C60.7024 36.4075 60.6105 36.359 60.4832 36.3105C60.363 36.269 60.2146 36.2343 60.052 36.1928C59.8894 36.1581 59.7127 36.1235 59.5289 36.0889C59.3451 36.0543 59.1542 36.0127 58.9633 35.9712C58.7654 35.9296 58.5745 35.8811 58.3907 35.8188C58.2069 35.7634 58.0302 35.7011 57.8676 35.6249C57.705 35.5487 57.5637 35.4587 57.4364 35.3548C57.3162 35.2509 57.2173 35.1263 57.1466 34.9947C57.0759 34.8562 57.0405 34.6969 57.0405 34.5168C57.0405 34.3091 57.0759 34.1221 57.1536 33.9697C57.2243 33.8174 57.3304 33.6858 57.4576 33.575C57.5919 33.4711 57.7404 33.3811 57.91 33.3118C58.0797 33.2425 58.2564 33.1941 58.4473 33.1525C58.6382 33.1179 58.829 33.0902 59.0199 33.0763C59.2108 33.0625 59.3946 33.0556 59.5642 33.0556C59.7551 33.0556 59.953 33.0694 60.151 33.0833C60.356 33.104 60.5539 33.1317 60.7518 33.1664C60.9427 33.201 61.1336 33.2356 61.3174 33.2841C61.4941 33.3256 61.6638 33.3741 61.8193 33.4226V34.5307C61.7274 34.4891 61.6072 34.4406 61.4517 34.3852C61.2962 34.3298 61.1265 34.2744 60.9356 34.226C60.7448 34.1705 60.5327 34.129 60.3065 34.1013C60.0803 34.0667 59.847 34.0459 59.6066 34.0459C59.4228 34.0459 59.2602 34.0528 59.1259 34.0667C58.9916 34.0736 58.8714 34.0944 58.7866 34.1082C58.6947 34.129 58.617 34.1498 58.5675 34.1775C58.5109 34.1983 58.4685 34.226 58.4402 34.2467C58.4119 34.2744 58.3978 34.3021 58.3907 34.3298C58.3766 34.3506 58.3766 34.3783 58.3766 34.3991C58.3766 34.4683 58.4119 34.5307 58.4826 34.5791C58.5533 34.6346 58.6523 34.6761 58.7725 34.7177C58.8997 34.7592 59.0411 34.8008 59.2037 34.8354C59.3734 34.87 59.543 34.9116 59.7268 34.9462C59.9106 34.9877 60.1015 35.0293 60.2994 35.0709C60.4973 35.1193 60.6882 35.1747 60.872 35.2301C61.0558 35.2925 61.2325 35.3617 61.3951 35.4448C61.5577 35.521 61.6991 35.618 61.8263 35.7218C61.9465 35.8326 62.0455 35.9573 62.1162 36.0958Z" fill="white" fill-opacity="0.75"/>
<path d="M77.0327 0.145434H78.3652V4.95167H77.0327V2.95023H73.6588V4.95167H72.3333V0.145434H73.6588V1.89756H77.0327V0.145434Z" fill="white" fill-opacity="0.75"/>
<path d="M85.0008 1.01111C85.1426 1.2258 85.2135 1.48204 85.2135 1.77983V4.9586H83.888V4.48767C83.7179 4.5777 83.5336 4.66081 83.3422 4.73006C83.1509 4.79932 82.9453 4.86164 82.7327 4.91012C82.5271 4.9586 82.3074 4.99323 82.0877 5.02093C81.8608 5.0417 81.6411 5.05556 81.4143 5.05556C81.145 5.05556 80.8898 5.03478 80.6417 4.97938C80.4007 4.9309 80.181 4.85472 79.9896 4.74391C79.7982 4.63311 79.6423 4.4946 79.5289 4.31454C79.4155 4.13447 79.3588 3.91979 79.3588 3.66355C79.3588 3.33805 79.4438 3.07489 79.6281 2.85327C79.8053 2.63858 80.0888 2.46545 80.4574 2.32694C80.826 2.18843 81.3009 2.08455 81.8679 2.00837C82.435 1.93219 83.1083 1.87679 83.888 1.83524V1.73135C83.888 1.65518 83.8668 1.57207 83.8242 1.49589C83.7817 1.41971 83.7037 1.35046 83.5903 1.28813C83.4769 1.23272 83.321 1.18425 83.1225 1.14269C82.924 1.10807 82.676 1.08729 82.3712 1.08729C82.1302 1.08729 81.8892 1.10114 81.6553 1.12192C81.4214 1.14962 81.1946 1.18425 80.9748 1.2258C80.7622 1.26735 80.5566 1.31583 80.3582 1.37123C80.1597 1.42664 79.9825 1.48897 79.8266 1.54437V0.394749C79.9896 0.353196 80.181 0.311644 80.3865 0.270092C80.5921 0.228539 80.8118 0.193912 81.0315 0.16621C81.2584 0.138509 81.4852 0.117732 81.712 0.0969558C81.9388 0.0831052 82.1585 0.0692541 82.3712 0.0692541C82.7823 0.0692541 83.165 0.103881 83.5124 0.173136C83.8597 0.235464 84.1574 0.339346 84.4125 0.477854C84.6606 0.623288 84.8591 0.796423 85.0008 1.01111ZM83.888 3.40038V2.77017C83.3777 2.79094 82.9453 2.81865 82.5909 2.85327C82.2294 2.8879 81.9317 2.92945 81.6978 2.971C81.4639 3.01948 81.2796 3.06796 81.145 3.12336C81.0103 3.17877 80.904 3.23417 80.8402 3.28957C80.7764 3.34498 80.7338 3.40038 80.7197 3.45578C80.6984 3.51119 80.6913 3.55967 80.6913 3.60814C80.6913 3.66355 80.7126 3.71895 80.7409 3.77435C80.7693 3.82283 80.826 3.87131 80.904 3.90594C80.9819 3.94749 81.0812 3.98212 81.2087 4.00289C81.3434 4.02367 81.5064 4.03752 81.6978 4.03752C81.9175 4.03752 82.1302 4.02367 82.3357 3.98904C82.5413 3.95441 82.7398 3.91286 82.924 3.85746C83.1083 3.79513 83.2855 3.7328 83.4486 3.6497C83.6116 3.57352 83.7604 3.49041 83.888 3.40038Z" fill="white" fill-opacity="0.75"/>
<path d="M90.5349 0.103881C90.6128 0.117732 90.6766 0.131583 90.7333 0.145434V1.23272C90.6908 1.21887 90.6412 1.20502 90.5774 1.18425C90.5065 1.16347 90.4285 1.14269 90.3364 1.12884C90.2442 1.10807 90.145 1.08729 90.0387 1.07344C89.9253 1.05959 89.819 1.05266 89.7056 1.05266C89.4646 1.05266 89.2448 1.08037 89.0322 1.14269C88.8266 1.1981 88.6353 1.27428 88.4581 1.36431C88.2809 1.46126 88.1108 1.57207 87.9619 1.6898C87.806 1.80753 87.6642 1.93219 87.5366 2.05685V4.94475H86.2112V0.145434H87.5366V0.921081C87.6926 0.810274 87.8627 0.692542 88.0257 0.588661C88.1958 0.477854 88.373 0.380898 88.5502 0.297793C88.7345 0.214688 88.9259 0.145434 89.1314 0.0969558C89.3299 0.0484781 89.5496 0.0207764 89.7764 0.0207764C89.8615 0.0207764 89.9466 0.0277017 90.0387 0.0346271C90.1308 0.0415528 90.2159 0.0554035 90.301 0.0623288C90.386 0.0761799 90.464 0.0900305 90.5349 0.103881Z" fill="white" fill-opacity="0.75"/>
<path d="M97.639 1.73135C97.7099 1.96682 97.7454 2.23691 97.7454 2.54163C97.7454 2.85327 97.7099 3.12336 97.639 3.36575C97.5753 3.60122 97.476 3.80898 97.3484 3.98904C97.2279 4.16218 97.072 4.31454 96.9019 4.43919C96.7247 4.56385 96.5262 4.66081 96.3136 4.73699C96.1009 4.81317 95.867 4.86164 95.619 4.89627C95.3709 4.9309 95.1157 4.95167 94.8464 4.95167H91.7276V0.145434H94.8393C95.1086 0.145434 95.3638 0.16621 95.6119 0.193912C95.86 0.228539 96.0939 0.283942 96.3065 0.360122C96.5262 0.436302 96.7247 0.533257 96.8948 0.657915C97.072 0.775647 97.2279 0.928006 97.3484 1.10807C97.476 1.2812 97.5753 1.48897 97.639 1.73135ZM96.3136 3.14414C96.3774 2.97793 96.4057 2.77709 96.4057 2.54163C96.4057 2.31309 96.3774 2.11225 96.3136 1.94604C96.2569 1.77291 96.1577 1.6344 96.023 1.52359C95.8883 1.41279 95.7111 1.32968 95.4985 1.27428C95.2787 1.21887 95.0165 1.19117 94.7046 1.19117H93.0531V3.90594H94.7046C95.0165 3.90594 95.2787 3.87823 95.4985 3.82283C95.7111 3.76743 95.8883 3.68432 96.023 3.57352C96.1577 3.45578 96.2569 3.31728 96.3136 3.14414Z" fill="white" fill-opacity="0.75"/>
<path d="M107.088 3.04026C107.159 3.17877 107.195 3.33805 107.195 3.51811C107.195 3.75358 107.159 3.94749 107.074 4.1137C106.989 4.27991 106.876 4.41842 106.741 4.53615C106.599 4.64696 106.436 4.73699 106.252 4.80624C106.068 4.87549 105.876 4.9309 105.678 4.96553C105.472 5.00015 105.267 5.02785 105.061 5.0417C104.856 5.04863 104.664 5.05556 104.473 5.05556C103.991 5.05556 103.537 5.02093 103.126 4.93782C102.708 4.86164 102.346 4.76469 102.028 4.64696V3.50426C102.354 3.6774 102.729 3.81591 103.147 3.91979C103.566 4.01674 104.012 4.06522 104.487 4.06522C104.771 4.06522 104.997 4.05137 105.175 4.02367C105.352 3.99597 105.494 3.95441 105.593 3.91286C105.692 3.86438 105.763 3.81591 105.798 3.7605C105.834 3.71202 105.855 3.65662 105.855 3.60814C105.855 3.53196 105.82 3.46271 105.742 3.40731C105.671 3.3519 105.579 3.30342 105.451 3.25495C105.331 3.21339 105.182 3.17877 105.019 3.13721C104.856 3.10259 104.678 3.06796 104.494 3.03333C104.31 2.99871 104.118 2.95715 103.927 2.9156C103.729 2.87405 103.537 2.82557 103.353 2.76324C103.169 2.70784 102.991 2.64551 102.828 2.56933C102.665 2.49315 102.524 2.40312 102.396 2.29924C102.276 2.19536 102.176 2.0707 102.105 1.93912C102.035 1.80061 101.999 1.64132 101.999 1.46126C101.999 1.2535 102.035 1.06651 102.113 0.914155C102.183 0.761796 102.29 0.630213 102.417 0.519406C102.552 0.415525 102.701 0.325495 102.871 0.25624C103.041 0.186986 103.218 0.138509 103.41 0.0969558C103.601 0.0623288 103.792 0.0346271 103.984 0.0207764C104.175 0.00692533 104.359 0 104.53 0C104.721 0 104.919 0.0138511 105.118 0.0277017C105.323 0.0484781 105.522 0.0761799 105.72 0.110807C105.912 0.145434 106.103 0.180061 106.287 0.228539C106.465 0.270092 106.635 0.318569 106.791 0.367047V1.47511C106.699 1.43356 106.578 1.38508 106.422 1.32968C106.266 1.27428 106.096 1.21887 105.905 1.1704C105.713 1.11499 105.501 1.07344 105.274 1.04574C105.047 1.01111 104.813 0.990335 104.572 0.990335C104.388 0.990335 104.225 0.99726 104.09 1.01111C103.955 1.01804 103.835 1.03881 103.75 1.05266C103.658 1.07344 103.58 1.09422 103.53 1.12192C103.473 1.14269 103.431 1.1704 103.403 1.19117C103.374 1.21887 103.36 1.24658 103.353 1.27428C103.339 1.29505 103.339 1.32276 103.339 1.34353C103.339 1.41279 103.374 1.47511 103.445 1.52359C103.516 1.579 103.615 1.62055 103.736 1.6621C103.863 1.70365 104.005 1.74521 104.168 1.77983C104.338 1.81446 104.508 1.85601 104.693 1.89064C104.877 1.93219 105.068 1.97374 105.267 2.0153C105.465 2.06377 105.657 2.11918 105.841 2.17458C106.025 2.23691 106.202 2.30616 106.365 2.38927C106.528 2.46545 106.67 2.56241 106.798 2.66629C106.918 2.77709 107.017 2.90175 107.088 3.04026Z" fill="white" fill-opacity="0.75"/>
<path d="M114.049 4.1968C114.134 4.41842 114.19 4.66773 114.212 4.95167H112.858C112.837 4.68851 112.773 4.45997 112.667 4.26606C112.56 4.06522 112.433 3.89901 112.27 3.75358C112.114 3.61507 111.936 3.49734 111.731 3.40038C111.532 3.31035 111.327 3.23417 111.121 3.17877C110.909 3.12336 110.703 3.08874 110.491 3.06796C110.285 3.04026 110.094 3.03333 109.909 3.03333H109.519V4.95167H108.194V0.145434H109.519V2.00145H109.789C109.973 2.00145 110.164 1.9876 110.363 1.95989C110.568 1.93219 110.767 1.88371 110.958 1.82831C111.157 1.76598 111.348 1.6898 111.525 1.59285C111.71 1.49589 111.873 1.37816 112.014 1.23965C112.156 1.10114 112.277 0.941857 112.376 0.761796C112.468 0.581735 112.525 0.380898 112.553 0.145434H113.907C113.879 0.401674 113.829 0.630213 113.751 0.837976C113.666 1.03881 113.567 1.2258 113.453 1.38508C113.333 1.55129 113.205 1.6898 113.056 1.81446C112.915 1.93219 112.766 2.03607 112.61 2.1261C112.454 2.20921 112.305 2.28539 112.156 2.34079C112 2.39619 111.858 2.43775 111.731 2.47237C111.894 2.50008 112.071 2.5347 112.248 2.59011C112.433 2.64551 112.61 2.72169 112.787 2.81172C112.964 2.90175 113.134 3.00563 113.29 3.13721C113.453 3.2688 113.595 3.42116 113.73 3.59429C113.857 3.77435 113.964 3.96826 114.049 4.1968Z" fill="white" fill-opacity="0.75"/>
<path d="M116.531 4.95167H115.206V0.145434H116.531V4.95167Z" fill="white" fill-opacity="0.75"/>
<path d="M119.934 3.85746H122.45V4.92397H119.658C119.275 4.92397 118.942 4.88935 118.672 4.82702C118.403 4.77161 118.183 4.67466 118.013 4.54307C117.836 4.41149 117.716 4.25221 117.638 4.05137C117.56 3.85746 117.524 3.61507 117.524 3.34498V0.117732H118.85V2.86712C118.85 3.06796 118.864 3.23417 118.906 3.35883C118.942 3.48349 119.006 3.58737 119.091 3.66355C119.176 3.7328 119.289 3.7882 119.424 3.81591C119.565 3.84361 119.736 3.85746 119.934 3.85746Z" fill="white" fill-opacity="0.75"/>
<path d="M125.852 3.85746H128.368V4.92397H125.576C125.193 4.92397 124.86 4.88935 124.59 4.82702C124.321 4.77161 124.101 4.67466 123.931 4.54307C123.754 4.41149 123.633 4.25221 123.556 4.05137C123.478 3.85746 123.442 3.61507 123.442 3.34498V0.117732H124.768V2.86712C124.768 3.06796 124.782 3.23417 124.824 3.35883C124.86 3.48349 124.923 3.58737 125.009 3.66355C125.094 3.7328 125.207 3.7882 125.342 3.81591C125.483 3.84361 125.654 3.85746 125.852 3.85746Z" fill="white" fill-opacity="0.75"/>
<path d="M134.449 3.04026C134.52 3.17877 134.556 3.33805 134.556 3.51811C134.556 3.75358 134.52 3.94749 134.435 4.1137C134.35 4.27991 134.237 4.41842 134.102 4.53615C133.96 4.64696 133.797 4.73699 133.613 4.80624C133.429 4.87549 133.237 4.9309 133.039 4.96553C132.833 5.00015 132.628 5.02785 132.422 5.0417C132.217 5.04863 132.025 5.05556 131.834 5.05556C131.352 5.05556 130.898 5.02093 130.487 4.93782C130.069 4.86164 129.707 4.76469 129.388 4.64696V3.50426C129.714 3.6774 130.09 3.81591 130.508 3.91979C130.926 4.01674 131.373 4.06522 131.848 4.06522C132.131 4.06522 132.358 4.05137 132.535 4.02367C132.713 3.99597 132.854 3.95441 132.954 3.91286C133.053 3.86438 133.124 3.81591 133.159 3.7605C133.195 3.71202 133.216 3.65662 133.216 3.60814C133.216 3.53196 133.18 3.46271 133.103 3.40731C133.032 3.3519 132.939 3.30342 132.812 3.25495C132.691 3.21339 132.543 3.17877 132.38 3.13721C132.216 3.10259 132.039 3.06796 131.855 3.03333C131.671 2.99871 131.479 2.95715 131.288 2.9156C131.09 2.87405 130.898 2.82557 130.714 2.76324C130.53 2.70784 130.352 2.64551 130.189 2.56933C130.026 2.49315 129.885 2.40312 129.757 2.29924C129.636 2.19536 129.537 2.0707 129.466 1.93912C129.395 1.80061 129.36 1.64132 129.36 1.46126C129.36 1.2535 129.395 1.06651 129.473 0.914155C129.544 0.761796 129.651 0.630213 129.778 0.519406C129.913 0.415525 130.062 0.325495 130.232 0.25624C130.402 0.186986 130.579 0.138509 130.771 0.0969558C130.962 0.0623288 131.153 0.0346271 131.345 0.0207764C131.536 0.00692533 131.72 0 131.89 0C132.082 0 132.28 0.0138511 132.479 0.0277017C132.684 0.0484781 132.883 0.0761799 133.081 0.110807C133.273 0.145434 133.464 0.180061 133.648 0.228539C133.825 0.270092 133.996 0.318569 134.152 0.367047V1.47511C134.059 1.43356 133.939 1.38508 133.783 1.32968C133.627 1.27428 133.457 1.21887 133.266 1.1704C133.074 1.11499 132.862 1.07344 132.635 1.04574C132.408 1.01111 132.174 0.990335 131.933 0.990335C131.749 0.990335 131.586 0.99726 131.451 1.01111C131.316 1.01804 131.196 1.03881 131.111 1.05266C131.019 1.07344 130.941 1.09422 130.891 1.12192C130.834 1.14269 130.792 1.1704 130.763 1.19117C130.735 1.21887 130.721 1.24658 130.714 1.27428C130.7 1.29505 130.7 1.32276 130.7 1.34353C130.7 1.41279 130.735 1.47511 130.806 1.52359C130.877 1.579 130.976 1.62055 131.097 1.6621C131.224 1.70365 131.366 1.74521 131.529 1.77983C131.699 1.81446 131.869 1.85601 132.053 1.89064C132.238 1.93219 132.429 1.97374 132.628 2.0153C132.826 2.06377 133.017 2.11918 133.202 2.17458C133.386 2.23691 133.563 2.30616 133.726 2.38927C133.889 2.46545 134.031 2.56241 134.159 2.66629C134.279 2.77709 134.378 2.90175 134.449 3.04026Z" fill="white" fill-opacity="0.75"/>
<path d="M71.5556 8.94444H135.333V10.8889H71.5556V8.94444Z" fill="#B7DE43"/>
<path d="M93.9857 14.7778H100.346V38.1111H93.9857V28.3805H77.882V38.1111H71.5556V14.7778H77.882V23.2626H93.9857V14.7778Z" fill="white"/>
<path d="M123.053 14.7778L135.333 38.1111H128.263L126.064 33.7003H113.005L110.772 38.1111H103.735L115.982 14.7778H123.053ZM115.271 29.1549H123.831L119.568 20.5354L115.271 29.1549Z" fill="white"/>
</svg>
