<svg width="124" height="62" viewBox="0 0 124 62" fill="none" xmlns="http://www.w3.org/2000/svg">
<g clip-path="url(#clip0_81_609)">
<path d="M30.5227 27.6676C30.7705 28.1689 30.8944 28.7456 30.8944 29.3973C30.8944 30.2247 30.7705 30.9517 30.4731 31.5534C30.1758 32.155 29.7792 32.6564 29.3084 33.0826C28.8128 33.4837 28.2428 33.8095 27.5985 34.0603C26.9542 34.3109 26.2851 34.5115 25.5912 34.6369C24.8726 34.7622 24.1539 34.8625 23.4353 34.9126C22.7166 34.9377 22.0475 34.9628 21.3784 34.9628C19.6933 34.9628 18.1073 34.8374 16.67 34.5366C15.2079 34.2608 13.944 33.9098 12.8289 33.4837V29.3473C13.9688 29.9739 15.2822 30.4753 16.7443 30.8514C18.2064 31.2023 19.7676 31.3778 21.428 31.3778C22.4192 31.3778 23.2122 31.3277 23.8317 31.2274C24.4513 31.1272 24.9469 30.9767 25.2939 30.8263C25.6408 30.6509 25.8886 30.4753 26.0125 30.2748C26.1364 30.0993 26.2107 29.8987 26.2107 29.7233C26.2107 29.4475 26.0868 29.1968 25.8142 28.9962C25.5664 28.7957 25.2442 28.6202 24.7982 28.4448C24.377 28.2943 23.8565 28.1689 23.2865 28.0185C22.7166 27.8932 22.097 27.7678 21.4528 27.6425C20.8084 27.5172 20.1393 27.3667 19.4703 27.2163C18.7764 27.0659 18.1073 26.8904 17.463 26.6648C16.8186 26.4642 16.1991 26.2386 15.6291 25.9628C15.0592 25.6871 14.5635 25.3612 14.1175 24.9851C13.6962 24.6091 13.3493 24.1578 13.1014 23.6815C12.8536 23.1802 12.7297 22.6036 12.7297 21.9517C12.7297 21.1997 12.8536 20.5228 13.1262 19.9713C13.374 19.4197 13.7458 18.9434 14.1918 18.5423C14.6627 18.1663 15.1831 17.8404 15.7778 17.5897C16.3726 17.339 16.9921 17.1635 17.6612 17.0131C18.3303 16.8877 18.9994 16.7875 19.6685 16.7373C20.3376 16.6872 20.9819 16.6621 21.5767 16.6621C22.2457 16.6621 22.9396 16.7122 23.6335 16.7624C24.3522 16.8376 25.046 16.9379 25.7399 17.0632C26.409 17.1886 27.0781 17.3139 27.7224 17.4894C28.342 17.6398 28.9367 17.8153 29.4819 17.9908V22.0019C29.1598 21.8515 28.7384 21.676 28.1933 21.4754C27.6481 21.2749 27.0533 21.0743 26.3842 20.8988C25.7151 20.6983 24.9717 20.5479 24.1787 20.4225C23.3857 20.3222 22.5679 20.247 21.7253 20.247C21.081 20.247 20.5111 20.2721 20.0402 20.3222C19.5694 20.3473 19.1481 20.4225 18.8507 20.4727C18.5286 20.5479 18.256 20.6231 18.0825 20.6983C17.8842 20.7986 17.7356 20.8988 17.6364 20.974C17.5373 21.0743 17.4877 21.1746 17.463 21.2498C17.4134 21.3501 17.4134 21.4504 17.4134 21.5256C17.4134 21.7763 17.5373 21.9768 17.7851 22.1774C18.0329 22.3779 18.3799 22.5283 18.8011 22.6788C19.2472 22.8292 19.7428 22.9796 20.3128 23.1049C20.9076 23.2303 21.5023 23.3556 22.1466 23.5061C22.7909 23.6565 23.4601 23.8069 24.1539 23.9573C24.8478 24.1328 25.5169 24.3334 26.1612 24.5339C26.8055 24.7595 27.4251 25.0102 27.995 25.3111C28.565 25.5868 29.0606 25.9378 29.5067 26.3138C29.9279 26.7149 30.2749 27.1662 30.5227 27.6676Z" fill="black"/>
<path d="M55.9727 21.8515C56.5179 23.0047 56.7657 24.3334 56.7657 25.8124C56.7657 27.3166 56.5179 28.6202 55.9727 29.7734C55.4275 30.9266 54.6592 31.8792 53.6432 32.6313C52.6272 33.4084 51.4129 33.9851 49.9756 34.3862C48.5383 34.7622 46.9027 34.9628 45.1185 34.9628C43.3343 34.9628 41.6987 34.7622 40.2614 34.3862C38.824 33.9851 37.585 33.4084 36.569 32.6313C35.5529 31.8792 34.7599 30.9266 34.2147 29.7734C33.6695 28.6202 33.397 27.3166 33.397 25.8124C33.397 24.3334 33.6695 23.0047 34.2147 21.8515C34.7599 20.7234 35.5529 19.7707 36.569 18.9936C37.585 18.2415 38.824 17.6398 40.2614 17.2638C41.6987 16.8627 43.3343 16.6621 45.1185 16.6621C46.9027 16.6621 48.5383 16.8627 49.9756 17.2638C51.4129 17.6398 52.6272 18.2415 53.6432 18.9936C54.6345 19.7707 55.4275 20.7234 55.9727 21.8515ZM51.7846 27.7678C51.9829 27.1161 52.082 26.4642 52.082 25.8124C52.082 25.1606 51.9829 24.5088 51.7846 23.8821C51.5616 23.2303 51.2147 22.6537 50.6943 22.1272C50.1739 21.6258 49.4552 21.1997 48.5631 20.8738C47.6462 20.5479 46.5062 20.3974 45.1185 20.3974C44.1768 20.3974 43.359 20.4727 42.6651 20.6231C41.9465 20.7735 41.327 20.974 40.8065 21.2247C40.3109 21.5005 39.8648 21.8013 39.5179 22.1523C39.171 22.5033 38.8984 22.8793 38.6754 23.2804C38.4771 23.6815 38.3284 24.1077 38.2293 24.5339C38.1549 24.9601 38.1054 25.3862 38.1054 25.8124C38.1054 26.2386 38.1549 26.6898 38.2293 27.1161C38.3284 27.5673 38.4771 27.9684 38.6754 28.3695C38.8984 28.7706 39.171 29.1467 39.5179 29.4976C39.8648 29.8486 40.3109 30.1495 40.8065 30.4001C41.327 30.6509 41.9465 30.8514 42.6651 31.0018C43.359 31.1522 44.1768 31.2274 45.1185 31.2274C46.5062 31.2274 47.6462 31.077 48.5631 30.7511C49.4552 30.4252 50.1739 30.0241 50.6943 29.4976C51.2147 28.9962 51.5616 28.3946 51.7846 27.7678Z" fill="black"/>
<path d="M11.8718 37.249H57.6234V38.6787H11.8718V37.249Z" fill="#B7DE43"/>
<path d="M15.6039 43.2022C15.6559 43.3041 15.6819 43.4212 15.6819 43.5536C15.6819 43.7267 15.6559 43.8693 15.5935 43.9916C15.5311 44.1138 15.448 44.2156 15.3492 44.3022C15.2453 44.3836 15.1257 44.4498 14.9906 44.5008C14.8554 44.5517 14.7151 44.5925 14.5695 44.6179C14.4188 44.6433 14.2681 44.6637 14.1173 44.6739C13.9666 44.679 13.8262 44.6841 13.6859 44.6841C13.3324 44.6841 12.9998 44.6586 12.6983 44.5975C12.3916 44.5415 12.1265 44.4702 11.8926 44.3836V43.5434C12.1317 43.6708 12.4072 43.7726 12.7139 43.8489C13.0206 43.9203 13.348 43.9559 13.6963 43.9559C13.9042 43.9559 14.0705 43.9457 14.2005 43.9253C14.3304 43.905 14.4344 43.8744 14.5072 43.8439C14.5799 43.8082 14.6319 43.7726 14.6579 43.7319C14.6839 43.6962 14.6995 43.6555 14.6995 43.6198C14.6995 43.5638 14.6735 43.5129 14.6163 43.4722C14.5643 43.4314 14.4968 43.3958 14.4032 43.3601C14.3148 43.3296 14.2057 43.3041 14.0861 43.2736C13.9666 43.248 13.8366 43.2226 13.7015 43.1972C13.5663 43.1717 13.426 43.1411 13.2857 43.1106C13.1401 43.08 12.9998 43.0444 12.8646 42.9986C12.7295 42.9578 12.5995 42.912 12.48 42.856C12.3604 42.8 12.2565 42.7338 12.1629 42.6574C12.0745 42.581 12.0018 42.4894 11.9498 42.3926C11.8978 42.2908 11.8718 42.1736 11.8718 42.0412C11.8718 41.8885 11.8978 41.751 11.955 41.6389C12.007 41.5269 12.0849 41.4302 12.1785 41.3487C12.2773 41.2723 12.3864 41.2061 12.5112 41.1552C12.6359 41.1042 12.7659 41.0686 12.9062 41.038C13.0466 41.0126 13.1869 40.9922 13.3272 40.982C13.4676 40.9719 13.6027 40.9668 13.7275 40.9668C13.8678 40.9668 14.0134 40.9769 14.1589 40.9872C14.3096 41.0024 14.4552 41.0228 14.6007 41.0483C14.7411 41.0737 14.8814 41.0992 15.0166 41.1348C15.1465 41.1653 15.2713 41.201 15.3856 41.2367V42.0514C15.318 42.0208 15.2297 41.9852 15.1153 41.9444C15.001 41.9037 14.8762 41.863 14.7359 41.8274C14.5955 41.7866 14.4396 41.7561 14.2733 41.7357C14.1069 41.7103 13.9354 41.695 13.7587 41.695C13.6235 41.695 13.504 41.7 13.4052 41.7103C13.3064 41.7153 13.2181 41.7306 13.1557 41.7408C13.0881 41.7561 13.031 41.7714 12.9946 41.7917C12.953 41.807 12.9218 41.8274 12.901 41.8426C12.8802 41.863 12.8698 41.8833 12.8646 41.9037C12.8542 41.919 12.8542 41.9394 12.8542 41.9547C12.8542 42.0055 12.8802 42.0514 12.9322 42.087C12.9842 42.1278 13.057 42.1583 13.1453 42.1889C13.2389 42.2194 13.3428 42.25 13.4624 42.2755C13.5871 42.3009 13.7119 42.3315 13.847 42.3569C13.9822 42.3875 14.1225 42.418 14.2681 42.4486C14.4136 42.4842 14.5539 42.525 14.6891 42.5657C14.8242 42.6116 14.9542 42.6625 15.0737 42.7236C15.1933 42.7796 15.2972 42.8509 15.3908 42.9272C15.4792 43.0087 15.5519 43.1004 15.6039 43.2022Z" fill="black" fill-opacity="0.75"/>
<path d="M21.1498 42.0208C21.2642 42.2551 21.3162 42.525 21.3162 42.8254C21.3162 43.131 21.2642 43.3958 21.1498 43.63C21.0355 43.8642 20.8743 44.0578 20.6612 44.2105C20.4481 44.3683 20.1934 44.4855 19.892 44.5669C19.5905 44.6433 19.2474 44.6841 18.8732 44.6841C18.4989 44.6841 18.1559 44.6433 17.8544 44.5669C17.5529 44.4855 17.293 44.3683 17.0799 44.2105C16.8668 44.0578 16.7004 43.8642 16.5861 43.63C16.4717 43.3958 16.4146 43.131 16.4146 42.8254C16.4146 42.525 16.4717 42.2551 16.5861 42.0208C16.7004 41.7917 16.8668 41.5982 17.0799 41.4403C17.293 41.2876 17.5529 41.1653 17.8544 41.089C18.1559 41.0075 18.4989 40.9668 18.8732 40.9668C19.2474 40.9668 19.5905 41.0075 19.892 41.089C20.1934 41.1653 20.4481 41.2876 20.6612 41.4403C20.8743 41.5982 21.0355 41.7917 21.1498 42.0208ZM20.2714 43.2226C20.313 43.0903 20.3338 42.9578 20.3338 42.8254C20.3338 42.693 20.313 42.5657 20.2714 42.4333C20.2298 42.3009 20.1518 42.1838 20.0427 42.0769C19.9335 41.975 19.7828 41.8885 19.5956 41.8222C19.4034 41.7611 19.1642 41.7255 18.8732 41.7255C18.6756 41.7255 18.5041 41.7408 18.3586 41.7714C18.2078 41.8019 18.0779 41.8426 17.9687 41.8986C17.8648 41.9496 17.7712 42.0107 17.6984 42.0819C17.6257 42.1533 17.5685 42.2297 17.5217 42.3111C17.4801 42.3926 17.4489 42.4791 17.4281 42.5657C17.4126 42.6523 17.4022 42.7389 17.4022 42.8254C17.4022 42.912 17.4126 43.0036 17.4281 43.0903C17.4489 43.1819 17.4801 43.2633 17.5217 43.3448C17.5685 43.4314 17.6257 43.5027 17.6984 43.574C17.7712 43.6453 17.8648 43.7064 17.9687 43.7573C18.0779 43.8133 18.2078 43.8541 18.3586 43.8795C18.5041 43.91 18.6756 43.9253 18.8732 43.9253C19.1642 43.9253 19.4034 43.8948 19.5956 43.8286C19.7828 43.7624 19.9335 43.6809 20.0427 43.574C20.1518 43.4722 20.2298 43.355 20.2714 43.2226Z" fill="black" fill-opacity="0.75"/>
<path d="M23.0676 42.0468C23.0364 42.113 23.0208 42.1996 23.0208 42.3116V42.444H25.7393V43.1926H23.0208V44.6082H22.0488V42.2302C22.0488 42.0519 22.0748 41.889 22.132 41.7413C22.184 41.5987 22.2775 41.4765 22.4075 41.3797C22.5374 41.283 22.709 41.2066 22.9221 41.1506C23.1352 41.0997 23.4003 41.0742 23.7174 41.0742H25.8693V41.8279H23.7485C23.6342 41.8279 23.5354 41.833 23.4418 41.838C23.3535 41.8483 23.2755 41.8686 23.2132 41.9042C23.1507 41.9348 23.104 41.9857 23.0676 42.0468Z" fill="black" fill-opacity="0.75"/>
<path d="M26.5969 41.0742H30.6305V41.8431H29.0971V44.6031H28.1251V41.8431H26.5969V41.0742Z" fill="black" fill-opacity="0.75"/>
<path d="M37.4809 43.2022C37.5329 43.3041 37.5589 43.4212 37.5589 43.5536C37.5589 43.7267 37.5329 43.8693 37.4705 43.9916C37.4081 44.1138 37.325 44.2156 37.2262 44.3022C37.1222 44.3836 37.0027 44.4498 36.8675 44.5008C36.7324 44.5517 36.5921 44.5925 36.4465 44.6179C36.2958 44.6433 36.145 44.6637 35.9943 44.6739C35.8436 44.679 35.7032 44.6841 35.5629 44.6841C35.2094 44.6841 34.8767 44.6586 34.5752 44.5975C34.2686 44.5415 34.0035 44.4702 33.7696 44.3836V43.5434C34.0087 43.6708 34.2842 43.7726 34.5908 43.8489C34.8975 43.9203 35.225 43.9559 35.5733 43.9559C35.7812 43.9559 35.9475 43.9457 36.0775 43.9253C36.2074 43.905 36.3114 43.8744 36.3841 43.8439C36.4569 43.8082 36.5089 43.7726 36.5349 43.7319C36.5608 43.6962 36.5765 43.6555 36.5765 43.6198C36.5765 43.5638 36.5505 43.5129 36.4933 43.4722C36.4414 43.4314 36.3738 43.3958 36.2802 43.3601C36.1918 43.3296 36.0827 43.3041 35.9631 43.2736C35.8436 43.248 35.7136 43.2226 35.5785 43.1972C35.4433 43.1717 35.303 43.1411 35.1626 43.1106C35.0171 43.08 34.8767 43.0444 34.7416 42.9986C34.6064 42.9578 34.4765 42.912 34.3569 42.856C34.2374 42.8 34.1334 42.7338 34.0399 42.6574C33.9515 42.581 33.8788 42.4894 33.8268 42.3926C33.7748 42.2908 33.7488 42.1736 33.7488 42.0412C33.7488 41.8885 33.7748 41.751 33.8319 41.6389C33.8839 41.5269 33.9619 41.4302 34.0555 41.3487C34.1542 41.2723 34.2634 41.2061 34.3881 41.1552C34.5129 41.1042 34.6428 41.0686 34.7832 41.038C34.9236 41.0126 35.0639 40.9922 35.2042 40.982C35.3446 40.9719 35.4797 40.9668 35.6044 40.9668C35.7448 40.9668 35.8903 40.9769 36.0359 40.9872C36.1866 41.0024 36.3322 41.0228 36.4777 41.0483C36.618 41.0737 36.7584 41.0992 36.8936 41.1348C37.0235 41.1653 37.1483 41.201 37.2626 41.2367V42.0514C37.195 42.0208 37.1066 41.9852 36.9923 41.9444C36.878 41.9037 36.7532 41.863 36.6128 41.8274C36.4725 41.7866 36.3166 41.7561 36.1503 41.7357C35.9839 41.7103 35.8124 41.695 35.6356 41.695C35.5005 41.695 35.3809 41.7 35.2822 41.7103C35.1834 41.7153 35.095 41.7306 35.0327 41.7408C34.9651 41.7561 34.908 41.7714 34.8716 41.7917C34.83 41.807 34.7988 41.8274 34.778 41.8426C34.7572 41.863 34.7468 41.8833 34.7416 41.9037C34.7312 41.919 34.7312 41.9394 34.7312 41.9547C34.7312 42.0055 34.7572 42.0514 34.8091 42.087C34.8611 42.1278 34.9339 42.1583 35.0223 42.1889C35.1158 42.2194 35.2198 42.25 35.3394 42.2755C35.4641 42.3009 35.5889 42.3315 35.724 42.3569C35.8591 42.3875 35.9995 42.418 36.145 42.4486C36.2905 42.4842 36.4309 42.525 36.5661 42.5657C36.7012 42.6116 36.8311 42.6625 36.9507 42.7236C37.0703 42.7796 37.1742 42.8509 37.2677 42.9272C37.3561 43.0087 37.4289 43.1004 37.4809 43.2022Z" fill="black" fill-opacity="0.75"/>
<path d="M42.585 44.0532C42.6473 44.2161 42.6889 44.3994 42.7045 44.6082H41.7117C41.6961 44.4147 41.6493 44.2466 41.5714 44.1041C41.4933 43.9564 41.3998 43.8342 41.2803 43.7272C41.1659 43.6254 41.036 43.5388 40.8853 43.4675C40.7397 43.4013 40.5889 43.3453 40.4382 43.3046C40.2822 43.2639 40.1315 43.2384 39.9756 43.2231C39.8249 43.2027 39.6845 43.1977 39.5494 43.1977H39.2635V44.6082H38.2915V41.0742H39.2635V42.4389H39.461C39.5961 42.4389 39.7365 42.4288 39.882 42.4083C40.0328 42.388 40.1783 42.3524 40.3186 42.3116C40.4642 42.2658 40.6045 42.2098 40.7345 42.1385C40.8696 42.0672 40.9892 41.9806 41.0931 41.8788C41.1971 41.7769 41.2855 41.6598 41.3582 41.5275C41.4258 41.395 41.4674 41.2474 41.4882 41.0742H42.481C42.4602 41.2626 42.4238 41.4307 42.3666 41.5834C42.3042 41.7311 42.2315 41.8686 42.1483 41.9857C42.06 42.108 41.9664 42.2098 41.8572 42.3014C41.7533 42.388 41.6442 42.4644 41.5297 42.5306C41.4154 42.5917 41.3063 42.6477 41.1971 42.6884C41.0828 42.7292 40.9788 42.7597 40.8853 42.7852C41.0047 42.8055 41.1347 42.8311 41.2647 42.8718C41.3998 42.9125 41.5297 42.9685 41.6597 43.0347C41.7897 43.1009 41.9144 43.1773 42.0288 43.2741C42.1483 43.3708 42.2522 43.4828 42.3511 43.6101C42.4446 43.7425 42.5225 43.8851 42.585 44.0532Z" fill="black" fill-opacity="0.75"/>
<path d="M44.4053 44.6082H43.4333V41.0742H44.4053V44.6082Z" fill="black" fill-opacity="0.75"/>
<path d="M46.9008 43.8035H48.746V44.5877H46.6981C46.4174 44.5877 46.1731 44.5622 45.9756 44.5164C45.778 44.4757 45.6169 44.4044 45.4921 44.3076C45.3622 44.2108 45.2738 44.0938 45.2167 43.9461C45.1595 43.8035 45.1335 43.6253 45.1335 43.4267V41.0537H46.1055V43.0753C46.1055 43.223 46.1159 43.3452 46.1471 43.4369C46.1731 43.5285 46.2199 43.6049 46.2823 43.6609C46.3446 43.7119 46.4278 43.7526 46.5266 43.773C46.6305 43.7933 46.7552 43.8035 46.9008 43.8035Z" fill="black" fill-opacity="0.75"/>
<path d="M51.2409 43.8035H53.0861V44.5877H51.0382C50.7575 44.5877 50.5132 44.5622 50.3157 44.5164C50.1181 44.4757 49.957 44.4044 49.8322 44.3076C49.7023 44.2108 49.6139 44.0938 49.5568 43.9461C49.4996 43.8035 49.4736 43.6253 49.4736 43.4267V41.0537H50.4456V43.0753C50.4456 43.223 50.456 43.3452 50.4872 43.4369C50.5132 43.5285 50.56 43.6049 50.6223 43.6609C50.6847 43.7119 50.7679 43.7526 50.8666 43.773C50.9706 43.7933 51.0953 43.8035 51.2409 43.8035Z" fill="black" fill-opacity="0.75"/>
<path d="M57.5454 43.2022C57.5973 43.3041 57.6233 43.4212 57.6233 43.5536C57.6233 43.7267 57.5974 43.8693 57.5349 43.9916C57.4726 44.1138 57.3894 44.2156 57.2907 44.3022C57.1867 44.3836 57.0671 44.4498 56.932 44.5008C56.7968 44.5517 56.6565 44.5925 56.511 44.6179C56.3602 44.6433 56.2095 44.6637 56.0587 44.6739C55.908 44.679 55.7676 44.6841 55.6274 44.6841C55.2739 44.6841 54.9412 44.6586 54.6397 44.5975C54.3331 44.5415 54.0679 44.4702 53.834 44.3836V43.5434C54.0732 43.6708 54.3487 43.7726 54.6553 43.8489C54.962 43.9203 55.2895 43.9559 55.6377 43.9559C55.8457 43.9559 56.012 43.9457 56.1419 43.9253C56.2718 43.905 56.3758 43.8744 56.4486 43.8439C56.5214 43.8082 56.5734 43.7726 56.5993 43.7319C56.6253 43.6962 56.6409 43.6555 56.6409 43.6198C56.6409 43.5638 56.6149 43.5129 56.5577 43.4722C56.5058 43.4314 56.4382 43.3958 56.3446 43.3601C56.2562 43.3296 56.1471 43.3041 56.0276 43.2736C55.908 43.248 55.7781 43.2226 55.6429 43.1972C55.5078 43.1717 55.3674 43.1411 55.2271 43.1106C55.0815 43.08 54.9412 43.0444 54.806 42.9986C54.6709 42.9578 54.541 42.912 54.4214 42.856C54.3018 42.8 54.1979 42.7338 54.1043 42.6574C54.016 42.581 53.9432 42.4894 53.8912 42.3926C53.8393 42.2908 53.8132 42.1736 53.8132 42.0412C53.8132 41.8885 53.8393 41.751 53.8964 41.6389C53.9484 41.5269 54.0264 41.4302 54.1199 41.3487C54.2187 41.2723 54.3279 41.2061 54.4526 41.1552C54.5773 41.1042 54.7073 41.0686 54.8476 41.038C54.988 41.0126 55.1283 40.9922 55.2687 40.982C55.409 40.9719 55.5442 40.9668 55.6689 40.9668C55.8093 40.9668 55.9548 40.9769 56.1004 40.9872C56.2511 41.0024 56.3966 41.0228 56.5421 41.0483C56.6825 41.0737 56.8229 41.0992 56.958 41.1348C57.0879 41.1653 57.2127 41.201 57.3271 41.2367V42.0514C57.2595 42.0208 57.1711 41.9852 57.0568 41.9444C56.9424 41.9037 56.8176 41.863 56.6773 41.8274C56.537 41.7866 56.381 41.7561 56.2147 41.7357C56.0484 41.7103 55.8768 41.695 55.7001 41.695C55.5649 41.695 55.4454 41.7 55.3466 41.7103C55.2479 41.7153 55.1595 41.7306 55.0971 41.7408C55.0296 41.7561 54.9724 41.7714 54.936 41.7917C54.8944 41.807 54.8632 41.8274 54.8424 41.8426C54.8216 41.863 54.8112 41.8833 54.806 41.9037C54.7957 41.919 54.7957 41.9394 54.7957 41.9547C54.7957 42.0055 54.8216 42.0514 54.8736 42.087C54.9256 42.1278 54.9984 42.1583 55.0868 42.1889C55.1803 42.2194 55.2843 42.25 55.4038 42.2755C55.5286 42.3009 55.6533 42.3315 55.7885 42.3569C55.9236 42.3875 56.064 42.418 56.2095 42.4486C56.355 42.4842 56.4954 42.525 56.6305 42.5657C56.7657 42.6116 56.8956 42.6625 57.0151 42.7236C57.1347 42.7796 57.2387 42.8509 57.3322 42.9272C57.4206 43.0087 57.4934 43.1004 57.5454 43.2022Z" fill="black" fill-opacity="0.75"/>
<path d="M68.5135 16.7695H69.4933V20.3035H68.5135V18.8319H66.0327V20.3035H65.0581V16.7695H66.0327V18.0579H68.5135V16.7695Z" fill="black" fill-opacity="0.75"/>
<path d="M74.3724 17.4064C74.4767 17.5643 74.5288 17.7527 74.5288 17.9716V20.309H73.5542V19.9627C73.4291 20.0289 73.2936 20.09 73.1528 20.1409C73.0122 20.1919 72.861 20.2377 72.7047 20.2733C72.5535 20.309 72.392 20.3344 72.2304 20.3548C72.0636 20.3701 71.902 20.3803 71.7353 20.3803C71.5373 20.3803 71.3496 20.365 71.1672 20.3243C70.99 20.2886 70.8284 20.2326 70.6877 20.1511C70.547 20.0696 70.4323 19.9678 70.3489 19.8354C70.2656 19.703 70.2239 19.5451 70.2239 19.3567C70.2239 19.1174 70.2864 18.9239 70.4219 18.7609C70.5522 18.6031 70.7606 18.4758 71.0317 18.3739C71.3027 18.2721 71.6519 18.1957 72.0688 18.1397C72.4858 18.0837 72.9809 18.0429 73.5542 18.0124V17.936C73.5542 17.88 73.5386 17.8189 73.5073 17.7629C73.476 17.7068 73.4187 17.6559 73.3353 17.6101C73.2519 17.5694 73.1373 17.5337 72.9913 17.5032C72.8453 17.4777 72.663 17.4624 72.4389 17.4624C72.2617 17.4624 72.0845 17.4726 71.9125 17.4879C71.7405 17.5083 71.5737 17.5337 71.4121 17.5643C71.2558 17.5948 71.1046 17.6305 70.9587 17.6712C70.8128 17.7119 70.6825 17.7578 70.5678 17.7985V16.9532C70.6877 16.9226 70.8284 16.8921 70.9795 16.8615C71.1307 16.831 71.2923 16.8055 71.4538 16.7852C71.6206 16.7648 71.7874 16.7495 71.9542 16.7342C72.1209 16.7241 72.2825 16.7139 72.4389 16.7139C72.7412 16.7139 73.0225 16.7393 73.278 16.7903C73.5334 16.8361 73.7523 16.9125 73.9398 17.0143C74.1223 17.1212 74.2682 17.2486 74.3724 17.4064ZM73.5542 19.1632V18.6998C73.1789 18.7151 72.861 18.7355 72.6004 18.7609C72.3346 18.7864 72.1157 18.817 71.9437 18.8475C71.7717 18.8832 71.6362 18.9188 71.5373 18.9595C71.4382 19.0003 71.3601 19.041 71.3131 19.0817C71.2662 19.1225 71.2349 19.1632 71.2245 19.204C71.2089 19.2447 71.2037 19.2803 71.2037 19.316C71.2037 19.3567 71.2193 19.3975 71.2401 19.4382C71.261 19.4738 71.3027 19.5095 71.3601 19.535C71.4173 19.5655 71.4903 19.591 71.5841 19.6062C71.6831 19.6215 71.803 19.6317 71.9437 19.6317C72.1053 19.6317 72.2617 19.6215 72.4128 19.5961C72.5639 19.5706 72.7099 19.54 72.8453 19.4993C72.9809 19.4535 73.1112 19.4077 73.2311 19.3465C73.3509 19.2905 73.4603 19.2294 73.5542 19.1632Z" fill="black" fill-opacity="0.75"/>
<path d="M78.4414 16.7379C78.4987 16.748 78.5456 16.7582 78.5873 16.7684V17.5679C78.556 17.5577 78.5196 17.5475 78.4727 17.5323C78.4205 17.517 78.3632 17.5017 78.2954 17.4915C78.2277 17.4762 78.1547 17.461 78.0765 17.4508C77.9932 17.4406 77.915 17.4355 77.8316 17.4355C77.6544 17.4355 77.4928 17.4559 77.3365 17.5017C77.1853 17.5424 77.0446 17.5985 76.9143 17.6647C76.784 17.7359 76.659 17.8174 76.5495 17.904C76.4349 17.9905 76.3306 18.0822 76.2368 18.1739V20.2973H75.2622V16.7684H76.2368V17.3387C76.3515 17.2573 76.4765 17.1707 76.5964 17.0943C76.7215 17.0128 76.8518 16.9416 76.9821 16.8804C77.1176 16.8193 77.2583 16.7684 77.4094 16.7328C77.5554 16.6971 77.7169 16.6768 77.8837 16.6768C77.9463 16.6768 78.0088 16.6818 78.0765 16.6869C78.1443 16.692 78.2068 16.7022 78.2694 16.7073C78.3319 16.7175 78.3893 16.7277 78.4414 16.7379Z" fill="black" fill-opacity="0.75"/>
<path d="M83.6652 17.9356C83.7174 18.1088 83.7435 18.3074 83.7435 18.5314C83.7435 18.7606 83.7174 18.9592 83.6652 19.1374C83.6184 19.3106 83.5454 19.4633 83.4515 19.5957C83.3629 19.723 83.2483 19.8351 83.1232 19.9267C82.9929 20.0184 82.847 20.0897 82.6907 20.1457C82.5343 20.2017 82.3623 20.2373 82.1799 20.2628C81.9975 20.2883 81.8099 20.3035 81.6118 20.3035H79.3186V16.7695H81.6066C81.8046 16.7695 81.9923 16.7848 82.1747 16.8052C82.3571 16.8306 82.5291 16.8714 82.6854 16.9274C82.847 16.9834 82.9929 17.0547 83.118 17.1464C83.2483 17.2329 83.3629 17.345 83.4515 17.4774C83.5454 17.6047 83.6184 17.7574 83.6652 17.9356ZM82.6907 18.9745C82.7376 18.8522 82.7584 18.7046 82.7584 18.5314C82.7584 18.3634 82.7376 18.2157 82.6907 18.0935C82.649 17.9662 82.576 17.8644 82.477 17.7829C82.3779 17.7014 82.2476 17.6403 82.0913 17.5996C81.9297 17.5588 81.7369 17.5385 81.5076 17.5385H80.2932V19.5346H81.5076C81.7369 19.5346 81.9297 19.5142 82.0913 19.4735C82.2476 19.4328 82.3779 19.3717 82.477 19.2902C82.576 19.2036 82.649 19.1018 82.6907 18.9745Z" fill="black" fill-opacity="0.75"/>
<path d="M90.613 18.8976C90.6652 18.9994 90.6917 19.1166 90.6917 19.249C90.6917 19.4221 90.6652 19.5647 90.6027 19.6869C90.5402 19.8091 90.4571 19.9109 90.3579 19.9975C90.2534 20.079 90.1336 20.1452 89.9983 20.1961C89.863 20.247 89.7218 20.2878 89.5762 20.3132C89.4248 20.3387 89.274 20.3591 89.1226 20.3692C88.9718 20.3743 88.8307 20.3794 88.6902 20.3794C88.3358 20.3794 88.002 20.354 87.6998 20.2929C87.3924 20.2368 87.1262 20.1656 86.8924 20.079V19.2388C87.1321 19.3661 87.4079 19.4679 87.7152 19.5443C88.0233 19.6156 88.3512 19.6512 88.7005 19.6512C88.9093 19.6512 89.0755 19.6411 89.2064 19.6207C89.3365 19.6003 89.4409 19.5698 89.5137 19.5392C89.5865 19.5036 89.6387 19.4679 89.6645 19.4272C89.6909 19.3915 89.7064 19.3508 89.7064 19.3152C89.7064 19.2591 89.6806 19.2082 89.6233 19.1675C89.5711 19.1267 89.5034 19.0911 89.4093 19.0555C89.3211 19.0249 89.2115 18.9994 89.0917 18.9689C88.9718 18.9434 88.8409 18.918 88.7057 18.8925C88.5704 18.867 88.4292 18.8365 88.2887 18.8059C88.1432 18.7754 88.002 18.7397 87.8667 18.6939C87.7314 18.6532 87.6005 18.6073 87.4807 18.5513C87.3608 18.4953 87.2571 18.4291 87.163 18.3527C87.0748 18.2763 87.0012 18.1847 86.949 18.0879C86.8976 17.9861 86.8711 17.869 86.8711 17.7366C86.8711 17.5838 86.8976 17.4463 86.9549 17.3343C87.0064 17.2223 87.0851 17.1255 87.1784 17.044C87.2777 16.9676 87.3873 16.9014 87.5123 16.8505C87.6373 16.7996 87.7674 16.764 87.9086 16.7334C88.049 16.7079 88.1895 16.6876 88.3307 16.6774C88.4711 16.6672 88.6064 16.6621 88.7321 16.6621C88.8726 16.6621 89.0181 16.6723 89.1645 16.6825C89.3152 16.6978 89.4615 16.7181 89.6071 16.7436C89.7483 16.769 89.8887 16.7945 90.024 16.8302C90.1549 16.8607 90.2799 16.8964 90.3946 16.932V17.7467C90.327 17.7162 90.238 17.6806 90.1233 17.6398C90.0086 17.5991 89.8836 17.5583 89.7432 17.5227C89.602 17.482 89.4461 17.4514 89.2792 17.431C89.1123 17.4056 88.9402 17.3903 88.763 17.3903C88.6277 17.3903 88.5079 17.3954 88.4086 17.4056C88.3093 17.4107 88.2211 17.4259 88.1586 17.4361C88.0909 17.4514 88.0336 17.4667 87.9968 17.4871C87.9549 17.5023 87.924 17.5227 87.9034 17.538C87.8821 17.5583 87.8718 17.5787 87.8667 17.5991C87.8564 17.6144 87.8564 17.6347 87.8564 17.65C87.8564 17.7009 87.8821 17.7467 87.9343 17.7824C87.9865 17.8231 88.0593 17.8537 88.1483 17.8842C88.2417 17.9148 88.3461 17.9454 88.4659 17.9708C88.5909 17.9963 88.7159 18.0268 88.852 18.0523C88.9873 18.0828 89.1277 18.1134 89.274 18.1439C89.4196 18.1796 89.5608 18.2203 89.6961 18.2611C89.8314 18.3069 89.9615 18.3578 90.0814 18.4189C90.2012 18.4749 90.3056 18.5462 90.3998 18.6226C90.488 18.7041 90.5608 18.7957 90.613 18.8976Z" fill="black" fill-opacity="0.75"/>
<path d="M95.7314 19.7485C95.7939 19.9114 95.8351 20.0947 95.8513 20.3035H94.8557C94.8402 20.11 94.7932 19.942 94.7152 19.7994C94.6366 19.6517 94.5432 19.5295 94.4233 19.4226C94.3086 19.3207 94.1777 19.2342 94.027 19.1629C93.8807 19.0967 93.7299 19.0407 93.5785 18.9999C93.4226 18.9592 93.2711 18.9337 93.1152 18.9184C92.9638 18.8981 92.8233 18.893 92.6873 18.893H92.4005V20.3035H91.4263V16.7695H92.4005V18.1342H92.5991C92.7344 18.1342 92.8748 18.1241 93.0211 18.1037C93.1719 18.0833 93.3182 18.0477 93.4586 18.0069C93.6049 17.9611 93.7454 17.9051 93.8755 17.8338C94.0116 17.7625 94.1314 17.6759 94.2351 17.5741C94.3395 17.4723 94.4285 17.3551 94.5013 17.2227C94.5689 17.0903 94.6108 16.9427 94.6314 16.7695H95.627C95.6064 16.9579 95.5697 17.126 95.5123 17.2788C95.4498 17.4264 95.377 17.5639 95.2932 17.681C95.2049 17.8032 95.1108 17.9051 95.0013 17.9968C94.8976 18.0833 94.788 18.1597 94.6733 18.2259C94.5586 18.287 94.4491 18.343 94.3395 18.3838C94.2248 18.4245 94.1204 18.4551 94.027 18.4805C94.1469 18.5009 94.277 18.5263 94.4072 18.5671C94.5432 18.6078 94.6733 18.6638 94.8035 18.73C94.9336 18.7962 95.0586 18.8726 95.1733 18.9694C95.2932 19.0661 95.3976 19.1782 95.4969 19.3055C95.5902 19.4379 95.6689 19.5804 95.7314 19.7485Z" fill="black" fill-opacity="0.75"/>
<path d="M97.5565 20.3035H96.5823V16.7695H97.5565V20.3035Z" fill="black" fill-opacity="0.75"/>
<path d="M100.059 19.4988H101.909V20.283H99.8557C99.5741 20.283 99.3293 20.2576 99.1307 20.2117C98.9329 20.171 98.7712 20.0997 98.6462 20.0029C98.516 19.9062 98.4278 19.7891 98.3704 19.6414C98.3131 19.4988 98.2866 19.3206 98.2866 19.122V16.749H99.2616V18.7706C99.2616 18.9183 99.2719 19.0405 99.3028 19.1322C99.3293 19.2238 99.3763 19.3002 99.4388 19.3562C99.5013 19.4072 99.5844 19.4479 99.6837 19.4683C99.7874 19.4886 99.9131 19.4988 100.059 19.4988Z" fill="black" fill-opacity="0.75"/>
<path d="M104.41 19.4988H106.26V20.283H104.207C103.926 20.283 103.681 20.2576 103.482 20.2117C103.285 20.171 103.123 20.0997 102.998 20.0029C102.868 19.9062 102.779 19.7891 102.722 19.6414C102.665 19.4988 102.638 19.3206 102.638 19.122V16.749H103.613V18.7706C103.613 18.9183 103.623 19.0405 103.654 19.1322C103.681 19.2238 103.727 19.3002 103.79 19.3562C103.853 19.4072 103.936 19.4479 104.035 19.4683C104.139 19.4886 104.265 19.4988 104.41 19.4988Z" fill="black" fill-opacity="0.75"/>
<path d="M110.731 18.8976C110.783 18.9994 110.81 19.1166 110.81 19.249C110.81 19.4221 110.783 19.5647 110.721 19.6869C110.658 19.8091 110.575 19.9109 110.476 19.9975C110.372 20.079 110.252 20.1452 110.116 20.1961C109.981 20.247 109.84 20.2878 109.694 20.3132C109.543 20.3387 109.392 20.3591 109.241 20.3692C109.09 20.3743 108.949 20.3794 108.808 20.3794C108.454 20.3794 108.12 20.354 107.818 20.2929C107.511 20.2368 107.244 20.1656 107.01 20.079V19.2388C107.25 19.3661 107.526 19.4679 107.833 19.5443C108.141 19.6156 108.469 19.6512 108.819 19.6512C109.027 19.6512 109.194 19.6411 109.324 19.6207C109.455 19.6003 109.558 19.5698 109.632 19.5392C109.705 19.5036 109.757 19.4679 109.783 19.4272C109.809 19.3915 109.825 19.3508 109.825 19.3152C109.825 19.2591 109.798 19.2082 109.741 19.1675C109.689 19.1267 109.621 19.0911 109.527 19.0555C109.439 19.0249 109.33 18.9994 109.21 18.9689C109.089 18.9434 108.959 18.918 108.824 18.8925C108.689 18.867 108.547 18.8365 108.407 18.8059C108.261 18.7754 108.12 18.7397 107.985 18.6939C107.85 18.6532 107.719 18.6073 107.599 18.5513C107.479 18.4953 107.375 18.4291 107.281 18.3527C107.192 18.2763 107.119 18.1847 107.067 18.0879C107.015 17.9861 106.989 17.869 106.989 17.7366C106.989 17.5838 107.015 17.4463 107.072 17.3343C107.125 17.2223 107.203 17.1255 107.297 17.044C107.396 16.9676 107.505 16.9014 107.63 16.8505C107.755 16.7996 107.886 16.764 108.027 16.7334C108.167 16.7079 108.308 16.6876 108.449 16.6774C108.589 16.6672 108.725 16.6621 108.85 16.6621C108.991 16.6621 109.136 16.6723 109.283 16.6825C109.433 16.6978 109.58 16.7181 109.725 16.7436C109.866 16.769 110.007 16.7945 110.142 16.8302C110.272 16.8607 110.398 16.8964 110.513 16.932V17.7467C110.444 17.7162 110.356 17.6806 110.241 17.6398C110.127 17.5991 110.002 17.5583 109.861 17.5227C109.72 17.482 109.564 17.4514 109.397 17.431C109.23 17.4056 109.058 17.3903 108.881 17.3903C108.746 17.3903 108.626 17.3954 108.527 17.4056C108.427 17.4107 108.339 17.4259 108.277 17.4361C108.209 17.4514 108.152 17.4667 108.115 17.4871C108.073 17.5023 108.042 17.5227 108.021 17.538C108 17.5583 107.99 17.5787 107.985 17.5991C107.975 17.6144 107.975 17.6347 107.975 17.65C107.975 17.7009 108 17.7467 108.052 17.7824C108.105 17.8231 108.177 17.8537 108.266 17.8842C108.36 17.9148 108.464 17.9454 108.584 17.9708C108.709 17.9963 108.834 18.0268 108.969 18.0523C109.105 18.0828 109.246 18.1134 109.392 18.1439C109.538 18.1796 109.678 18.2203 109.814 18.2611C109.95 18.3069 110.08 18.3578 110.2 18.4189C110.319 18.4749 110.424 18.5462 110.518 18.6226C110.606 18.7041 110.679 18.7957 110.731 18.8976Z" fill="black" fill-opacity="0.75"/>
<path d="M64.4861 23.2383H111.381V24.668H64.4861V23.2383Z" fill="#B7DE43"/>
<path d="M80.9788 27.5273H85.6555V44.6842H80.9788V37.5293H69.1378V44.6842H64.4861V27.5273H69.1378V33.7662H80.9788V27.5273Z" fill="black"/>
<path d="M102.352 27.5273L111.382 44.6842H106.183L104.566 41.4409H94.9639L93.322 44.6842H88.1477L97.1529 27.5273H102.352ZM96.6301 38.0987H102.924L99.7896 31.7609L96.6301 38.0987Z" fill="black"/>
</g>
<defs>
<clipPath id="clip0_81_609">
<rect width="100" height="28.6765" fill="white" transform="translate(11.8718 16.6621)"/>
</clipPath>
</defs>
</svg>
