<svg width="124" height="62" viewBox="0 0 124 62" fill="none" xmlns="http://www.w3.org/2000/svg">
<g clip-path="url(#clip0_81_588)">
<mask id="mask0_81_588" style="mask-type:luminance" maskUnits="userSpaceOnUse" x="32" y="7" width="59" height="48">
<path d="M90.9091 7H32.7273V54.6671H90.9091V7Z" fill="white"/>
</mask>
<g mask="url(#mask0_81_588)">
<path d="M90.9091 24.8654V24.8565L90.9061 24.8446V24.8147L90.9032 24.8028L90.9002 24.7878V24.7759L90.8942 24.7641V24.7521L90.8912 24.7402V24.7372L90.8852 24.7253V24.7103L90.8792 24.6984V24.6865L90.8733 24.6746L90.8674 24.6596L90.8554 24.6358V24.6268L90.8494 24.6149V24.603L90.8434 24.5881L90.8345 24.5791L90.8226 24.5553V24.5463L90.8136 24.5344L90.8076 24.5254L90.8016 24.5135L90.7957 24.5045L90.7898 24.4926L90.7837 24.4837L90.7748 24.4717L90.7688 24.4628V24.4509H90.7628L90.7539 24.4389V24.43H90.7479L90.739 24.4181L90.733 24.4092L90.724 24.3942L90.7151 24.3853L90.7061 24.3733L90.6971 24.3644L90.6912 24.3554L90.6793 24.3435L90.6673 24.3257L90.6583 24.3196L90.6494 24.3107L90.6434 24.3017L90.6255 24.2838L90.6166 24.2719L90.6076 24.266L90.6017 24.257L90.5897 24.2481L90.5778 24.2421L90.5688 24.2332L90.5569 24.2242L90.5479 24.2182L90.524 24.2004L90.5151 24.1943L90.5031 24.1854L90.4941 24.1764H90.4853L90.4733 24.1646L90.4613 24.1556L90.4524 24.1496L90.4405 24.1407L90.4165 24.1287L90.4076 24.1198L90.3957 24.1139L90.3866 24.1049L90.3717 24.0989L90.3598 24.093L90.3449 24.087L90.336 24.0811L90.3121 24.0691L90.2972 24.0631L90.2613 24.0452H90.2524L90.2374 24.0393H90.2255L90.2106 24.0303H90.1986L90.1867 24.0244H90.1748L90.1568 24.0184H90.1479L90.133 24.0124H90.1181L90.1061 24.0065H90.0941L90.0822 24.0005H90.0553L90.0434 23.9945H89.9628L89.9091 23.9916H89.8971L89.8703 23.9945H89.8165L89.8046 24.0005H89.7777L89.7658 24.0065H89.7538L89.7389 24.0124H89.724L89.712 24.0184H89.6971L89.6882 24.0244L89.6732 24.0303H89.6613L89.6493 24.0363H89.6374V24.0393H89.6284L89.5687 24.0691L89.5538 24.0751L89.5418 24.0811L89.533 24.087H89.521L89.509 24.0989L89.4971 24.1049L89.4882 24.1139L89.4762 24.1198L89.4642 24.1287H89.4553V24.1318L89.4434 24.1407L89.4314 24.1467L89.4225 24.1526L89.3986 24.1705H89.3896V24.1764L89.3746 24.1854L89.3658 24.1943L89.3568 24.2004L89.3359 24.2212L89.3269 24.2271L89.315 24.2332L89.3061 24.2421L89.297 24.2481L89.2881 24.257L89.2762 24.266L89.2672 24.2719L89.2583 24.2838L89.2463 24.2928L89.2374 24.3017L89.2285 24.3137L89.1926 24.3494L89.1866 24.3614L89.1657 24.3822L89.1597 24.3942L89.1538 24.4032L89.1448 24.4181L89.1389 24.427L89.1298 24.4389L89.112 24.4748L89.1061 24.4837L89.097 24.4956L89.0852 24.5195L89.0762 24.5284L89.0702 24.5433V24.5523L89.0582 24.5642V24.5732L89.0463 24.597L89.0404 24.606L89.0344 24.6209V24.6358L89.0284 24.6447V24.6686L89.0194 24.6835V24.6954L89.0105 24.7074V24.7193L89.0045 24.7312V24.7462L88.9986 24.7581V24.77L88.9925 24.7819V24.7939L88.9896 24.8058V24.8177H88.9866V24.8684H88.9837V25.0504L88.9866 25.0652V25.1011L88.9896 25.116V25.1279L88.9925 25.1428V25.1548L88.9986 25.1667V25.1786L89.0045 25.1935V25.2054L89.0165 25.2294V25.2412L89.0284 25.2651V25.277L89.0344 25.2889V25.2979L89.0404 25.3129L89.0463 25.3218L89.0582 25.3457V25.3575H89.0613L89.0672 25.3694V25.3814H89.0732L89.0792 25.3934L89.0881 25.4053L89.0941 25.4142L89.1001 25.4262L89.109 25.4351V25.447H89.1149L89.121 25.459L89.1329 25.4769L89.1418 25.4918L89.1508 25.5007L89.1568 25.5097L89.1657 25.5216L89.1746 25.5305L89.1837 25.5425L89.1926 25.5515L89.1986 25.5633L89.2075 25.5724L89.2165 25.5843L89.2434 25.6111L89.2522 25.623L89.2613 25.629L89.2881 25.6558L89.297 25.6618L89.309 25.6708L89.3179 25.6796L89.3299 25.6886L89.3418 25.6946L89.3478 25.7036L89.3598 25.7124L89.3687 25.7184L89.3777 25.7274L89.3866 25.7334L89.3956 25.7423L89.4045 25.7483L89.4165 25.7542L89.4285 25.7632L89.4403 25.7692L89.4493 25.7751L89.4613 25.7841L89.4851 25.796L89.4941 25.802L89.518 25.8139L89.5299 25.8229H89.5418L89.5508 25.8288H89.5627L89.5717 25.8348L89.5837 25.8407H89.5956L89.6075 25.8497H89.6224L89.6314 25.8557L89.6434 25.8617H89.6583L89.6672 25.8676H89.6822L89.6912 25.8765H89.7061L89.715 25.8795H89.7299V25.8854H89.7538L89.7658 25.8914H89.7777L89.7927 25.8974H90.0673L90.0762 25.8914H90.0911L90.1032 25.8854H90.1181L90.133 25.8795H90.1419L90.1598 25.8765H90.1688L90.1837 25.8676H90.1926L90.2046 25.8617H90.2076L90.2196 25.8557H90.2314L90.2405 25.8497L90.2524 25.8437H90.2643V25.8407L90.2762 25.8318L90.2882 25.8258H90.3001L90.309 25.8169H90.3181L90.333 25.8079L90.3807 25.7841L90.3897 25.7781L90.4016 25.7692L90.4255 25.7572L90.4345 25.7483L90.4524 25.7364H90.4554L90.4643 25.7244H90.4733L90.4941 25.7036L90.5181 25.6856L90.527 25.6796L90.5389 25.6708L90.5598 25.6499L90.5688 25.6439L90.5867 25.626L90.5927 25.6171L90.6017 25.6111L90.6106 25.5991L90.6166 25.5902L90.6255 25.5843L90.6345 25.5724L90.6464 25.5544L90.6583 25.5455L90.6643 25.5335L90.6822 25.5156L90.6912 25.5037L90.6971 25.4948L90.7031 25.4828L90.7121 25.4709L90.7181 25.459L90.727 25.45L90.739 25.4262L90.7479 25.4172L90.7539 25.4022L90.7599 25.3934L90.7688 25.3814L90.7748 25.3694L90.7808 25.3546L90.7867 25.3457L90.7898 25.3307L90.8016 25.3069L90.8076 25.2979L90.8136 25.283V25.2741L90.8226 25.2622V25.2502L90.8405 25.2144V25.1876L90.8464 25.1756V25.1636L90.8524 25.1518V25.1249L90.8584 25.113V25.1011L90.8643 25.0892V25.0652H90.8674V25.0414H90.8703V24.8684L90.9091 24.8654ZM90.745 24.937V24.9908L90.7419 25.0026V25.0473L90.739 25.0683V25.0772L90.733 25.1011L90.727 25.122V25.1339L90.721 25.1428V25.1488L90.7121 25.1726V25.1816L90.6942 25.2233V25.2353L90.6822 25.2561V25.2622H90.6762V25.271H90.6733V25.283L90.6673 25.2919V25.2979L90.6554 25.3247V25.3337L90.6434 25.3426L90.6314 25.3606L90.6166 25.3904L90.6106 25.3964V25.4022L90.6046 25.4082V25.4142H90.5986L90.5927 25.4262H90.5867L90.5808 25.441L90.5747 25.453L90.5598 25.4679L90.5509 25.4739L90.5449 25.4828L90.536 25.4918L90.521 25.5097L90.4822 25.5484L90.4733 25.5544L90.4673 25.5604L90.4494 25.5753L90.4405 25.5843L90.4314 25.5902L90.4106 25.6111H90.3986L90.3897 25.623L90.3748 25.632L90.3629 25.6409L90.3479 25.6499H90.3419L90.3181 25.6648L90.3121 25.6708H90.3061L90.3031 25.6737L90.2941 25.6796H90.2852L90.2792 25.6856H90.2762L90.2524 25.6946L90.2434 25.7006H90.2314L90.2136 25.7095L90.1957 25.7155H90.1807L90.1568 25.7244H90.1359L90.124 25.7304H90.1032L90.0792 25.7393H90.0524L90.0255 25.7483H89.8762L89.8523 25.7423H89.7956L89.7777 25.7334H89.7688L89.7568 25.7274H89.7479L89.727 25.7214H89.715L89.6971 25.7124L89.6732 25.7065H89.6642L89.6374 25.6886H89.6344L89.6284 25.6827H89.6195L89.6075 25.6737H89.6016V25.6708L89.5777 25.6618L89.5658 25.6558H89.5568L89.5389 25.6439L89.5299 25.6349L89.512 25.623L89.5001 25.614H89.4911L89.4851 25.6052L89.4732 25.5961L89.4672 25.5902L89.4553 25.5812L89.4464 25.5724L89.4106 25.5484L89.3866 25.5246L89.3717 25.5127L89.3598 25.4948L89.3478 25.4858V25.4798L89.3329 25.4709L89.3179 25.456V25.447H89.315L89.3061 25.4351L89.3001 25.4292L89.2941 25.4172V25.4113L89.2851 25.4053V25.3993L89.2791 25.3934L89.2642 25.3635L89.2522 25.3457L89.2463 25.3397L89.2285 25.3038V25.2979L89.2225 25.2889V25.283H89.2194V25.2741L89.2075 25.2532V25.2442L89.1926 25.2144L89.1866 25.1935V25.1846L89.1777 25.1607V25.1518L89.1746 25.1428V25.1308L89.1687 25.11L89.1627 25.0861V25.0772L89.1597 25.0564L89.1538 25.0355V24.8833L89.1597 24.8595V24.8326L89.1657 24.8028V24.7878L89.1717 24.7759V24.767L89.1746 24.7581L89.1806 24.7342V24.7222L89.1986 24.6806L89.2045 24.6716L89.2105 24.6477V24.6418H89.2165V24.6298L89.2194 24.6209L89.2254 24.6119V24.6L89.2403 24.5791L89.2463 24.5672L89.2522 24.5612L89.2702 24.5344L89.2851 24.5045L89.2911 24.4956L89.297 24.4897L89.303 24.4777L89.3179 24.4628V24.4538L89.3389 24.4389L89.3449 24.4329L89.3509 24.4241L89.3627 24.415L89.3777 24.4001L89.3926 24.3882L89.4285 24.3524H89.4344L89.4523 24.3316L89.4583 24.3257L89.4702 24.3196V24.3137L89.4822 24.3077L89.4882 24.3017L89.4971 24.2958L89.5269 24.2809L89.5538 24.263H89.5627V24.2599L89.5866 24.2481H89.5986L89.6046 24.2391L89.6135 24.2332H89.6195L89.6314 24.2242L89.6493 24.2182H89.6583L89.6672 24.2093L89.6912 24.2004L89.709 24.1943H89.721L89.7419 24.1854H89.7508L89.7628 24.1795H89.7717L89.7896 24.1735H89.8165V24.1705H89.8255L89.8463 24.1646H89.8703L89.8822 24.1586H90.0463L90.0673 24.1646H90.1001L90.121 24.1735H90.133L90.1419 24.1795H90.1509L90.1748 24.1854H90.1897L90.2255 24.2033H90.2374L90.2554 24.2153H90.2643L90.2762 24.2242H90.2941V24.2302H90.3031L90.321 24.2451L90.333 24.251H90.3389L90.3538 24.266L90.3688 24.2719L90.3837 24.2809L90.3927 24.2868L90.4046 24.2958L90.4106 24.3017L90.4195 24.3077L90.4255 24.3137L90.4374 24.3196L90.4464 24.3257L90.4613 24.3405L90.4703 24.3465L90.5419 24.4181L90.5479 24.427L90.5569 24.436L90.5718 24.4538L90.5778 24.4628L90.5927 24.4777L90.5986 24.4897L90.6135 24.5045L90.6345 24.5463L90.6464 24.5642L90.6524 24.5702L90.6613 24.594L90.6673 24.606V24.6119L90.6733 24.6238V24.6328L90.6762 24.6388H90.6793L90.6882 24.6626L90.6942 24.6746V24.6835L90.7031 24.7044L90.7091 24.7253V24.7342L90.7181 24.7581V24.767L90.724 24.779V24.7909L90.73 24.8058V24.8326H90.733L90.736 24.8386V24.8833L90.739 24.8923V24.937L90.7419 24.9489L90.745 24.937ZM90.1598 25.0026L90.1837 24.9937L90.2136 24.9817L90.2434 24.9668L90.2762 24.94L90.3061 24.9072L90.3479 24.8356L90.3658 24.7819L90.3717 24.7312L90.3658 24.6716L90.3509 24.6179L90.324 24.5702L90.2852 24.5254L90.2374 24.4897L90.1807 24.4598L90.1269 24.4449L90.0524 24.4329L89.93 24.427H89.5359V25.4769H89.7688V25.0593H89.9269L90.13 25.4709V25.4769H90.3837L90.3778 25.4649L90.1538 25.0086L90.1598 25.0026ZM90.1359 24.7462V24.773L90.121 24.7969L90.115 24.8177L90.0971 24.8386L90.0762 24.8535L90.0524 24.8654L90.0255 24.8744H89.7777V24.6H89.9717L90.0315 24.6089L90.0643 24.6209L90.0882 24.6328L90.1061 24.6507L90.1181 24.6656L90.13 24.6894L90.1389 24.7163V24.7431L90.1359 24.7462ZM83.6698 15.888C83.7654 15.1244 84.3057 14.2834 85.1476 14.2625C87.3268 14.2059 86.7058 17.4598 85.1864 17.6775C83.84 17.8684 83.5743 16.6516 83.6698 15.888ZM88.5269 25.6976L88.3478 25.6021L88.2731 25.79C87.6283 27.4214 86.6551 28.4326 86.1237 28.4326C86.0282 28.4326 85.9446 28.3967 85.876 28.3252C85.7536 28.1969 85.5565 27.8331 85.6073 26.819C85.6133 26.6938 85.6192 26.5386 85.6252 26.3597C85.6699 25.2204 85.7626 22.8522 86.2431 19.1211L86.282 18.8139L83.0907 20.0904L83.0818 20.2037C83.0698 20.3439 83.0609 20.4811 83.0489 20.6183C82.9594 21.4743 82.5354 24.5493 80.9323 28.1105C79.6845 30.8812 78.6636 31.4628 78.0248 31.4628C77.153 31.4628 76.5829 30.395 76.4754 30.0073C76.4365 29.8671 76.4008 29.7001 76.3739 29.5122C77.5829 28.2387 78.2994 27.0009 78.8427 25.9601C79.5413 24.6179 83.025 17.6118 83.0877 11.4947C83.1057 9.78569 82.7116 8.47636 81.9504 7.70686C81.4936 7.24457 80.9175 7 80.2845 7C78.8666 7 77.377 8.19898 76.4007 10.1257C74.2991 14.2715 72.9229 22.7239 73.2632 29.3691C73.2693 29.4854 73.2811 29.5898 73.293 29.6972C73.293 29.724 73.299 29.7508 73.3021 29.7807C72.281 30.6486 71.4452 31.1318 70.9288 31.3793C70.9168 29.7061 70.4511 28.2864 69.6362 27.4513C68.8002 26.5983 67.624 26.3447 66.2061 26.7206C65.2538 26.9741 62.9521 28.018 62.1402 32.2293C62.0954 32.471 62.0565 32.6976 62.0267 32.9183C62.0058 32.966 61.9968 33.0198 61.9938 33.0823C61.8506 35.0896 61.4655 36.211 60.7162 37.8246C60.146 39.0504 59.325 39.7126 58.8414 39.7126C58.713 39.7126 58.6086 39.6678 58.5221 39.5753C58.313 39.3457 58.2354 38.8506 58.3011 38.1766C58.4026 37.1118 58.713 33.491 59.2445 27.1143L63.4387 25.4262L63.6805 22.715L59.4564 24.5612C59.6176 22.6076 59.731 21.2476 59.731 21.2476L59.7549 20.9434L56.513 22.3661L56.504 22.4734C56.504 22.4734 56.3906 23.9319 56.2293 25.972L52.7097 27.511L52.5037 29.8314L56.0382 28.4087C55.9189 29.9238 55.7875 31.5433 55.6681 33.0317C53.5634 34.508 51.5066 36.0321 49.5543 37.5622C48.3094 36.8463 46.7631 36.1275 44.6973 35.3103C37.658 32.5216 36.8102 30.246 36.5684 28.3311C36.3325 26.4552 37.3296 20.3171 44.7659 16.8245C46.5779 15.9745 48.2945 15.542 49.8737 15.542C51.8887 15.542 53.6501 16.2727 54.8322 17.597L54.9546 17.7312L57.2562 15.6881L57.1697 15.5569C56.2413 14.1283 53.8322 12.4581 50.1035 12.4581C47.9542 12.4581 45.7152 13.0098 43.4464 14.1014C39.9626 15.7776 37.1147 18.1697 35.2131 21.018C33.4458 23.6605 32.5711 26.6371 32.7502 29.3989C33.1055 34.9076 37.7505 36.7598 43.13 38.9102C43.7718 39.1638 44.4226 39.4262 45.0853 39.6976C45.4914 39.8646 45.8884 40.0406 46.2735 40.2255C42.8374 43.1216 40.088 45.8118 38.5118 47.8191C36.7296 50.0888 36.1206 51.765 36.652 52.9431C37.1087 53.9512 38.4133 54.5239 40.5298 54.6492C40.7537 54.6611 40.9806 54.667 41.2074 54.667C46.7183 54.667 53.5306 50.6942 54.056 45.5733C54.3575 42.6355 53.5993 40.6282 51.5246 38.8983C53.3576 37.4965 54.8143 36.5182 55.4173 36.1246C55.3487 36.9716 55.289 37.6546 55.2502 38.0692C55.083 39.8945 55.3904 41.3828 56.095 42.1553C56.701 42.8174 57.5816 42.9725 58.6713 42.5937C60.7252 41.8838 61.9998 39.3905 62.6387 37.7262C63.2834 38.8417 64.3284 39.4501 65.6389 39.4561C68.3346 39.4561 70.0511 37.4249 70.7407 33.4164C71.8094 32.9094 72.7856 32.3636 73.6454 31.7909C74.3917 34.3172 75.9589 34.7019 76.8456 34.7019C77.9621 34.7019 79.1532 34.1203 80.0308 33.145C81.1652 31.8894 82.025 30.0789 82.5503 28.7756C82.7773 30.4518 83.6161 31.3972 84.9177 31.3972C85.255 31.3972 85.6282 31.3346 86.0282 31.2093C87.5746 30.7261 88.9866 28.4743 89.721 26.6938L89.7747 26.5655L89.6642 26.479C89.1866 26.1121 88.8045 25.8526 88.5239 25.7006L88.5269 25.6976ZM49.9245 47.4999C47.9631 50.4437 45.1898 51.8753 41.4433 51.8753C41.3 51.8753 41.1627 51.8753 41.0313 51.8694C40.4791 51.8574 40.1447 51.7143 40.0373 51.4489C39.7925 50.8404 40.4194 49.1881 44.8048 44.762C45.8824 43.6704 47.0885 42.5549 48.387 41.4394C50.9006 43.214 51.417 45.2541 49.9245 47.497V47.4999ZM68.1704 32.7274C67.8808 35.3252 67.042 36.8105 65.9673 36.6494C65.1881 36.5302 64.4985 35.4147 64.8955 32.635C65.215 30.3891 65.821 29.202 66.7493 29.0022C66.842 28.9814 66.9314 28.9724 67.0151 28.9724C67.2927 28.9724 67.5256 29.0768 67.7136 29.2856C68.054 29.6673 68.4093 30.571 68.1674 32.7244L68.1704 32.7274ZM78.0754 12.6131C78.6397 10.8863 79.2487 10.2719 79.601 10.2719C79.6965 10.2719 79.786 10.3166 79.8696 10.4061C80.2129 10.767 80.3771 11.7035 80.3114 12.9084C80.1114 16.5322 79.5054 19.9324 77.1829 24.7521C76.9142 25.3098 76.6007 25.8617 76.2515 26.4044C76.344 21.9008 77.2098 15.2646 78.0754 12.6131ZM65.6926 43.6673H66.9554L65.6926 50.3721H64.4477L63.1163 43.6673H64.4269L65.0836 48.1025L65.6926 43.6673ZM70.9138 43.9447C70.6004 43.6883 70.1257 43.5273 69.5167 43.5273C68.7555 43.5273 68.2509 43.7659 67.9943 44.0402C67.651 44.4011 67.642 44.9052 67.642 45.1885V48.9405C67.642 49.7965 68.0121 50.5183 69.5257 50.5183C69.9735 50.5183 70.6004 50.4617 71.0004 50.0441C71.2661 49.7786 71.3616 49.4356 71.3616 48.9436V45.2213C71.3616 44.5741 71.2482 44.2252 70.9138 43.9478V43.9447ZM70.1138 48.7586C70.1138 49.0807 70.1138 49.546 69.5048 49.546C68.8958 49.546 68.8779 49.1105 68.8779 48.7288V45.3466C68.8779 44.9767 68.8779 44.4638 69.5138 44.4638C70.1138 44.4638 70.1138 44.9469 70.1138 45.2988V48.7586ZM74.5917 43.6673H72.5945V50.3721H74.5827C76.141 50.3721 76.2843 49.4982 76.2843 48.5678V45.4331C76.2843 44.9022 76.2366 44.4458 75.8843 44.0849C75.4753 43.6673 74.9917 43.6673 74.5917 43.6673ZM75.0574 48.675C75.0574 48.9227 75.0574 49.3104 74.6096 49.379C74.505 49.3969 74.4096 49.3969 73.8304 49.3969V44.6486H74.3141C74.8544 44.6486 75.0544 44.7352 75.0544 45.3316V48.675H75.0574ZM79.8278 46.5665L81.3981 50.3752H80.0577L78.7472 47.0973V50.3752H77.4933V43.6704H78.7472V46.2831L80.0875 43.6704H81.3533L79.8338 46.5665H79.8278ZM83.1653 43.6673L81.8638 50.3721H83.0997L83.2818 49.2805H84.4221L84.5834 50.3721H85.8371L84.5834 43.6673H83.1653ZM83.4311 48.2456L83.8789 45.3675L84.2878 48.2456H83.4311Z" fill="#E11A27"/>
</g>
</g>
<defs>
<clipPath id="clip0_81_588">
<rect width="58.1818" height="48" fill="white" transform="translate(32.7273 7)"/>
</clipPath>
</defs>
</svg>
