<svg width="80" height="66" viewBox="0 0 80 66" fill="none" xmlns="http://www.w3.org/2000/svg">
<g clip-path="url(#clip0_1467_3)">
<path d="M80 24.5645V24.5522L79.9959 24.5358V24.4947L79.9918 24.4784L79.9877 24.4578V24.4414L79.9795 24.4251V24.4087L79.9753 24.3923V24.3881L79.9671 24.3718V24.3512L79.9589 24.3348V24.3185L79.9507 24.3021L79.9426 24.2815L79.9261 24.2488V24.2364L79.9179 24.22V24.2036L79.9097 24.1831L79.8974 24.1708L79.881 24.138V24.1257L79.8686 24.1093L79.8604 24.097L79.8522 24.0806L79.8441 24.0682L79.8359 24.0518L79.8276 24.0396L79.8153 24.0231L79.807 24.0109V23.9945H79.7988L79.7866 23.978V23.9658H79.7783L79.7661 23.9494L79.7578 23.9371L79.7455 23.9165L79.7332 23.9043L79.7209 23.8878L79.7085 23.8756L79.7003 23.8632L79.684 23.8468L79.6675 23.8223L79.6552 23.814L79.6429 23.8017L79.6347 23.7894L79.61 23.7648L79.5978 23.7484L79.5854 23.7402L79.5773 23.7279L79.5608 23.7156L79.5444 23.7074L79.5321 23.6951L79.5157 23.6828L79.5033 23.6746L79.4705 23.65L79.4582 23.6417L79.4417 23.6295L79.4294 23.6171H79.4172L79.4007 23.6008L79.3843 23.5884L79.372 23.5802L79.3556 23.568L79.3227 23.5515L79.3104 23.5393L79.294 23.5311L79.2816 23.5187L79.2611 23.5105L79.2447 23.5024L79.2242 23.4942L79.2119 23.486L79.1791 23.4695L79.1586 23.4613L79.1093 23.4367H79.097L79.0764 23.4285H79.0601L79.0395 23.4162H79.023L79.0067 23.408H78.9903L78.9656 23.3998H78.9533L78.9328 23.3916H78.9123L78.8958 23.3834H78.8794L78.863 23.3752H78.826L78.8096 23.367H78.6988L78.625 23.3629H78.6085L78.5716 23.367H78.4976L78.4813 23.3752H78.4443L78.4279 23.3834H78.4115L78.3909 23.3916H78.3704L78.354 23.3998H78.3335L78.3212 23.408L78.3006 23.4162H78.2842L78.2678 23.4244H78.2514V23.4285H78.239L78.157 23.4695L78.1365 23.4778L78.12 23.486L78.1078 23.4942H78.0913L78.0749 23.5105L78.0585 23.5187L78.0462 23.5311L78.0297 23.5393L78.0133 23.5515H78.001V23.5557L77.9846 23.568L77.9682 23.5762L77.9559 23.5844L77.923 23.609H77.9107V23.6171L77.8901 23.6295L77.8779 23.6417L77.8655 23.65L77.8368 23.6786L77.8245 23.6868L77.8081 23.6951L77.7958 23.7074L77.7834 23.7156L77.7711 23.7279L77.7547 23.7402L77.7424 23.7484L77.7301 23.7648L77.7136 23.7771L77.7014 23.7894L77.6891 23.8058L77.6398 23.855L77.6316 23.8714L77.6028 23.9001L77.5946 23.9165L77.5864 23.9289L77.5741 23.9494L77.5659 23.9616L77.5535 23.978L77.529 24.0273L77.5208 24.0396L77.5084 24.056L77.4921 24.0888L77.4797 24.1011L77.4715 24.1216V24.1339L77.455 24.1503V24.1626L77.4387 24.1954L77.4305 24.2077L77.4223 24.2282V24.2488L77.414 24.261V24.2939L77.4017 24.3143V24.3307L77.3894 24.3472V24.3636L77.3812 24.3799V24.4005L77.373 24.4169V24.4332L77.3647 24.4496V24.4661L77.3607 24.4825V24.4989H77.3565V24.5686H77.3525V24.8188L77.3565 24.8392V24.8885L77.3607 24.909V24.9254L77.3647 24.9459V24.9623L77.373 24.9787V24.9951L77.3812 25.0156V25.032L77.3976 25.0649V25.0812L77.414 25.114V25.1304L77.4223 25.1468V25.1591L77.4305 25.1797L77.4387 25.192L77.455 25.2248V25.2411H77.4592L77.4674 25.2575V25.2739H77.4756L77.4838 25.2904L77.4961 25.3068L77.5043 25.3191L77.5126 25.3355L77.5248 25.3478V25.3642H77.533L77.5413 25.3806L77.5577 25.4052L77.57 25.4257L77.5823 25.438L77.5906 25.4503L77.6028 25.4667L77.6151 25.479L77.6275 25.4954L77.6398 25.5078L77.648 25.5241L77.6603 25.5365L77.6726 25.5529L77.7096 25.5898L77.7218 25.6062L77.7342 25.6144L77.7711 25.6513L77.7834 25.6595L77.7999 25.6718L77.8121 25.684L77.8286 25.6964L77.845 25.7046L77.8532 25.7169L77.8697 25.7291L77.8819 25.7373L77.8943 25.7497L77.9066 25.7579L77.9189 25.7702L77.9312 25.7784L77.9477 25.7866L77.9641 25.7989L77.9804 25.8071L77.9928 25.8153L78.0093 25.8276L78.042 25.844L78.0544 25.8522L78.0872 25.8686L78.1036 25.881H78.12L78.1323 25.8891H78.1487L78.1611 25.8973L78.1775 25.9055H78.1939L78.2103 25.9179H78.2308L78.2432 25.9261L78.2596 25.9343H78.2801L78.2924 25.9425H78.313L78.3253 25.9547H78.3458L78.3581 25.9588H78.3786V25.967H78.4115L78.4279 25.9752H78.4443L78.4649 25.9834H78.8425L78.8547 25.9752H78.8753L78.8918 25.967H78.9123L78.9328 25.9588H78.9451L78.9697 25.9547H78.9821L79.0025 25.9425H79.0148L79.0313 25.9343H79.0354L79.0519 25.9261H79.0682L79.0806 25.9179L79.097 25.9096H79.1134V25.9055L79.1298 25.8932L79.1462 25.885H79.1626L79.1749 25.8727H79.1873L79.2078 25.8604L79.2734 25.8276L79.2858 25.8194L79.3022 25.8071L79.335 25.7907L79.3474 25.7784L79.372 25.762H79.3761L79.3884 25.7455H79.4007L79.4294 25.7169L79.4623 25.6922L79.4746 25.684L79.491 25.6718L79.5197 25.6431L79.5321 25.6349L79.5567 25.6102L79.5649 25.598L79.5773 25.5898L79.5895 25.5733L79.5978 25.5611L79.61 25.5529L79.6224 25.5365L79.6387 25.5118L79.6552 25.4996L79.6634 25.4831L79.688 25.4585L79.7003 25.4421L79.7085 25.4298L79.7168 25.4134L79.7291 25.397L79.7373 25.3806L79.7496 25.3683L79.7661 25.3355L79.7783 25.3232L79.7866 25.3026L79.7948 25.2904L79.807 25.2739L79.8153 25.2575L79.8235 25.2371L79.8317 25.2248L79.8359 25.2042L79.8522 25.1715L79.8604 25.1591L79.8686 25.1386V25.1264L79.881 25.11V25.0935L79.9056 25.0443V25.0074L79.9138 24.991V24.9745L79.922 24.9582V24.9212L79.9302 24.9049V24.8885L79.9384 24.8721V24.8392H79.9426V24.8065H79.9466V24.5686L80 24.5645ZM79.7743 24.6629V24.7368L79.7701 24.7531V24.8146L79.7661 24.8434V24.8557L79.7578 24.8885L79.7496 24.9172V24.9336L79.7414 24.9459V24.9541L79.7291 24.9869V24.9992L79.7045 25.0566V25.0731L79.688 25.1017V25.11H79.6798V25.1222H79.6758V25.1386L79.6675 25.1509V25.1591L79.6511 25.196V25.2084L79.6347 25.2206L79.6182 25.2453L79.5978 25.2863L79.5895 25.2945V25.3026L79.5813 25.3108V25.3191H79.5731L79.5649 25.3355H79.5567L79.5485 25.3559L79.5402 25.3724L79.5197 25.3929L79.5075 25.4011L79.4992 25.4134L79.4869 25.4257L79.4664 25.4503L79.413 25.5036L79.4007 25.5118L79.3925 25.52L79.3679 25.5405L79.3556 25.5529L79.3432 25.5611L79.3145 25.5898H79.2981L79.2858 25.6062L79.2653 25.6185L79.2489 25.6307L79.2283 25.6431H79.2201L79.1873 25.6636L79.1791 25.6718H79.1709L79.1667 25.6758L79.1544 25.684H79.1421L79.1339 25.6922H79.1298L79.097 25.7046L79.0846 25.7128H79.0682L79.0436 25.7251L79.019 25.7333H78.9985L78.9656 25.7455H78.9369L78.9205 25.7538H78.8918L78.8589 25.7661H78.822L78.785 25.7784H78.5798L78.5469 25.7702H78.4689L78.4443 25.7579H78.432L78.4156 25.7497H78.4033L78.3746 25.7415H78.3581L78.3335 25.7291L78.3006 25.721H78.2883L78.2514 25.6964H78.2473L78.239 25.6882H78.2268L78.2103 25.6758H78.2021V25.6718L78.1693 25.6595L78.1529 25.6513H78.1405L78.116 25.6349L78.1036 25.6225L78.0789 25.6062L78.0626 25.5938H78.0502L78.042 25.5816L78.0256 25.5692L78.0174 25.5611L78.001 25.5487L77.9887 25.5365L77.9395 25.5036L77.9066 25.4708L77.8861 25.4545L77.8697 25.4298L77.8532 25.4175V25.4093L77.8327 25.397L77.8121 25.3765V25.3642H77.8081L77.7958 25.3478L77.7876 25.3396L77.7794 25.3232V25.315L77.767 25.3068V25.2986L77.7588 25.2904L77.7383 25.2493L77.7218 25.2248L77.7136 25.2166L77.6891 25.1673V25.1591L77.6809 25.1468V25.1386H77.6767V25.1264L77.6603 25.0976V25.0853L77.6398 25.0443L77.6316 25.0156V25.0033L77.6193 24.9705V24.9582L77.6151 24.9459V24.9294L77.6069 24.9008L77.5987 24.8679V24.8557L77.5946 24.827L77.5864 24.7983V24.5891L77.5946 24.5563V24.5194L77.6028 24.4784V24.4578L77.6111 24.4414V24.4292L77.6151 24.4169L77.6233 24.3841V24.3676L77.648 24.3103L77.6562 24.2979L77.6644 24.2651V24.257H77.6726V24.2405L77.6767 24.2282L77.6849 24.2159V24.1995L77.7054 24.1708L77.7136 24.1544L77.7218 24.1462L77.7465 24.1093L77.767 24.0682L77.7752 24.056L77.7834 24.0478L77.7916 24.0313L77.8121 24.0109V23.9985L77.8409 23.978L77.8492 23.9698L77.8574 23.9576L77.8737 23.9452L77.8943 23.9247L77.9148 23.9083L77.9641 23.8591H77.9722L77.9969 23.8305L78.0051 23.8223L78.0215 23.814V23.8058L78.038 23.7976L78.0462 23.7894L78.0585 23.7812L78.0995 23.7607L78.1365 23.7361H78.1487V23.7319L78.1816 23.7156H78.198L78.2063 23.7033L78.2185 23.6951H78.2268L78.2432 23.6828L78.2678 23.6746H78.2801L78.2924 23.6623L78.3253 23.65L78.3499 23.6417H78.3664L78.3951 23.6295H78.4073L78.4238 23.6213H78.4361L78.4607 23.6131H78.4976V23.609H78.51L78.5387 23.6008H78.5716L78.588 23.5926H78.8137L78.8425 23.6008H78.8876L78.9163 23.6131H78.9328L78.9451 23.6213H78.9574L78.9903 23.6295H79.0108L79.0601 23.6541H79.0764L79.1011 23.6705H79.1134L79.1298 23.6828H79.1544V23.691H79.1667L79.1913 23.7115L79.2078 23.7197H79.216L79.2365 23.7402L79.2571 23.7484L79.2776 23.7607L79.2899 23.7689L79.3063 23.7812L79.3145 23.7894L79.3268 23.7976L79.335 23.8058L79.3514 23.814L79.3638 23.8223L79.3843 23.8427L79.3966 23.8509L79.4951 23.9494L79.5033 23.9616L79.5157 23.974L79.5362 23.9985L79.5444 24.0109L79.5649 24.0313L79.5731 24.0478L79.5936 24.0682L79.6224 24.1257L79.6387 24.1503L79.647 24.1585L79.6593 24.1913L79.6675 24.2077V24.2159L79.6758 24.2323V24.2446L79.6798 24.2528H79.684L79.6963 24.2856L79.7045 24.3021V24.3143L79.7168 24.343L79.725 24.3718V24.3841L79.7373 24.4169V24.4292L79.7455 24.4456V24.462L79.7537 24.4825V24.5194H79.7578L79.7619 24.5276V24.5891L79.7661 24.6014V24.6629L79.7701 24.6793L79.7743 24.6629ZM78.9697 24.7531L79.0025 24.7408L79.0436 24.7244L79.0846 24.7039L79.1298 24.667L79.1709 24.6219L79.2283 24.5235L79.2529 24.4496L79.2611 24.3799L79.2529 24.2979L79.2324 24.2241L79.1955 24.1585L79.1421 24.097L79.0764 24.0478L78.9985 24.0067L78.9245 23.9862L78.822 23.9698L78.6537 23.9616H78.1118V25.4052H78.432V24.831H78.6495L78.9287 25.397V25.4052H79.2776L79.2694 25.3888L78.9615 24.7613L78.9697 24.7531ZM78.9369 24.4005V24.4374L78.9163 24.4702L78.9081 24.4989L78.8835 24.5276L78.8547 24.5481L78.822 24.5645L78.785 24.5768H78.4443V24.1995H78.7111L78.7933 24.2118L78.8384 24.2282L78.8712 24.2446L78.8958 24.2692L78.9123 24.2897L78.9287 24.3225L78.941 24.3594V24.3963L78.9369 24.4005ZM70.046 12.2205C70.1774 11.1706 70.9203 10.0142 72.0779 9.98544C75.0743 9.90756 74.2205 14.3817 72.1312 14.6811C70.28 14.9435 69.9147 13.2704 70.046 12.2205ZM76.7244 25.7087L76.4782 25.5774L76.3755 25.8358C75.4889 28.079 74.1507 29.4693 73.4201 29.4693C73.2888 29.4693 73.1738 29.42 73.0794 29.3216C72.9111 29.1453 72.6402 28.645 72.71 27.2507C72.7182 27.0785 72.7264 26.8651 72.7346 26.6191C72.7961 25.0525 72.9235 21.7963 73.5843 16.666L73.6377 16.2436L69.2497 17.9988L69.2374 18.1546C69.2209 18.3474 69.2087 18.536 69.1922 18.7247C69.0691 19.9017 68.4862 24.1298 66.2819 29.0264C64.5662 32.8362 63.1624 33.6359 62.284 33.6359C61.0854 33.6359 60.3014 32.1677 60.1536 31.6346C60.1002 31.4418 60.051 31.2122 60.0141 30.9538C61.6764 29.2027 62.6616 27.5008 63.4087 26.0696C64.3692 24.2241 69.1594 14.5908 69.2456 6.17971C69.2703 3.82984 68.7284 2.02951 67.6817 0.971444C67.0537 0.335793 66.2615 -0.000488281 65.3912 -0.000488281C63.4415 -0.000488281 61.3933 1.64811 60.051 4.29736C57.1613 9.99778 55.269 21.6199 55.7369 30.757C55.7452 30.9169 55.7615 31.0605 55.7779 31.2081C55.7779 31.245 55.7861 31.2819 55.7903 31.323C54.3864 32.5163 53.2371 33.1807 52.527 33.5211C52.5106 31.2204 51.8703 29.2683 50.7497 28.1201C49.6003 26.9472 47.983 26.5985 46.0334 27.1153C44.7239 27.4639 41.5591 28.8993 40.4427 34.6898C40.3811 35.0221 40.3277 35.3337 40.2867 35.6372C40.2579 35.7028 40.2456 35.7767 40.2415 35.8627C40.0445 38.6227 39.515 40.1647 38.4847 42.3833C37.7007 44.0688 36.5719 44.9793 35.9069 44.9793C35.7304 44.9793 35.5868 44.9178 35.4678 44.7906C35.1804 44.4749 35.0736 43.7941 35.164 42.8673C35.3035 41.4032 35.7304 36.4246 36.4611 27.6567L42.2282 25.3355L42.5607 21.6077L36.7525 24.1462C36.9742 21.46 37.1301 19.59 37.1301 19.59L37.163 19.1717L32.7053 21.1279L32.6929 21.2755C32.6929 21.2755 32.537 23.2809 32.3153 26.086L27.4758 28.2021L27.1926 31.3927L32.0525 29.4365C31.8884 31.5198 31.7078 33.7466 31.5436 35.7931C28.6497 37.823 25.8216 39.9186 23.1371 42.0225C21.4254 41.0382 19.2992 40.0498 16.4587 38.9262C6.77972 35.0917 5.61398 31.9627 5.28149 29.3298C4.95721 26.7504 6.3282 18.3105 16.5531 13.5082C19.0446 12.3395 21.4049 11.7448 23.5763 11.7448C26.347 11.7448 28.7688 12.7495 30.3943 14.5704L30.5626 14.7549L33.7273 11.9457L33.6083 11.7653C32.3317 9.80086 29.0192 7.50434 23.8923 7.50434C20.937 7.50434 17.8584 8.26302 14.7388 9.76395C9.94853 12.0687 6.03266 15.3578 3.41794 19.2742C0.987932 22.9077 -0.214751 27.0005 0.0315335 30.798C0.519997 38.3725 6.90697 40.9193 14.3037 43.8761C15.1862 44.2247 16.0811 44.5855 16.9923 44.9587C17.5506 45.1884 18.0965 45.4304 18.626 45.6846C13.9014 49.6667 10.121 53.3658 7.95368 56.1258C5.50314 59.2466 4.66578 61.5514 5.39642 63.1713C6.02444 64.5574 7.81822 65.3449 10.7285 65.5171C11.0363 65.5335 11.3483 65.5417 11.6602 65.5417C19.2376 65.5417 28.6046 60.0791 29.327 53.0378C29.7416 48.9983 28.699 46.2383 25.8463 43.8597C28.3666 41.9322 30.3696 40.5871 31.1987 40.0458C31.1044 41.2104 31.0223 42.1496 30.969 42.7196C30.7391 45.2294 31.1618 47.2758 32.1306 48.338C32.9639 49.2484 34.1747 49.4617 35.673 48.9408C38.4971 47.9648 40.2497 44.5364 41.1282 42.248C42.0147 43.7818 43.4515 44.6184 45.2534 44.6266C48.96 44.6266 51.3202 41.8338 52.2684 36.322C53.7379 35.6249 55.0802 34.8744 56.2624 34.087C57.2885 37.5606 59.4435 38.0896 60.6626 38.0896C62.1978 38.0896 63.8356 37.2899 65.0423 35.9489C66.6021 34.2224 67.7843 31.733 68.5067 29.9409C68.8187 32.2457 69.9721 33.5457 71.7618 33.5457C72.2256 33.5457 72.7387 33.4596 73.2888 33.2873C75.415 32.6229 77.3565 29.5267 78.3664 27.0785L78.4402 26.9021L78.2883 26.7831C77.6316 26.2787 77.1061 25.9219 76.7203 25.7128L76.7244 25.7087ZM23.6461 55.6869C20.9493 59.7346 17.136 61.7031 11.9845 61.7031C11.7875 61.7031 11.5987 61.7031 11.418 61.6949C10.6587 61.6785 10.1989 61.4817 10.0512 61.1167C9.7146 60.2801 10.5766 58.0082 16.6065 51.9223C18.0883 50.4213 19.7466 48.8875 21.5321 47.3537C24.9883 49.7938 25.6984 52.5989 23.6461 55.6829V55.6869ZM48.7343 35.3747C48.3361 38.9467 47.1827 40.989 45.705 40.7675C44.6336 40.6035 43.6854 39.0697 44.2313 35.2476C44.6706 32.1595 45.5038 30.5273 46.7803 30.2526C46.9077 30.2239 47.0307 30.2116 47.1457 30.2116C47.5274 30.2116 47.8476 30.3551 48.1062 30.6422C48.5742 31.1671 49.0627 32.4097 48.7301 35.3706L48.7343 35.3747ZM62.3537 7.71759C63.1295 5.34312 63.9669 4.49831 64.4513 4.49831C64.5827 4.49831 64.7057 4.55982 64.8207 4.68286C65.2927 5.17908 65.5185 6.46679 65.4281 8.12359C65.1532 13.1063 64.3199 17.7815 61.1265 24.4087C60.757 25.1755 60.326 25.9343 59.8458 26.6806C59.973 20.4881 61.1634 11.3634 62.3537 7.71759ZM45.3273 50.4171H47.0636L45.3273 59.6362H43.6156L41.7849 50.4171H43.5869L44.4899 56.5154L45.3273 50.4171ZM52.5065 50.7985C52.0755 50.4459 51.4228 50.2245 50.5854 50.2245C49.5388 50.2245 48.845 50.5526 48.4921 50.9298C48.0201 51.426 48.0077 52.1191 48.0077 52.5087V57.6677C48.0077 58.8447 48.5166 59.8372 50.5978 59.8372C51.2135 59.8372 52.0755 59.7593 52.6255 59.1851C52.9908 58.8201 53.1222 58.3485 53.1222 57.6719V52.5538C53.1222 51.6639 52.9662 51.1841 52.5065 50.8027V50.7985ZM51.4064 57.4176C51.4064 57.8605 51.4064 58.5002 50.5691 58.5002C49.7317 58.5002 49.7071 57.9015 49.7071 57.3766V52.7261C49.7071 52.2175 49.7071 51.5122 50.5814 51.5122C51.4065 51.5122 51.4064 52.1765 51.4064 52.6604V57.4176ZM57.5635 50.4171H54.8174V59.6362H57.5512C59.6939 59.6362 59.8909 58.4346 59.8909 57.1552V52.845C59.8909 52.115 59.8253 51.4875 59.3409 50.9913C58.7785 50.4171 58.1135 50.4171 57.5635 50.4171ZM58.2039 57.3027C58.2039 57.6432 58.2039 58.1763 57.5881 58.2706C57.4444 58.2952 57.3132 58.2952 56.5168 58.2952V51.7664H57.1818C57.9247 51.7664 58.1997 51.8854 58.1997 52.7055V57.3027H58.2039ZM64.7632 54.4034L66.9223 59.6404H65.0793L63.2773 55.1333V59.6404H61.5533V50.4213H63.2773V54.0138L65.1203 50.4213H66.8607L64.7715 54.4034H64.7632ZM69.3523 50.4171L67.5627 59.6362H69.262L69.5124 58.1352H71.0804L71.3021 59.6362H73.026L71.3021 50.4171H69.3523ZM69.7177 56.7122L70.3334 52.7548L70.8957 56.7122H69.7177Z" fill="#E11A27"/>
</g>
<defs>
<clipPath id="clip0_1467_3">
<rect width="80" height="65.5422" fill="white"/>
</clipPath>
</defs>
</svg>
