<svg width="124" height="62" viewBox="0 0 124 62" fill="none" xmlns="http://www.w3.org/2000/svg">
<g clip-path="url(#clip0_81_746)">
<path d="M27.7057 50.2356C38.4265 50.2356 47.1175 41.5447 47.1175 30.8239C47.1175 20.1031 38.4265 11.4121 27.7057 11.4121C16.9849 11.4121 8.29395 20.1031 8.29395 30.8239C8.29395 41.5447 16.9849 50.2356 27.7057 50.2356Z" fill="#F96606"/>
<path d="M22.6805 33.7455C21.8584 32.9918 20.6023 30.7309 20.8992 27.3738C21.0591 25.661 22.2009 22.5323 24.1878 19.906C25.6722 17.942 27.9103 16.3662 27.9103 16.3662C27.9103 16.3662 31.2902 18.4901 32.9345 22.0299C33.9393 24.2222 34.1449 25.798 34.1905 26.1406C34.1905 26.1406 31.1075 23.8569 27.5449 25.25C24.2106 26.5745 23.2058 30.1828 24.0964 31.9641C24.8729 33.5399 26.3574 33.6998 26.3574 33.6998C25.6722 34.9559 23.5484 34.5676 22.6805 33.7455Z" fill="url(#paint0_radial_81_746)"/>
<path d="M28.1865 28.1726C30.082 27.2591 33.1194 28.1954 35.0148 29.6798C37.4813 31.5982 38.9657 33.585 40.0619 36.8507C40.9069 39.3857 41.0439 40.2535 41.0439 40.2535C41.0439 40.2535 37.9152 42.1262 33.5989 42.0348C31.3152 41.9892 29.7166 41.738 29.1229 41.4183C29.1229 41.4183 32.5941 39.4999 32.9595 35.9601C33.2107 33.585 31.8177 31.3698 29.9449 30.6161C28.118 29.8853 26.9761 31.2099 26.9761 31.2099C26.9761 31.2099 26.0626 29.2002 28.1865 28.1726Z" fill="url(#paint1_radial_81_746)"/>
<path d="M30.4224 35.6405C30.2396 38.5637 24.2106 42.5603 19.0265 41.8752C15.6694 41.4412 14.3677 40.2994 14.3677 40.2994C14.3677 40.2994 15.4867 33.3111 18.9808 30.7305C18.9808 30.7305 18.9123 36.3485 23.9137 37.1935C25.3753 37.4447 29.2805 36.8281 28.8237 32.9686C28.8009 32.9686 30.5594 33.5395 30.4224 35.6405Z" fill="url(#paint2_radial_81_746)"/>
</g>
<path d="M55.5812 27.8232V20.5762H57.9624C58.5353 20.5762 59.0598 20.6694 59.5361 20.8557C60.0123 21.0352 60.4195 21.2871 60.7577 21.6115C61.1028 21.929 61.3685 22.3086 61.5549 22.7503C61.7481 23.192 61.8448 23.6683 61.8448 24.179C61.8448 24.7105 61.7447 25.2005 61.5445 25.6491C61.3513 26.0909 61.0821 26.4739 60.737 26.7983C60.3988 27.1227 60.0019 27.3746 59.5464 27.5541C59.0909 27.7335 58.6043 27.8232 58.0866 27.8232H55.5812ZM56.5234 27.3677H57.6622C58.2281 27.3677 58.7078 27.2745 59.1012 27.0882C59.5015 26.8949 59.8294 26.6465 60.0848 26.3428C60.3401 26.0391 60.5265 25.7009 60.6438 25.3282C60.7612 24.9486 60.8198 24.5724 60.8198 24.1997C60.8198 23.7856 60.7508 23.3887 60.6128 23.0091C60.4747 22.6226 60.2711 22.2844 60.0019 21.9945C59.7397 21.6978 59.4118 21.4631 59.0184 21.2905C58.625 21.118 58.1729 21.0317 57.6622 21.0317H56.5234V27.3677ZM63.3941 20.5762H65.7442C66.2066 20.5762 66.5897 20.6418 66.8934 20.7729C67.197 20.8971 67.4352 21.0559 67.6077 21.2491C67.7872 21.4355 67.9114 21.6391 67.9804 21.8599C68.0563 22.0808 68.0943 22.2844 68.0943 22.4708C68.0943 22.6778 68.0598 22.8918 67.9908 23.1127C67.9218 23.3266 67.8113 23.5268 67.6595 23.7131C67.5076 23.8995 67.3109 24.0548 67.0694 24.179C66.8347 24.3032 66.5517 24.3757 66.2204 24.3964V24.4378L66.3239 24.4896C66.4068 24.531 66.4758 24.5828 66.531 24.6449C66.5931 24.707 66.669 24.8071 66.7588 24.9451C66.8554 25.0832 66.9831 25.2799 67.1418 25.5352C67.3006 25.7837 67.5249 26.1185 67.8148 26.5395C67.9114 26.6844 68.0046 26.8156 68.0943 26.9329C68.184 27.0433 68.2772 27.1399 68.3738 27.2228C68.4705 27.2987 68.574 27.3574 68.6844 27.3988C68.7948 27.4402 68.9225 27.4609 69.0675 27.4609C69.102 27.4609 69.1365 27.4609 69.171 27.4609C69.2055 27.454 69.24 27.4471 69.2745 27.4402V27.8232C69.1779 27.8785 69.0813 27.913 68.9847 27.9268C68.888 27.9406 68.7638 27.9475 68.6119 27.9475C68.4049 27.9475 68.2254 27.9199 68.0736 27.8647C67.9287 27.8094 67.7975 27.737 67.6802 27.6472C67.5628 27.5506 67.4524 27.4367 67.3489 27.3056C67.2523 27.1745 67.1522 27.0295 67.0487 26.8708L66.2308 25.6595C66.1065 25.4662 65.9996 25.304 65.9098 25.1729C65.8201 25.0418 65.7235 24.9348 65.6199 24.8519C65.5164 24.7691 65.3991 24.7105 65.2679 24.6759C65.1437 24.6414 64.985 24.6242 64.7917 24.6242H64.3362V27.8232H63.3941V20.5762ZM64.3362 21.0317V24.1583H65.4025C65.6786 24.1583 65.9202 24.11 66.1272 24.0134C66.3412 23.9167 66.5207 23.7925 66.6656 23.6407C66.8105 23.4819 66.9175 23.3094 66.9865 23.123C67.0625 22.9298 67.1004 22.7399 67.1004 22.5536C67.1004 22.3327 67.059 22.1291 66.9762 21.9428C66.9003 21.7564 66.7864 21.5977 66.6345 21.4665C66.4827 21.3285 66.2998 21.2215 66.0858 21.1456C65.8788 21.0697 65.6441 21.0317 65.3818 21.0317H64.3362ZM70.411 27.3781C70.411 27.2262 70.4662 27.0951 70.5767 26.9847C70.6871 26.8742 70.8182 26.819 70.9701 26.819C71.1219 26.819 71.2531 26.8742 71.3635 26.9847C71.4739 27.0951 71.5291 27.2262 71.5291 27.3781C71.5291 27.5299 71.4739 27.661 71.3635 27.7715C71.2531 27.8819 71.1219 27.9371 70.9701 27.9371C70.8182 27.9371 70.6871 27.8819 70.5767 27.7715C70.4662 27.661 70.411 27.5299 70.411 27.3781ZM58.1591 39.8232H57.217V33.1456H54.4424V32.5762H60.9337V33.1456H58.1591V39.8232ZM60.9304 36.1997C60.9304 35.8063 61.0029 35.3887 61.1478 34.947C61.2996 34.5053 61.5343 34.1015 61.8518 33.7357C62.1693 33.363 62.5731 33.0559 63.0631 32.8143C63.5531 32.5727 64.1398 32.4519 64.8231 32.4519C65.5133 32.4519 66.1103 32.5762 66.6142 32.8247C67.1249 33.0662 67.5459 33.3734 67.8772 33.7461C68.2085 34.1188 68.4535 34.526 68.6123 34.9677C68.771 35.4025 68.8504 35.8132 68.8504 36.1997C68.8504 36.4551 68.8124 36.7243 68.7365 37.0072C68.6675 37.2902 68.5605 37.5732 68.4156 37.8562C68.2775 38.1323 68.0981 38.398 67.8772 38.6534C67.6563 38.9018 67.3941 39.1227 67.0904 39.3159C66.7936 39.5092 66.4554 39.6645 66.0758 39.7818C65.7031 39.8923 65.2855 39.9475 64.8231 39.9475C64.1398 39.9475 63.5531 39.8267 63.0631 39.5851C62.5731 39.3367 62.1693 39.0261 61.8518 38.6534C61.5343 38.2807 61.2996 37.8769 61.1478 37.4421C61.0029 37.0003 60.9304 36.5862 60.9304 36.1997ZM61.945 36.1997C61.945 36.6829 62.0174 37.128 62.1624 37.5352C62.3142 37.9356 62.5178 38.2807 62.7732 38.5705C63.0355 38.8604 63.3426 39.0882 63.6946 39.2538C64.0466 39.4126 64.4297 39.4919 64.8438 39.4919C65.251 39.4919 65.6341 39.4126 65.993 39.2538C66.3588 39.0882 66.6763 38.8604 66.9454 38.5705C67.2215 38.2807 67.4389 37.9356 67.5977 37.5352C67.7564 37.128 67.8358 36.6829 67.8358 36.1997C67.8358 35.7166 67.7564 35.2749 67.5977 34.8745C67.4389 34.4673 67.2215 34.1188 66.9454 33.8289C66.6763 33.539 66.3588 33.3147 65.993 33.1559C65.6341 32.9903 65.251 32.9075 64.8438 32.9075C64.4297 32.9075 64.0466 32.9903 63.6946 33.1559C63.3426 33.3147 63.0355 33.539 62.7732 33.8289C62.5178 34.1188 62.3142 34.4673 62.1624 34.8745C62.0174 35.2749 61.945 35.7166 61.945 36.1997ZM70.6128 32.5762H72.9629C73.4254 32.5762 73.8084 32.6418 74.1121 32.7729C74.4158 32.8971 74.6539 33.0559 74.8265 33.2491C75.0059 33.4355 75.1301 33.6391 75.1992 33.8599C75.2751 34.0808 75.313 34.2844 75.313 34.4708C75.313 34.6778 75.2785 34.8918 75.2095 35.1127C75.1405 35.3266 75.0301 35.5268 74.8782 35.7131C74.7264 35.8995 74.5297 36.0548 74.2881 36.179C74.0534 36.3032 73.7705 36.3757 73.4392 36.3964V36.4378L73.5427 36.4896C73.6255 36.531 73.6945 36.5828 73.7498 36.6449C73.8119 36.707 73.8878 36.8071 73.9775 36.9451C74.0741 37.0832 74.2018 37.2799 74.3606 37.5352C74.5193 37.7837 74.7436 38.1185 75.0335 38.5395C75.1301 38.6844 75.2233 38.8156 75.313 38.9329C75.4028 39.0433 75.496 39.1399 75.5926 39.2228C75.6892 39.2987 75.7927 39.3574 75.9032 39.3988C76.0136 39.4402 76.1413 39.4609 76.2862 39.4609C76.3207 39.4609 76.3552 39.4609 76.3898 39.4609C76.4243 39.454 76.4588 39.4471 76.4933 39.4402V39.8232C76.3967 39.8785 76.3 39.913 76.2034 39.9268C76.1068 39.9406 75.9825 39.9475 75.8307 39.9475C75.6236 39.9475 75.4442 39.9199 75.2923 39.8647C75.1474 39.8094 75.0163 39.737 74.8989 39.6472C74.7816 39.5506 74.6712 39.4367 74.5676 39.3056C74.471 39.1745 74.3709 39.0295 74.2674 38.8708L73.4495 37.6595C73.3253 37.4662 73.2183 37.304 73.1286 37.1729C73.0389 37.0418 72.9422 36.9348 72.8387 36.8519C72.7352 36.7691 72.6178 36.7105 72.4867 36.6759C72.3625 36.6414 72.2037 36.6242 72.0105 36.6242H71.5549V39.8232H70.6128V32.5762ZM71.5549 33.0317V36.1583H72.6213C72.8974 36.1583 73.1389 36.11 73.346 36.0134C73.56 35.9167 73.7394 35.7925 73.8843 35.6407C74.0293 35.4819 74.1363 35.3094 74.2053 35.123C74.2812 34.9298 74.3192 34.7399 74.3192 34.5536C74.3192 34.3327 74.2778 34.1291 74.1949 33.9428C74.119 33.7564 74.0051 33.5977 73.8533 33.4665C73.7014 33.3285 73.5185 33.2215 73.3046 33.1456C73.0975 33.0697 72.8629 33.0317 72.6006 33.0317H71.5549ZM77.1846 37.9908H77.8886C77.8955 38.1081 77.9231 38.253 77.9714 38.4256C78.0197 38.5912 78.1129 38.7534 78.2509 38.9122C78.389 39.0709 78.5891 39.209 78.8514 39.3263C79.1137 39.4367 79.4622 39.4919 79.8971 39.4919C80.4423 39.4919 80.8771 39.3884 81.2015 39.1814C81.5328 38.9743 81.6985 38.6465 81.6985 38.1978C81.6985 37.8389 81.5949 37.5525 81.3879 37.3385C81.1808 37.1246 80.9185 36.9451 80.6011 36.8002C80.2905 36.6483 79.9523 36.5138 79.5865 36.3964C79.2207 36.2791 78.879 36.1376 78.5615 35.9719C78.2509 35.8063 77.9921 35.5992 77.7851 35.3508C77.578 35.1023 77.4745 34.7745 77.4745 34.3672C77.4745 34.0567 77.5366 33.7806 77.6608 33.539C77.792 33.2974 77.9645 33.0973 78.1785 32.9385C78.3993 32.7798 78.6513 32.659 78.9342 32.5762C79.2241 32.4934 79.5278 32.4519 79.8453 32.4519C80.149 32.4519 80.4389 32.4899 80.7149 32.5658C80.9979 32.6349 81.2498 32.7418 81.4707 32.8868C81.6916 33.0248 81.8745 33.1974 82.0194 33.4044C82.1643 33.6046 82.2575 33.8323 82.2989 34.0877H81.5949C81.5397 33.6805 81.3534 33.3837 81.0359 33.1974C80.7253 33.0041 80.3457 32.9075 79.8971 32.9075C79.6279 32.9075 79.3898 32.942 79.1827 33.011C78.9756 33.0731 78.7996 33.1594 78.6547 33.2698C78.5167 33.3734 78.4097 33.4976 78.3338 33.6425C78.2647 33.7875 78.2302 33.9428 78.2302 34.1084C78.2302 34.4052 78.3372 34.6433 78.5512 34.8228C78.7651 35.0022 79.0309 35.161 79.3483 35.299C79.6727 35.437 80.0213 35.5682 80.394 35.6924C80.7736 35.8167 81.1222 35.9719 81.4396 36.1583C81.764 36.3378 82.0332 36.5655 82.2472 36.8416C82.4611 37.1108 82.5681 37.4593 82.5681 37.8872C82.5681 38.1978 82.506 38.4808 82.3818 38.7362C82.2575 38.9916 82.0815 39.209 81.8538 39.3884C81.626 39.5679 81.3499 39.7059 81.0255 39.8025C80.708 39.8992 80.3491 39.9475 79.9488 39.9475C79.5554 39.9475 79.1931 39.9026 78.8618 39.8129C78.5305 39.7163 78.2406 39.5851 77.9921 39.4195C77.7505 39.2469 77.5573 39.0399 77.4123 38.7983C77.2743 38.5567 77.1984 38.2876 77.1846 37.9908ZM84.1003 32.5762H85.0425V37.3075C85.0425 37.4455 85.0459 37.5836 85.0528 37.7216C85.0597 37.8596 85.0839 37.9977 85.1253 38.1357C85.1667 38.2669 85.2288 38.4014 85.3116 38.5395C85.3945 38.6775 85.5153 38.8156 85.674 38.9536C85.8742 39.133 86.0847 39.2676 86.3055 39.3574C86.5333 39.4471 86.7921 39.4919 87.082 39.4919C87.4202 39.4919 87.7446 39.4436 88.0552 39.347C88.3658 39.2504 88.6453 39.0675 88.8938 38.7983C89.0318 38.6465 89.1353 38.4946 89.2043 38.3428C89.2803 38.1909 89.3355 38.0391 89.37 37.8872C89.4045 37.7285 89.4252 37.5732 89.4321 37.4214C89.439 37.2626 89.4425 37.1073 89.4425 36.9555V32.5762H89.898V37.2971C89.898 37.6629 89.8393 38.008 89.722 38.3324C89.6047 38.6499 89.4287 38.9294 89.194 39.171C88.9662 39.4126 88.6798 39.6024 88.3347 39.7404C87.9965 39.8785 87.6065 39.9475 87.1648 39.9475C86.4608 39.9475 85.9052 39.8509 85.498 39.6576C85.0908 39.4574 84.7836 39.2124 84.5766 38.9225C84.3695 38.6258 84.2384 38.3083 84.1832 37.9701C84.128 37.625 84.1003 37.3109 84.1003 37.0279V32.5762ZM97.8048 32.5762H98.281V39.9475H98.2293L92.4834 34.2844H92.442V39.8232H91.9658V32.4519H92.0175L97.7634 38.115H97.8048V32.5762ZM100.037 36.1997C100.037 35.8063 100.109 35.3887 100.254 34.947C100.406 34.5053 100.641 34.1015 100.958 33.7357C101.276 33.363 101.68 33.0559 102.17 32.8143C102.66 32.5727 103.246 32.4519 103.93 32.4519C104.62 32.4519 105.217 32.5762 105.721 32.8247C106.232 33.0662 106.653 33.3734 106.984 33.7461C107.315 34.1188 107.56 34.526 107.719 34.9677C107.878 35.4025 107.957 35.8132 107.957 36.1997C107.957 36.4551 107.919 36.7243 107.843 37.0072C107.774 37.2902 107.667 37.5732 107.522 37.8562C107.384 38.1323 107.205 38.398 106.984 38.6534C106.763 38.9018 106.501 39.1227 106.197 39.3159C105.9 39.5092 105.562 39.6645 105.182 39.7818C104.81 39.8923 104.392 39.9475 103.93 39.9475C103.246 39.9475 102.66 39.8267 102.17 39.5851C101.68 39.3367 101.276 39.0261 100.958 38.6534C100.641 38.2807 100.406 37.8769 100.254 37.4421C100.109 37.0003 100.037 36.5862 100.037 36.1997ZM101.052 36.1997C101.052 36.6829 101.124 37.128 101.269 37.5352C101.421 37.9356 101.624 38.2807 101.88 38.5705C102.142 38.8604 102.449 39.0882 102.801 39.2538C103.153 39.4126 103.536 39.4919 103.95 39.4919C104.358 39.4919 104.741 39.4126 105.1 39.2538C105.465 39.0882 105.783 38.8604 106.052 38.5705C106.328 38.2807 106.546 37.9356 106.704 37.5352C106.863 37.128 106.942 36.6829 106.942 36.1997C106.942 35.7166 106.863 35.2749 106.704 34.8745C106.546 34.4673 106.328 34.1188 106.052 33.8289C105.783 33.539 105.465 33.3147 105.1 33.1559C104.741 32.9903 104.358 32.9075 103.95 32.9075C103.536 32.9075 103.153 32.9903 102.801 33.1559C102.449 33.3147 102.142 33.539 101.88 33.8289C101.624 34.1188 101.421 34.4673 101.269 34.8745C101.124 35.2749 101.052 35.7166 101.052 36.1997ZM108.788 32.5762H109.906L112.39 38.5395H112.432L114.844 32.5762H115.382L112.442 39.8232H111.821L108.788 32.5762Z" fill="#F96606"/>
<defs>
<radialGradient id="paint0_radial_81_746" cx="0" cy="0" r="1" gradientUnits="userSpaceOnUse" gradientTransform="translate(27.521 25.4341) scale(6.67098 9.07468)">
<stop stop-color="#5B2B2E"/>
<stop offset="0.794738" stop-color="#3A1619"/>
<stop offset="0.9975" stop-color="#1F0B0D"/>
</radialGradient>
<radialGradient id="paint1_radial_81_746" cx="0" cy="0" r="1" gradientUnits="userSpaceOnUse" gradientTransform="translate(33.9106 34.9228) scale(7.13486 7.11655)">
<stop stop-color="#5B2B2E"/>
<stop offset="0.794738" stop-color="#3A1619"/>
<stop offset="0.9975" stop-color="#1F0B0D"/>
</radialGradient>
<radialGradient id="paint2_radial_81_746" cx="0" cy="0" r="1" gradientUnits="userSpaceOnUse" gradientTransform="translate(22.3968 36.34) scale(8.03485 5.61373)">
<stop stop-color="#5B2B2E"/>
<stop offset="0.794738" stop-color="#3A1619"/>
<stop offset="0.9975" stop-color="#1F0B0D"/>
</radialGradient>
<clipPath id="clip0_81_746">
<rect width="40.1176" height="40.1176" fill="white" transform="translate(7.64697 10.7646)"/>
</clipPath>
</defs>
</svg>
