<svg width="124" height="62" viewBox="0 0 124 62" fill="none" xmlns="http://www.w3.org/2000/svg">
<g clip-path="url(#clip0_81_572)">
<path d="M21.322 49.438H21.8953C22.1358 48.9226 22.5481 47.995 23.134 46.6532C23.756 45.2409 24.2407 44.127 24.5861 43.3095C25.0743 42.1558 25.3908 41.3873 25.5318 41.0039H26.172C26.4125 41.5989 26.6566 42.1938 26.9044 42.7887C26.9225 42.8339 27.4324 44.0546 28.4361 46.4525C28.9948 47.7852 29.418 48.7798 29.7019 49.4362H30.2751L30.2353 49.9697C30.2353 50.0764 30.2371 50.1849 30.2426 50.297C30.2462 50.4073 30.2588 50.5212 30.2751 50.6369H30.1558C29.9876 50.3783 29.7272 50.2211 29.3764 50.1632C29.0255 50.1053 28.3963 50.0764 27.4921 50.0764H24.2407C23.4324 50.0764 22.9658 50.08 22.841 50.0891C22.1756 50.1342 21.7 50.3151 21.4161 50.6352H21.322C21.3401 50.5556 21.351 50.4326 21.3546 50.268C21.36 50.1035 21.3618 50.004 21.3618 49.9678L21.322 49.4344V49.438ZM22.747 49.438H28.4505L25.6385 42.456H25.5861C25.2045 43.3005 24.8845 44.0202 24.6259 44.6152C24.2877 45.3964 23.9731 46.1613 23.6801 46.9063C23.36 47.7328 23.049 48.5754 22.747 49.438Z" fill="#1F272A"/>
<path d="M31.4463 50.0774V41.0049H34.1245C35.1462 41.0049 35.8967 41.1423 36.3758 41.4172C36.855 41.6921 37.0956 42.1677 37.0956 42.8422C37.0956 43.4371 36.8984 43.9416 36.5024 44.3539C36.1064 44.7662 35.6037 45.0483 34.9906 45.2002C35.6037 45.2002 36.1371 45.3557 36.5892 45.6668C37.148 46.0483 37.4283 46.5908 37.4283 47.2925C37.4283 48.2437 37.0287 48.9942 36.2293 49.5439C35.8822 49.7844 35.4337 49.9399 34.884 50.0104C34.5458 50.0557 34.0575 50.0774 33.4174 50.0774H31.4463ZM32.6199 41.4967V45.0013H33.204C33.5838 45.0013 33.8984 44.9868 34.1462 44.9543C34.3939 44.9235 34.6453 44.8494 34.902 44.7337C35.5838 44.4317 35.9238 43.8946 35.9238 43.1206C35.9238 42.5257 35.7339 42.1062 35.3523 41.862C34.9726 41.6179 34.4102 41.4949 33.667 41.4949H32.6181L32.6199 41.4967ZM32.6199 45.5203V49.5837H33.9527C34.6091 49.5837 35.148 49.392 35.5657 49.0104C35.9834 48.6289 36.1914 48.1315 36.1914 47.5185C36.1914 46.7807 35.9346 46.2527 35.4192 45.9326C34.9744 45.6578 34.3125 45.5203 33.4337 45.5203H32.6199Z" fill="#1F272A"/>
<path d="M42.6937 40.8057L46.6919 50.1331L45.9994 50.0806L45.2941 50.1204C44.974 49.2054 44.7028 48.4676 44.4803 47.9089C44.3375 47.5544 44.1422 47.0914 43.8944 46.5236H40.5092C39.9939 47.8112 39.7045 48.5436 39.6431 48.7225C39.5092 49.0788 39.3591 49.5436 39.191 50.1222L38.6973 50.0825L38.2307 50.1222L42.3881 40.8093H42.6937V40.8057ZM43.6847 45.9613L42.2145 42.5634L40.757 45.9613H43.6865H43.6847Z" fill="#1F272A"/>
<path d="M52.5783 47.7599L54.0575 45.5356L52.5312 43.013L51.2058 41.0039L51.9255 41.0437L52.6452 41.0039L53.3251 42.1504L54.7374 44.5754C55.4843 43.3855 56.2293 42.1938 56.9762 41.0039L57.4698 41.0437L57.9635 41.0039L57.7375 41.2697L55.6995 44.107L55.0467 45.0926L58.1371 50.1288L57.4047 50.0764L56.6724 50.1162C55.9617 48.7219 55.1931 47.3711 54.3667 46.0655C53.5403 47.3096 52.7374 48.6586 51.9544 50.1162L51.4607 50.0764L50.967 50.1162L52.5783 47.7581V47.7599Z" fill="#1F272A"/>
<path d="M59.8254 50.0774V41.0049H62.5036C63.5253 41.0049 64.2758 41.1423 64.755 41.4172C65.2342 41.6921 65.4747 42.1677 65.4747 42.8422C65.4747 43.4371 65.2776 43.9416 64.8816 44.3539C64.4856 44.7662 63.9829 45.0483 63.3698 45.2002C63.9829 45.2002 64.5163 45.3557 64.9684 45.6668C65.5271 46.0483 65.8075 46.5908 65.8075 47.2925C65.8075 48.2437 65.4078 48.9942 64.6085 49.5439C64.2613 49.7844 63.8128 49.9399 63.2631 50.0104C62.925 50.0557 62.4367 50.0774 61.7966 50.0774H59.8254ZM60.9991 41.4967V45.0013H61.5831C61.9629 45.0013 62.2776 44.9868 62.5253 44.9543C62.773 44.9235 63.0244 44.8494 63.2812 44.7337C63.9629 44.4317 64.3029 43.8946 64.3029 43.1206C64.3029 42.5257 64.113 42.1062 63.7315 41.862C63.3517 41.6179 62.7893 41.4949 62.0461 41.4949H60.9972L60.9991 41.4967ZM60.9991 45.5203V49.5837H62.3318C62.9882 49.5837 63.5271 49.392 63.9448 49.0104C64.3626 48.6289 64.5705 48.1315 64.5705 47.5185C64.5705 46.7807 64.3138 46.2527 63.7984 45.9326C63.3535 45.6578 62.6917 45.5203 61.8128 45.5203H60.9991Z" fill="#1F272A"/>
<path d="M71.9898 50.2651C70.507 50.2651 69.3189 49.8365 68.4256 48.9812C67.5323 48.1258 67.0874 46.983 67.0874 45.5543C67.0874 44.1258 67.563 42.9684 68.5124 42.0823C69.4274 41.2306 70.5956 40.8057 72.017 40.8057C73.4383 40.8057 74.5576 41.1655 75.4817 41.8834C76.5378 42.708 77.0677 43.8654 77.0677 45.3554C77.0677 46.8455 76.5975 48.0137 75.6553 48.9143C74.7132 49.8148 73.4926 50.2651 71.9916 50.2651H71.9898ZM75.7602 45.4621C75.7602 44.86 75.7023 44.3247 75.5866 43.86C75.4709 43.3952 75.2484 42.9539 74.9212 42.5362C74.592 42.1203 74.1852 41.8002 73.7023 41.5778C73.2177 41.3554 72.7005 41.2451 72.1507 41.2451C70.9862 41.2451 70.0694 41.6501 69.4003 42.4621C68.7294 43.2741 68.3949 44.3573 68.3949 45.7153C68.3949 47.0734 68.7493 48.0426 69.4599 48.7877C70.1254 49.4802 70.9826 49.8257 72.0314 49.8257C73.2846 49.8257 74.2557 49.285 74.9483 48.2018C75.4908 47.3591 75.762 46.4459 75.762 45.4621H75.7602Z" fill="#1F272A"/>
<path d="M85.8332 48.6792L85.7662 49.511C85.3757 49.775 84.9218 49.9667 84.4064 50.0861C83.891 50.2054 83.363 50.2651 82.8205 50.2651C81.3629 50.2651 80.2182 49.8347 79.3829 48.9739C78.5474 48.1132 78.1296 46.9558 78.1296 45.5019C78.1296 44.048 78.6142 42.8907 79.5817 42.0299C80.5058 41.2143 81.6957 40.8057 83.1532 40.8057C83.6234 40.8057 84.1062 40.8581 84.5981 40.9648C85.0917 41.0715 85.5637 41.2234 86.0176 41.4187C85.9652 41.5525 85.9109 41.7189 85.8585 41.9178C85.806 42.1167 85.7645 42.2939 85.7391 42.444L85.6451 42.4566C85.5475 42.3319 85.3738 42.1818 85.1261 42.0046C84.4769 41.5434 83.8024 41.312 83.1008 41.312C81.929 41.312 81.014 41.7333 80.3557 42.576C79.7427 43.3573 79.4371 44.35 79.4371 45.5562C79.4371 46.8238 79.7662 47.8401 80.4227 48.6032C81.0791 49.3663 81.9416 49.7479 83.0067 49.7479C83.486 49.7479 83.9796 49.6539 84.486 49.4658C84.9923 49.2777 85.4408 49.0156 85.8314 48.6828L85.8332 48.6792Z" fill="#1F272A"/>
<path d="M90.8692 41.6433V50.1298L90.2835 50.0774L89.6977 50.1172V41.6433C89.0051 41.6433 88.5114 41.6523 88.2184 41.6704C87.9255 41.6884 87.4463 41.7318 86.7791 41.8041L86.8188 41.4045L86.7791 41.0049H93.6543L93.6143 41.4045L93.6543 41.8041C93.3255 41.768 92.9092 41.7336 92.4082 41.6975C91.9058 41.6613 91.394 41.645 90.8692 41.645V41.6433Z" fill="#1F272A"/>
<path d="M98.4645 40.8057L102.462 50.1331L101.77 50.0806L101.065 50.1204C100.745 49.2054 100.473 48.4676 100.251 47.9089C100.108 47.5544 99.9126 47.0914 99.6652 46.5236H96.2801C95.7642 47.8112 95.4754 48.5436 95.4137 48.7225C95.2801 49.0788 95.1296 49.5436 94.9615 50.1222L94.4679 50.0825L94.0015 50.1222L98.1588 40.8093H98.4645V40.8057ZM99.4571 45.9613L97.9872 42.5634L96.5296 45.9613H99.4591H99.4571Z" fill="#1F272A"/>
<path d="M76.3772 40.675C76.2651 40.675 76.153 40.6479 76.0481 40.5919C75.916 40.5213 75.8238 40.364 75.8618 40.2193C76.0137 39.6424 77.3139 39.789 76.7172 38.8612C76.4622 38.4634 75.851 38.2808 75.3265 38.4218C74.8726 38.5647 74.5887 38.9336 74.5887 39.4435C74.5743 40.1669 74.8437 40.7781 75.2415 41.3604C75.4116 41.6298 75.6105 41.8848 75.7804 42.1561C75.2832 41.6732 74.6882 41.3604 73.9775 41.1759C73.6358 40.5376 73.4947 39.8559 73.6086 39.118C73.737 38.2663 74.2903 37.6985 75.1981 37.4996C76.0644 37.3296 77.0011 37.6696 77.3989 38.3079C77.7063 38.8034 77.7552 39.4399 77.4695 39.9571C77.2777 40.3043 76.8184 40.6787 76.3772 40.675Z" fill="#1F272A"/>
<path d="M54.7051 18.0081C54.5188 17.8544 54.5405 17.6826 54.4121 17.4258C54.1969 16.999 53.318 16.7115 52.8678 16.7404L52.9039 15.6156C52.9148 15.556 52.8353 15.5252 52.8027 15.5777L52.2168 16.509L51.9329 15.6428C51.8841 15.4927 51.6761 15.4782 51.6056 15.6193L51.1336 16.5668C51.1336 16.5668 51.0305 16.858 50.7955 17.245C50.6056 17.5578 50.262 17.7857 49.6851 18.4113C49.0323 19.1202 48.5802 19.8381 47.4826 20.3842C46.7791 20.7332 45.8369 20.5597 42.4753 20.3752C39.4698 20.2107 37.5348 20.4186 35.92 20.2757C33.835 20.0913 33.2364 16.7603 33.3811 15.5921C33.4643 14.9212 33.6596 13.8742 34.3702 12.9935C34.6198 12.6843 35.0212 12.2485 35.929 12.0641C36.3902 11.97 36.3251 11.2648 35.8567 11.2196C35.2762 11.1635 34.7446 11.3208 34.3594 11.489C32.6433 12.2322 32.0031 14.1003 31.9055 15.6862C31.8367 16.8019 32.0049 19.1492 34.278 21.2269C34.278 21.2269 33.6216 21.7947 33.2437 23.0787C32.9977 23.9159 33.0014 24.8798 33.2798 26.133C33.6795 27.9449 32.4805 28.8816 31.938 29.2198C31.8567 29.2705 31.8115 29.3609 31.8205 29.4567C31.8657 29.9612 32.0122 31.5381 32.1369 32.1168C32.1731 32.2867 32.2798 32.6213 32.3757 32.9107C32.4805 33.2235 32.7735 33.4351 33.1044 33.4351H34.0755C34.3521 33.4351 34.5746 33.2018 34.5547 32.9251C34.5312 32.6123 34.354 32.2831 33.6885 32.3482L33.3738 30.9649C33.3359 30.7931 33.3829 30.614 33.5041 30.4875C33.5456 30.4441 33.5963 30.3989 33.6578 30.3536C33.9724 30.1222 35.2799 29.6339 36.0086 29.01C36.562 28.5363 36.8278 27.8835 37.1406 27.5019C37.2455 27.3735 37.3486 27.274 37.4354 27.1981C37.5204 27.1239 37.6487 27.2053 37.6199 27.3138C37.5421 27.5941 37.4679 27.9992 37.5746 28.2759C37.7519 28.737 37.873 28.8184 37.9273 29.2705C37.9815 29.7207 37.8043 30.3989 37.9056 30.7551C38.0249 31.1764 39.4065 32.4694 40.7808 33.1945C40.855 33.2343 40.9399 33.2524 41.0231 33.247H42.2076C42.2076 33.247 42.5168 33.1782 42.6181 32.889C42.7194 32.5978 42.4463 32.2271 42.175 32.1403C41.9671 32.0715 41.515 32.1566 41.4463 32.2253L40.3143 31.1312C40.1027 30.9269 40.0141 30.6249 40.0792 30.3374L40.9309 26.6393C40.9472 26.5724 41.0177 26.5326 41.0828 26.5561C41.3938 26.6646 42.2456 26.9449 42.9942 27.0552C43.9346 27.1944 45.0395 27.265 45.4934 27.2885C45.6091 27.2957 45.6941 27.3952 45.685 27.5091C45.6597 27.7894 45.6182 28.2976 45.6091 28.699C45.6001 29.1529 45.6254 30.1927 45.5187 30.511C45.4138 30.8292 44.6181 31.3772 44.3523 31.9016C44.1624 32.2759 44.2221 32.6286 44.3216 32.8944C44.4174 33.1494 44.544 33.3844 44.9617 33.3646C45.4011 33.3429 45.4789 32.9197 45.4102 32.7099C45.3686 32.5869 45.2746 32.4477 45.3306 32.3102C45.4047 32.1313 46.0196 31.8636 46.3686 31.4061C46.7014 30.9685 46.9726 30.3193 47.1209 29.831C47.3198 29.1728 47.638 28.2144 47.7646 27.8382C47.7881 27.7695 47.8786 27.7587 47.9184 27.8183C48.0178 27.9721 48.1788 28.2505 48.3216 28.6448C48.4898 29.1059 49.1788 30.6954 49.1788 30.6954C49.1788 30.6954 49.7466 31.907 49.8479 32.124C50.0468 32.5471 50.4736 33.3031 50.8605 33.5562C51.1679 33.7641 52.5061 33.6141 52.696 33.5418C52.8244 33.4929 52.9437 33.3085 52.9184 33.0951C52.8931 32.8817 52.7231 32.6846 52.3506 32.6231C51.9781 32.5616 51.6454 32.6846 51.6454 32.6846C51.6454 32.6846 51.139 32.039 51.007 31.3536C50.8858 30.7262 50.6056 28.0172 50.4898 27.2252C50.4753 27.1221 50.5061 27.0155 50.5766 26.9377C51.2023 26.2487 51.6635 25.3229 51.9058 24.5525C52.1607 23.7351 52.2801 22.0208 52.4881 21.509C52.5821 21.2757 52.9401 20.189 53.9618 20.0551C54.1698 20.028 54.5116 20.0931 54.7123 20.037C55.045 19.9412 55.5748 19.5922 55.5622 18.8544C55.5477 18.037 55.0179 18.2703 54.7087 18.0135" fill="#1F272A"/>
<path d="M60.8226 16.3134C61.224 15.5485 61.3722 15.0222 62.6255 14.6262C63.6562 14.3007 64.4682 14.355 64.8967 14.5448C65.4049 14.7691 65.8099 14.9987 65.9347 15.2736C66.0577 15.5503 65.8913 15.6244 66.1988 15.8432C66.1988 15.8432 66.9962 16.2664 67.2964 16.5105C67.5966 16.7546 68.092 17.3206 68.338 17.4762C68.5821 17.6317 68.8516 17.7691 69.215 17.8396C69.5767 17.9102 70.6274 17.9283 71.2458 18.0133C71.8625 18.0982 73.1934 18.3822 73.904 18.3351C75.2025 18.2519 77.2061 17.6046 78.6727 17.6588C79.9331 17.7058 81.2532 17.8089 82.0706 17.9771C82.3274 18.0296 82.5914 17.9988 82.8283 17.8885C83.4177 17.6136 84.5046 17.0458 85.0254 16.3695C85.8861 15.2519 85.369 14.1995 86.0815 13.0602C86.765 11.968 87.9586 11.4363 88.9495 11.4092C89.1518 11.4146 89.2264 11.6931 89.0453 11.7853C88.5535 12.0367 87.68 12.8034 87.633 13.59C87.5209 15.4364 87.6909 15.5195 87.1828 16.5413C86.6746 17.563 84.7144 18.487 84.3798 19.1923C84.0543 19.8794 84.246 20.2321 84.4467 21.243C84.6583 22.3026 84.7108 22.7367 84.8861 23.1254C85.3202 24.0947 85.1104 24.4148 85.4124 24.7656C85.9205 25.3587 86.0706 25.6499 86.4106 25.8108C86.9115 26.0495 87.595 26.187 87.8645 26.5287C88.1339 26.8723 90.4521 30.2666 90.4521 30.2666C90.4521 30.2666 90.5789 30.4293 90.528 30.6047C90.4779 30.782 90.3036 30.9121 90.3382 31.2521C90.3742 31.5921 90.3728 31.9411 90.0487 32.1635C89.7233 32.386 89.5192 32.4673 89.324 32.3534C89.1287 32.2394 89.0038 31.7512 89.02 31.4999C89.0381 31.2485 89.1301 30.914 89.0435 30.6789C88.6312 29.5758 86.718 27.7729 86.0164 27.4239C85.3147 27.0731 84.2496 26.7873 83.5263 26.4022C82.803 26.0169 81.9638 25.5559 81.7704 25.3424C81.7704 25.3424 81.3165 26.6282 81.2857 27.545C81.2605 28.31 81.3093 28.9573 81.4015 29.4348C81.4358 29.6138 81.4069 29.7982 81.3129 29.9555C81.1212 30.2792 80.7849 30.8253 80.5678 31.0767C80.2478 31.4474 79.7577 31.8832 79.5045 32.2178C79.2875 32.5035 78.8535 33.1635 78.4846 33.4927C78.387 33.5794 78.2604 33.6301 78.1284 33.6355C77.7197 33.6536 76.7287 33.6862 76.49 33.5885C76.188 33.4655 75.8516 33.0117 76.0632 32.6843C76.235 32.4185 77.0361 32.5686 77.6745 32.1708C78.3472 31.753 78.953 31.0297 79.34 29.8923C79.727 28.7566 79.2694 27.5541 79.217 27.3388C79.1645 27.1237 78.4466 24.3804 78.4376 23.8018C78.4376 23.8018 76.4954 24.6282 75.7775 24.8795C74.5099 25.3244 73.508 25.3352 73.1536 25.6752C72.7106 26.1001 72.1011 29.2684 72.1102 29.5324C72.1211 29.7982 72.2729 29.9664 72.5768 29.8778C72.8823 29.7874 73.2784 29.6535 73.452 29.668C73.6238 29.6825 73.8715 29.4365 74.0379 29.4257C74.2042 29.4148 74.499 29.4257 74.7884 29.6517C75.0759 29.8778 75.3508 30.1039 75.2531 30.4582C75.1573 30.8109 74.5297 30.9592 74.4629 30.979C74.3941 30.9971 73.5804 31.2286 73.0921 31.1852C72.6039 31.1418 71.1988 30.9719 70.9149 30.8344C70.631 30.6969 70.367 30.536 70.2169 30.1852C70.0668 29.8344 70.2458 29.0658 70.2458 29.0658C70.2458 29.0658 70.5731 27.1399 70.2512 26.0423C70.2512 26.0423 70.0324 26.0224 69.7847 25.9664C69.5405 25.9103 69.1952 25.8 69.1952 25.8C69.1952 25.8 69.3326 26.0513 69.3127 26.3515C69.2512 27.2756 66.3217 31.2666 66.0885 31.5866C66.0885 31.5866 65.9419 31.8399 65.8714 31.9158C65.8009 31.9917 65.4844 32.2811 65.3886 32.3986C65.2927 32.5161 64.8226 33.2341 64.687 33.301C64.5513 33.3679 62.9039 33.48 62.3415 33.4131C61.7773 33.3462 61.8949 32.7296 62.0269 32.6373C62.1589 32.5451 62.2511 32.3534 62.9148 32.357C63.5802 32.3607 63.6019 32.3245 63.6887 32.2504C63.6887 32.2504 64.5369 31.2811 64.6472 31.0731C64.7575 30.8651 65.0468 30.1291 65.1463 29.9628C65.2457 29.7964 65.4591 29.5704 65.7701 28.8253C66.0504 28.1526 66.0739 27.7891 66.2114 27.2683C66.3488 26.7475 66.5369 25.507 66.3723 24.7692C66.3723 24.7692 66.083 24.3931 65.9401 23.8831C65.7973 23.3731 65.6942 22.5757 65.3796 21.9699C65.0649 21.3641 64.6671 20.5051 63.7394 20.0856C62.9925 19.7474 62.4392 19.9753 61.9708 20.1363C61.9708 20.1363 61.1697 20.6788 60.6308 20.6245C60.2891 20.5902 60.0992 20.4346 60.007 20.3261C59.9654 20.2773 59.8876 20.2791 59.8478 20.3315C59.7213 20.4997 59.4825 20.7872 59.3704 20.7293C59.1823 20.6299 59.4392 19.8469 60.0974 19.4165C60.1697 19.3695 60.3397 19.2429 60.4084 19.1905C60.4971 19.1236 60.4464 18.9825 60.3361 18.9862C60.054 18.997 59.6435 18.9807 59.1607 18.9608C58.3614 18.9264 58.356 17.8234 58.5874 17.6299C59.3126 17.0295 60.4193 17.0801 60.8207 16.317" fill="#1F272A"/>
</g>
<defs>
<clipPath id="clip0_81_572">
<rect width="81.3559" height="40" fill="white" transform="translate(21.322 11.208)"/>
</clipPath>
</defs>
</svg>
