<svg width="124" height="62" viewBox="0 0 124 62" fill="none" xmlns="http://www.w3.org/2000/svg">
<g clip-path="url(#clip0_81_727)">
<path fill-rule="evenodd" clip-rule="evenodd" d="M88.9101 32.4793C81.2605 38.5722 71.459 41.8945 61.6687 41.8945C52.0438 41.8945 42.0767 38.5722 34.5818 32.8655L36.4802 30.5477C43.4563 36.0001 52.6508 39.113 61.6687 39.113C70.8523 39.113 80.2125 35.8346 87.3536 30.2718L88.9101 32.4793Z" fill="white"/>
<path d="M89.0175 32.6142C85.1963 35.6579 80.8395 38.0133 76.2144 39.6115C71.5457 41.2252 66.605 42.0674 61.6686 42.0674C56.8389 42.0674 51.9223 41.2333 47.2722 39.6834C42.6222 38.1334 38.2393 35.8668 34.477 33.0023L34.3347 32.8941L36.4532 30.3077L36.5862 30.4116C40.0543 33.1223 44.0749 35.2527 48.3499 36.7064C52.6339 38.1631 57.1733 38.9399 61.6686 38.9399C66.2203 38.9399 70.8163 38.1309 75.1618 36.6351C79.5474 35.1256 83.677 32.917 87.2474 30.1358L87.3904 30.0244L89.1449 32.5128L89.0175 32.6142ZM76.1023 39.286C80.6376 37.7186 84.9137 35.4161 88.6748 32.4452L87.3163 30.5184C83.7464 33.2725 79.6345 35.4612 75.2739 36.9624C70.8929 38.4702 66.2588 39.286 61.6686 39.286C57.1364 39.286 52.5594 38.5025 48.2394 37.0336C43.984 35.5865 39.9767 33.473 36.5074 30.7868L34.829 32.836C38.5296 35.6272 42.8258 37.8379 47.3803 39.3562C51.9937 40.8938 56.8733 41.7213 61.6686 41.7213C66.5694 41.7213 71.4721 40.8862 76.1023 39.286Z" fill="#231F20"/>
<path fill-rule="evenodd" clip-rule="evenodd" d="M81.8565 40.1946L83.391 42.2584C76.6802 45.2277 69.0417 47.1924 61.5913 47.1924C54.3394 47.1924 46.7012 45.2277 40.2332 42.2915L41.326 39.9297C47.4739 42.7111 54.7257 44.5652 61.5913 44.5652C68.4568 44.5652 75.7088 42.8987 81.8565 40.1946Z" fill="#2E3192"/>
<path d="M81.8565 40.1946L83.391 42.2584C76.6802 45.2277 69.0417 47.1924 61.5913 47.1924C54.3394 47.1924 46.7012 45.2277 40.2332 42.2915L41.326 39.9297C47.4739 42.7111 54.7257 44.5652 61.5913 44.5652C68.4568 44.5652 75.7088 42.8987 81.8565 40.1946Z" stroke="#2E3192" stroke-width="0.220826" stroke-miterlimit="22.9256"/>
<path fill-rule="evenodd" clip-rule="evenodd" d="M78.1587 47.2367L79.0307 49.9079C73.5451 51.6078 67.4632 52.6895 61.5912 52.6895C55.9399 52.6895 49.6372 51.8175 44.3833 50.195L45.2994 47.347C50.2444 48.9915 56.227 49.8195 61.5912 49.8195C67.1543 49.8195 72.9379 48.7932 78.1587 47.2367Z" fill="#ED1C24"/>
<path d="M78.1587 47.2367L79.0307 49.9079C73.5451 51.6078 67.4632 52.6895 61.5912 52.6895C55.9399 52.6895 49.6372 51.8175 44.3833 50.195L45.2994 47.347C50.2444 48.9915 56.227 49.8195 61.5912 49.8195C67.1543 49.8195 72.9379 48.7932 78.1587 47.2367Z" stroke="#ED1C24" stroke-width="0.220826" stroke-miterlimit="22.9256"/>
<path fill-rule="evenodd" clip-rule="evenodd" d="M93.5459 29.2012L74.0306 12.9423C70.5758 15.5692 66.1168 17.0484 61.7457 17.0484C57.2976 17.0484 52.7608 15.4809 49.3282 12.7547L30.1002 29.0685L28.3674 27.1699L49.4274 9.37718C52.6064 12.5451 57.1428 14.4434 61.6796 14.4434C66.2822 14.4434 70.8191 12.5451 74.0086 9.35518L95.3664 27.2363L93.5459 29.2012Z" fill="#2E3192"/>
<path d="M93.5459 29.2012L74.0306 12.9423C70.5758 15.5692 66.1168 17.0484 61.7457 17.0484C57.2976 17.0484 52.7608 15.4809 49.3282 12.7547L30.1002 29.0685L28.3674 27.1699L49.4274 9.37718C52.6064 12.5451 57.1428 14.4434 61.6796 14.4434C66.2822 14.4434 70.8191 12.5451 74.0086 9.35518L95.3664 27.2363L93.5459 29.2012Z" stroke="#2E3192" stroke-width="0.220826" stroke-miterlimit="22.9256"/>
<path d="M63.2716 36.3359C62.3027 35.3668 62.1814 34.0345 62.1814 34.0345C62.1814 34.0345 63.635 34.519 64.2408 34.6402C63.8773 34.7612 63.7562 35.1247 63.7562 35.1247C64.0343 35.1865 64.3156 35.2156 64.5889 35.2156C65.6909 35.2156 66.6647 34.7425 66.7977 34.0308C66.8903 33.5354 66.6071 33.231 66.3132 32.8194C64.9033 31.2099 63.379 29.6996 61.8809 28.1724L61.8672 28.1587L61.8533 28.1724C61.5758 28.4555 61.2979 28.7381 61.0207 29.0212C60.2248 29.8344 59.4299 30.6492 58.6452 31.4734C58.2334 31.906 57.7812 32.3415 57.4211 32.8194C57.1269 33.231 56.844 33.5354 56.9367 34.0308C57.0696 34.7425 58.0435 35.2156 59.1455 35.2156C59.4188 35.2156 59.7 35.1865 59.9781 35.1247C59.9781 35.1247 59.8571 34.7612 59.4937 34.6402C60.0994 34.519 61.5527 34.0345 61.5527 34.0345C61.5527 34.0345 61.4316 35.3668 60.4626 36.3359C60.4626 36.0937 60.4626 35.8514 60.3413 35.7303C59.9145 35.9325 59.4967 36.0129 59.0893 36.0129C58.3041 36.0129 57.5569 35.7147 56.8544 35.4166C56.152 35.1184 55.4939 34.8203 54.8869 34.8203C54.7183 34.8203 54.5538 34.8433 54.393 34.8958C54.9463 33.3395 52.4683 31.2486 53.6795 29.0683C53.5584 28.9472 53.5584 28.9472 53.074 28.9472C54.0429 27.9782 55.2542 27.7361 55.2542 27.7361C55.2542 27.7361 54.7696 29.4317 54.7696 29.9161C54.5275 29.4317 54.2852 29.4317 54.2852 29.4317C53.8898 30.7763 54.3417 32.1963 55.2409 32.3349C55.2945 32.3433 55.3464 32.3471 55.3966 32.3471C55.7944 32.3471 56.0978 32.1033 56.4522 31.8505C58.0595 30.4385 59.5664 28.9106 61.0903 27.4094L61.1103 27.3897L61.0432 27.3216C59.7201 25.9803 58.3935 24.6422 57.0633 23.308L55.5693 24.923L54.8628 24.2164L56.4578 22.7023L55.8521 22.0968C55.8521 22.0968 55.6703 22.1574 55.4282 22.1574C55.1859 22.1574 54.883 22.0966 54.6407 21.8545C54.1563 21.3699 54.3986 20.6433 54.762 20.2798C54.98 20.0617 55.3288 19.8873 55.6775 19.8873C55.9102 19.8873 56.1428 19.965 56.3365 20.1587C56.821 20.6433 56.5787 21.3699 56.5787 21.3699L57.1845 21.9755L58.6984 20.3806L59.4051 21.0871L57.79 22.5813C59.121 23.9147 60.457 25.2432 61.7948 26.5696L61.8672 26.6414L61.9394 26.5696C63.2777 25.2437 64.6129 23.9144 65.9444 22.5813L64.3292 21.0871L65.0357 20.3806L66.5498 21.9755L67.1555 21.3699C67.1555 21.3699 66.9132 20.6433 67.3978 20.1587C67.5915 19.965 67.8242 19.8873 68.0567 19.8873C68.4056 19.8873 68.7543 20.0617 68.9723 20.2798C69.3358 20.6433 69.5781 21.3699 69.0936 21.8545C68.8513 22.0966 68.5484 22.1574 68.3061 22.1574C68.0638 22.1574 67.8823 22.0968 67.8823 22.0968L67.2765 22.7023L68.8715 24.2164L68.165 24.923L66.6709 23.308C65.3404 24.6417 64.0148 25.9808 62.6911 27.3216L62.6241 27.3897L62.6441 27.4094C62.9262 27.6875 63.2085 27.9661 63.4911 28.2438C64.3024 29.0413 65.1158 29.8379 65.9383 30.6241C66.3698 31.0366 66.8046 31.4904 67.2821 31.8505C67.6362 32.1033 67.9397 32.3471 68.3378 32.3471C68.388 32.3471 68.4398 32.3433 68.4935 32.3349C69.3925 32.1963 69.8445 30.7763 69.4492 29.4317C69.4492 29.4317 69.2069 29.4317 68.9647 29.9161C68.9647 29.4317 68.4801 27.7361 68.4801 27.7361C68.4801 27.7361 69.6913 27.9782 70.6606 28.9472C70.1757 28.9472 70.1757 28.9472 70.0548 29.0683C71.266 31.2486 68.7882 33.3395 69.3413 34.8958C69.1806 34.8433 69.0159 34.8203 68.8473 34.8203C68.2401 34.8203 67.5824 35.1184 66.8797 35.4166C66.1771 35.7147 65.43 36.0129 64.645 36.0129C64.2376 36.0129 63.8198 35.9327 63.3928 35.7303C63.2716 35.8514 63.2716 36.0937 63.2716 36.3359ZM68.2456 20.3213C68.0702 20.3213 67.8949 20.3883 67.761 20.522C67.4936 20.7895 67.4936 21.2235 67.761 21.4911C67.8949 21.6248 68.0702 21.6917 68.2456 21.6917C68.4209 21.6917 68.5963 21.6248 68.73 21.4911C68.9977 21.2235 68.9977 20.7895 68.73 20.522C68.5963 20.3883 68.4209 20.3213 68.2456 20.3213ZM55.4886 20.3213C55.3133 20.3213 55.138 20.3883 55.0041 20.522C54.7365 20.7895 54.7365 21.2235 55.0041 21.4911C55.138 21.6248 55.3133 21.6917 55.4886 21.6917C55.6642 21.6917 55.8394 21.6248 55.9732 21.4911C56.2408 21.2235 56.2408 20.7895 55.9732 20.522C55.8394 20.3883 55.6642 20.3213 55.4886 20.3213Z" fill="#2E3192"/>
</g>
<defs>
<clipPath id="clip0_81_727">
<rect width="67.6923" height="44" fill="white" transform="translate(28 9)"/>
</clipPath>
</defs>
</svg>
