<svg width="94" height="58" viewBox="0 0 94 58" fill="none" xmlns="http://www.w3.org/2000/svg">
<path d="M0 58H13L23.0161 35H10.0161L0 58Z" fill="black"/>
<path d="M38 0H25L11.0645 32H24.0645L38 0Z" fill="black"/>
<path d="M22 45H45L51.5 35H26.0161L22 45Z" fill="black"/>
<path d="M32.5 20L38 7L49.9355 32H37.9355L32.5 20Z" fill="black"/>
<path d="M43 44.5L51.5 35L61.4355 58H49.4355L43 44.5Z" fill="black"/>
<path fill-rule="evenodd" clip-rule="evenodd" d="M64.5 10V0H94L83.25 10H64.5Z" fill="black"/>
<path fill-rule="evenodd" clip-rule="evenodd" d="M64.5 32V23H82.5L75.5 32H64.5Z" fill="black"/>
<path fill-rule="evenodd" clip-rule="evenodd" d="M54.5 31V10L64.5 0V19L54.5 31ZM54.5 35L64.5 58V23L54.5 35Z" fill="black"/>
</svg>
