<svg width="156" height="58" viewBox="0 0 156 58" fill="none" xmlns="http://www.w3.org/2000/svg">
<path d="M0 58H13L23.0161 35H10.0161L0 58Z" fill="black"/>
<path d="M38 0H25L11.0645 32H24.0645L38 0Z" fill="black"/>
<path d="M22 45H45L51.5 35H26.0161L22 45Z" fill="black"/>
<path d="M32.5 20L38 7L49.9355 32H37.9355L32.5 20Z" fill="black"/>
<path d="M43.0001 44.5L51.5001 35L61.4355 58H49.4355L43.0001 44.5Z" fill="black"/>
<path fill-rule="evenodd" clip-rule="evenodd" d="M64.5 10V0H94L83.25 10H64.5Z" fill="black"/>
<path fill-rule="evenodd" clip-rule="evenodd" d="M64.5 32V23H82.5L75.5 32H64.5Z" fill="black"/>
<path fill-rule="evenodd" clip-rule="evenodd" d="M54.5 31V10L64.5 0V19L54.5 31ZM54.5 35L64.5 58V23L54.5 35Z" fill="black"/>
<path d="M75.5 58V42H76.3246V58H75.5ZM77.9737 58V42H78.7983V58H77.9737ZM79.6228 58V42H81.272V58H79.6228Z" fill="black"/>
<path d="M84.5724 58V42H85.3969V58H84.5724ZM86.2215 58V42H87.8706V58H86.2215ZM91.1689 58V42H91.9935V58H91.1689Z" fill="black"/>
<path d="M93.6447 58V42H94.4693V58H93.6447ZM96.1184 58V42H99.4167V58H96.1184ZM100.241 58V42H101.066V58H100.241Z" fill="black"/>
<path d="M102.717 58V42H103.542V58H102.717ZM104.366 58V42H106.015V58H104.366ZM107.664 58V42H108.489V58H107.664Z" fill="black"/>
<path d="M111.789 58V42H112.614V58H111.789ZM114.263 58V42H115.088V58H114.263ZM116.737 58V42H120.035V58H116.737Z" fill="black"/>
<path d="M120.862 58V42H121.686V58H120.862ZM122.511 58V42H124.16V58H122.511ZM127.458 58V42H128.283V58H127.458Z" fill="black"/>
<path d="M129.934 58V42H131.583V58H129.934ZM133.232 58V42H134.057V58H133.232ZM134.882 58V42H135.706V58H134.882Z" fill="black"/>
<path d="M139.007 58V42H139.831V58H139.007ZM142.305 58V42H145.603V58H142.305ZM146.428 58V42H147.252V58H146.428Z" fill="black"/>
<path d="M148.079 58V42H151.377V58H148.079ZM153.026 58V42H153.851V58H153.026ZM154.675 58V42H155.5V58H154.675Z" fill="black"/>
</svg>
