<svg width="124" height="62" viewBox="0 0 124 62" fill="none" xmlns="http://www.w3.org/2000/svg">
<path d="M71.564 13.3062C71.102 13.3462 70.62 13.3862 70.158 13.4462C68.1868 13.6656 66.2695 14.2302 64.494 15.1142C62.6637 16.0102 60.9998 17.2121 59.574 18.6682C59.514 18.7482 59.394 18.7882 59.292 18.7682C58.3019 18.621 57.2995 18.5741 56.3 18.6282C54.2612 18.7283 52.265 19.2478 50.436 20.1542C46.9 21.9222 44.41 24.6742 42.964 28.3702C42.4364 29.7397 42.1247 31.1829 42.04 32.6482C42.04 32.7482 42.02 32.8282 42 32.9082V34.4542C42.04 34.8562 42.1 35.2382 42.14 35.6402C42.34 37.2662 42.804 38.8322 43.546 40.3002C45.194 43.5922 47.724 46.0022 51.118 47.4882C52.6679 48.1715 54.3272 48.5731 56.018 48.6742C56.082 48.6742 56.138 48.6822 56.19 48.6942H73.342C73.708 48.6602 74.066 48.6242 74.436 48.5742C76.3938 48.3544 78.2971 47.7896 80.058 46.9062C83.0653 45.4383 85.594 43.1468 87.35 40.2982C88.5525 38.419 89.3583 36.3139 89.718 34.1122C89.818 33.4322 89.878 32.7282 89.96 32.0442C89.96 31.9442 89.98 31.8642 90 31.7842V30.1962C89.96 29.7362 89.9 29.2922 89.9 28.8722C89.6804 26.9137 89.1157 25.0096 88.232 23.2482C86.7425 20.2435 84.439 17.7176 81.584 15.9582C79.7146 14.7701 77.625 13.9709 75.44 13.6082C74.716 13.4882 74.014 13.4282 73.29 13.3482C73.19 13.3482 73.11 13.3282 73.01 13.3082L71.564 13.3062ZM72.302 16.6922C76.554 16.7022 80.162 18.3442 83.092 21.6022C84.751 23.4841 85.868 25.7811 86.324 28.2482C86.624 29.7762 86.686 31.3422 86.464 32.8882C86.084 35.5802 85.06 37.9882 83.312 40.0982C81.2809 42.5917 78.4617 44.3197 75.318 44.9982C73.6365 45.3662 71.9031 45.434 70.198 45.1982C68.008 44.9182 66 44.1962 64.192 42.8902C63.7123 42.547 63.2627 42.1636 62.848 41.7442C60.396 39.3342 57.968 36.9042 55.516 34.4942C54.914 33.8942 54.874 33.2302 55.156 32.6262C55.3034 32.3037 55.5512 32.0376 55.8622 31.8675C56.1733 31.6974 56.531 31.6324 56.882 31.6822C57.302 31.7222 57.626 31.9642 57.926 32.2662C60.136 34.4942 62.326 36.6842 64.534 38.9142C66.1918 40.6048 68.3712 41.6871 70.72 41.9862C74.616 42.5082 77.93 41.3042 80.56 38.3902C81.986 36.8042 82.85 34.8962 83.212 32.7682C83.732 29.5942 82.992 26.7422 81.022 24.2322C79.276 22.0022 76.986 20.6162 74.214 20.1142C71.382 19.6142 68.712 20.1542 66.282 21.7022C66.222 21.7422 66.082 21.7622 66.02 21.7222C65.1365 21.0685 64.1953 20.4968 63.208 20.0142C63.208 20.0142 63.188 19.9942 63.168 19.9542C63.9394 19.3119 64.7815 18.7596 65.678 18.3082C67.3098 17.4223 69.1091 16.8882 70.96 16.7402C71.4059 16.7064 71.8529 16.6904 72.3 16.6922H72.302ZM57.092 22.0182C60.002 21.9702 62.674 23.0682 65.056 25.2782C66.764 26.8822 68.33 28.5502 69.976 30.2182C70.438 30.6782 70.538 31.2622 70.318 31.8842C70.098 32.5062 69.594 32.8082 68.952 32.9082C68.7198 32.9398 68.4834 32.9145 68.2632 32.8343C68.043 32.7542 67.8455 32.6216 67.688 32.4482C66.12 30.8802 64.554 29.3342 63.008 27.7482C61.742 26.4422 60.236 25.6982 58.468 25.3762C54.552 24.6742 50.596 26.9442 49.19 30.6582C47.382 35.3782 50.234 40.7202 55.154 41.8462C56.118 42.0662 57.144 42.0662 58.148 42.0462C58.428 42.0262 58.588 42.1262 58.788 42.3062C59.754 43.2522 60.778 44.1962 61.782 45.1382C61.842 45.1982 61.922 45.2582 61.982 45.3182C61.862 45.3182 61.782 45.3382 61.702 45.3382H57.102C54.448 45.3376 51.8735 44.4321 49.8034 42.7712C47.7334 41.1102 46.2916 38.793 45.716 36.2022C44.41 30.3182 47.784 24.3522 53.568 22.6062C54.709 22.2446 55.8954 22.0466 57.092 22.0182Z" fill="black"/>
</svg>
