<svg width="124" height="62" viewBox="0 0 124 62" fill="none" xmlns="http://www.w3.org/2000/svg">
<g clip-path="url(#clip0_77_93)">
<path d="M54.0034 55C58.4194 55 62.0034 51.416 62.0034 47V39H54.0034C49.5874 39 46.0034 42.584 46.0034 47C46.0034 51.416 49.5874 55 54.0034 55Z" fill="#0ACF83"/>
<path d="M46.0034 31C46.0034 26.584 49.5874 23 54.0034 23H62.0034V39H54.0034C49.5874 39 46.0034 35.416 46.0034 31Z" fill="#A259FF"/>
<path d="M46.0034 15C46.0034 10.584 49.5874 7 54.0034 7H62.0034V23H54.0034C49.5874 23 46.0034 19.416 46.0034 15Z" fill="#F24E1E"/>
<path d="M62.0034 7H70.0034C74.4194 7 78.0034 10.584 78.0034 15C78.0034 19.416 74.4194 23 70.0034 23H62.0034V7Z" fill="#FF7262"/>
<path d="M78.0034 31C78.0034 35.416 74.4194 39 70.0034 39C65.5874 39 62.0034 35.416 62.0034 31C62.0034 26.584 65.5874 23 70.0034 23C74.4194 23 78.0034 26.584 78.0034 31Z" fill="#1ABCFE"/>
</g>
<defs>
<clipPath id="clip0_77_93">
<rect width="32.0064" height="48" fill="white" transform="translate(46 7)"/>
</clipPath>
</defs>
</svg>
