<?xml version="1.0" encoding="utf-8"?>
<!-- Generator: Adobe Illustrator 19.2.1, SVG Export Plug-In . SVG Version: 6.00 Build 0)  -->
<svg version="1.1" id="layer" xmlns="http://www.w3.org/2000/svg" xmlns:xlink="http://www.w3.org/1999/xlink" x="0px" y="0px"
	 viewBox="0 0 652 652" style="enable-background:new 0 0 652 652;" xml:space="preserve">
<style type="text/css">
	.st0{fill:url(#SVGID_1_);}
	.st1{fill:url(#SVGID_2_);}
	.st2{fill:url(#SVGID_3_);}
	.st3{fill:#2F2F2F;}
</style>
<linearGradient id="SVGID_1_" gradientUnits="userSpaceOnUse" x1="147.5442" y1="394.1895" x2="35.7198" y2="411.0628" gradientTransform="matrix(1 0 0 -1 0 652)">
	<stop  offset="0" style="stop-color:#8DE4FF"/>
	<stop  offset="1" style="stop-color:#30CEFF"/>
</linearGradient>
<path class="st0" d="M82.9,285h65.4v-64H18.7v0.6L82.9,285L82.9,285z"/>
<linearGradient id="SVGID_2_" gradientUnits="userSpaceOnUse" x1="147.0827" y1="334.9732" x2="32.2108" y2="334.9732" gradientTransform="matrix(1 0 0 -1 0 652)">
	<stop  offset="0" style="stop-color:#00C5FF"/>
	<stop  offset="1" style="stop-color:#009AFF"/>
</linearGradient>
<path class="st1" d="M82.9,285H17.5v64h129.6v-0.6C147.1,348.5,82.9,285,82.9,285z"/>
<linearGradient id="SVGID_3_" gradientUnits="userSpaceOnUse" x1="49.8741" y1="302.953" x2="49.8741" y2="238.3214" gradientTransform="matrix(1 0 0 -1 0 652)">
	<stop  offset="0" style="stop-color:#005AFF"/>
	<stop  offset="1" style="stop-color:#008DFF"/>
</linearGradient>
<path class="st2" d="M17.5,349h64.7v64.6L17.5,349z"/>
<path class="st3" d="M237.3,348.9v-35.1h39v-16.6h-39v-23.3h42.1v-16.7h-61.1v91.8L237.3,348.9L237.3,348.9z M328.2,281.8
	c-1-0.6-3.9-1.2-7-1.2c-6.6,0-12.1,3.3-14.9,8.1v-6.6h-18.5v66.8h18.5v-41.4c1.3-6.1,6.5-9.4,12.7-9.4c3.4,0,6.7,0.7,9.3,2.2V281.8
	L328.2,281.8z M389.9,348.9v-42.6c0-16-10.4-25.7-28.1-25.7c-15.2,0-26.2,9.3-28.1,21.4h17.6c1.5-3.9,4.6-6.3,9.9-6.3
	c7.5,0,10.9,4.6,10.9,10.4v4.9c-2.7-1.9-9.4-3.9-15.2-3.9c-14.5,0-25.9,8.7-25.9,21.4c0,13.9,11.4,21.7,24.8,21.7
	c7.3,0,14.1-2.5,16.3-4.8v3.6L389.9,348.9L389.9,348.9z M372.1,330.6c-1.6,3.6-6.7,5.8-12.1,5.8c-5.8,0-11.8-2.4-11.8-8.2
	c0-5.7,6-8.2,11.8-8.2c5.4,0,10.5,2.2,12.1,5.8C372.1,325.9,372.1,330.6,372.1,330.6z M455.4,289.1c-3.7-4.9-10-8.5-17.9-8.5
	c-7.5,0-13.6,2.8-16.9,7v-5.5H402v66.8h18.5v-43c1.2-5.7,5.7-8.7,10.5-8.7c6.5,0,9.4,4.8,9.4,12v39.7h18.7v-43
	c1.2-5.7,5.5-8.7,10.4-8.7c6.4,0,9.6,4.8,9.6,12v39.7h18.5v-43.6c0-15.1-8.2-24.7-22-24.7C466.1,280.6,459.7,284.3,455.4,289.1
	L455.4,289.1z M550.6,327.1c-1.5,5.7-6.1,8.4-12.4,8.4c-8.2,0-13.9-6-14.5-16h44.5v-5.7c0-19.6-10.8-33.2-30.3-33.2
	c-18.7,0-32.1,14.8-32.1,35c0,20.6,13,34.8,32.4,34.8c16.7,0,27.2-9.1,29.6-23.3L550.6,327.1L550.6,327.1z M538.1,295.7
	c7.6,0,11.8,5.5,12,12.6h-25.9C525.8,300,530.8,295.7,538.1,295.7L538.1,295.7z M617.5,281.8c-1-0.6-3.9-1.2-7-1.2
	c-6.6,0-12.1,3.3-14.9,8.1v-6.6H577v66.8h18.5v-41.4c1.3-6.1,6.4-9.4,12.7-9.4c3.4,0,6.7,0.7,9.3,2.2L617.5,281.8L617.5,281.8z"/>
</svg>
