<svg width="124" height="62" viewBox="0 0 124 62" fill="none" xmlns="http://www.w3.org/2000/svg">
<g clip-path="url(#clip0_78_145)">
<path d="M73.6235 52.0069C73.445 52.1014 73.46 52.1314 73.631 52.0444C73.6865 52.0219 73.733 51.9904 73.7735 51.9529C73.7735 51.9214 73.7735 51.9214 73.6235 52.0069ZM73.9835 51.8119C73.898 51.8824 73.898 51.8824 74 51.8359C74.054 51.8044 74.102 51.7744 74.102 51.7654C74.102 51.7249 74.078 51.7339 73.9835 51.8119ZM74.2175 51.6709C74.132 51.7414 74.132 51.7414 74.234 51.6949C74.2895 51.6634 74.336 51.6304 74.336 51.6229C74.336 51.5854 74.312 51.5929 74.2175 51.6709ZM74.4545 51.5314C74.369 51.6019 74.369 51.6019 74.468 51.5539C74.5235 51.5239 74.57 51.4924 74.57 51.4834C74.57 51.4459 74.546 51.4534 74.4545 51.5314ZM74.774 51.3199C74.6105 51.4294 74.5535 51.4999 74.7035 51.4219C74.804 51.3604 74.975 51.2254 74.945 51.2254C74.8805 51.2494 74.8265 51.2899 74.7725 51.3199H74.774ZM60.4295 7.01591C60.32 7.02341 59.9915 7.05341 59.7035 7.07741C52.8815 7.69541 46.499 11.3674 42.4535 17.0239C40.217 20.1244 38.765 23.7259 38.2175 27.5074C38.024 28.8274 38 29.2174 38 31.0069C38 32.7949 38.024 33.1789 38.2175 34.4989C39.524 43.5154 45.938 51.0844 54.632 53.8894C56.1965 54.3889 57.836 54.7339 59.7035 54.9454C60.4295 55.0234 63.569 55.0234 64.295 54.9454C67.523 54.5854 70.2485 53.7889 72.9455 52.4134C73.3595 52.2034 73.4375 52.1479 73.382 52.1014C72.062 50.3599 70.766 48.6169 69.4685 46.8589L65.633 41.6794L60.8285 34.5619C59.2265 32.1799 57.6185 29.8039 55.985 27.4459C55.9685 27.4459 55.9475 30.6094 55.9385 34.4674C55.922 41.2249 55.922 41.4994 55.8365 41.6554C55.751 41.8429 55.61 41.9989 55.4225 42.0859C55.274 42.1564 55.1405 42.1714 54.431 42.1714H53.6195L53.408 42.0394C53.276 41.9539 53.1665 41.8354 53.096 41.6959L52.994 41.4844L53.0015 32.0779L53.018 22.6714L53.1665 22.4839C53.261 22.3684 53.378 22.2739 53.51 22.2034C53.7065 22.1089 53.7845 22.0939 54.596 22.0939C55.5485 22.0939 55.706 22.1314 55.9565 22.4059C57.9005 25.3039 59.8385 28.2094 61.745 31.1239C64.8635 35.8519 69.1205 42.3034 71.213 45.4684L75.0185 51.2269L75.206 51.1024C77.0345 49.8829 78.698 48.4309 80.1335 46.7749C83.1575 43.3129 85.1195 39.0544 85.784 34.5094C85.9775 33.1894 86.0015 32.7979 86.0015 31.0099C86.0015 29.2204 85.9775 28.8379 85.784 27.5179C84.4775 18.5014 78.0635 10.9324 69.3695 8.12591C67.7435 7.61141 66.071 7.26041 64.3775 7.08041C63.923 7.03391 60.821 6.97841 60.431 7.01891L60.4295 7.01591ZM70.25 21.5314C70.4765 21.6394 70.6475 21.8434 70.7255 22.0774C70.766 22.2034 70.7735 24.8119 70.766 30.6874L70.7495 39.1234L69.266 36.8434L67.7735 34.5619V28.4374C67.7735 24.4669 67.79 22.2409 67.811 22.1314C67.8815 21.8809 68.0525 21.6709 68.2805 21.5389C68.4665 21.4444 68.5385 21.4369 69.281 21.4369C69.9755 21.4369 70.094 21.4444 70.25 21.5314Z" fill="white"/>
</g>
<defs>
<clipPath id="clip0_78_145">
<rect width="48" height="48" fill="white" transform="translate(38 7)"/>
</clipPath>
</defs>
</svg>
