<svg width="124" height="62" viewBox="0 0 124 62" fill="none" xmlns="http://www.w3.org/2000/svg">
<g clip-path="url(#clip0_77_110)">
<path d="M61.5 36.04C64.1557 36.04 66.3085 33.8871 66.3085 31.2314C66.3085 28.5757 64.1557 26.4229 61.5 26.4229C58.8443 26.4229 56.6914 28.5757 56.6914 31.2314C56.6914 33.8871 58.8443 36.04 61.5 36.04Z" fill="#61DAFB"/>
<path d="M61.5001 41.0833C75.7501 41.0833 87.3021 36.6725 87.3021 31.2316C87.3021 25.7906 75.7501 21.3799 61.5001 21.3799C47.25 21.3799 35.698 25.7906 35.698 31.2316C35.698 36.6725 47.25 41.0833 61.5001 41.0833Z" stroke="#61DAFB" stroke-width="2.34564"/>
<path d="M52.968 36.1574C60.0931 48.4983 69.6889 56.2973 74.4009 53.5768C79.1129 50.8563 77.1567 38.6466 70.0316 26.3057C62.9066 13.9648 53.3108 6.16583 48.5988 8.8863C43.8868 11.6068 45.843 23.8165 52.968 36.1574Z" stroke="#61DAFB" stroke-width="2.34564"/>
<path d="M52.9679 26.3065C45.8429 38.6475 43.8867 50.8572 48.5987 53.5776C53.3107 56.2981 62.9065 48.4992 70.0316 36.1582C77.1566 23.8173 79.1128 11.6076 74.4008 8.88714C69.6888 6.16667 60.093 13.9656 52.9679 26.3065Z" stroke="#61DAFB" stroke-width="2.34564"/>
</g>
<defs>
<clipPath id="clip0_77_110">
<rect width="53.9498" height="48" fill="white" transform="translate(34.5251 7.23193)"/>
</clipPath>
</defs>
</svg>
